<svg width="245" height="250" viewBox="0 0 245 250" fill="none" xmlns="http://www.w3.org/2000/svg">
<rect y="23.7817" width="245" height="199" rx="22" fill="#332C71"/>
<rect x="0.5" y="24.2817" width="244" height="198" rx="21.5" stroke="white" stroke-opacity="0.3"/>
<rect x="62.5" y="0.5" width="119.181" height="47.5501" rx="23.775" fill="url(#paint0_linear_2072_41025)" stroke="white"/>
<circle cx="157.905" cy="24.2748" r="20.2955" fill="white" fill-opacity="0.76"/>
<path d="M167.789 28.2741L169.761 29.0852C170.099 28.2627 169.892 27.3166 169.24 26.7115C168.588 26.1063 167.63 25.9691 166.834 26.3672L167.789 28.2741ZM157.041 15.1541L158.762 16.4134C159.286 15.6978 159.312 14.7328 158.828 13.9899C158.344 13.2469 157.45 12.8811 156.584 13.0712L157.041 15.1541ZM163.977 27.0406C160.416 27.0406 157.47 24.0965 157.47 20.3907L153.205 20.3907C153.205 26.3856 157.995 31.3055 163.977 31.3055L163.977 27.0406ZM166.834 26.3672C165.973 26.7983 165.006 27.0406 163.977 27.0406L163.977 31.3055C165.685 31.3055 167.305 30.9011 168.744 30.1809L166.834 26.3672ZM165.817 27.463C164.699 30.1812 162.074 32.0575 159.048 32.0575L159.048 36.3224C163.895 36.3224 168.021 33.3159 169.761 29.0852L165.817 27.463ZM159.048 32.0575C155.029 32.0575 151.711 28.7355 151.711 24.5637L147.446 24.5637C147.446 31.0247 152.608 36.3224 159.048 36.3224L159.048 32.0575ZM151.711 24.5637C151.711 20.9468 154.213 17.9578 157.498 17.237L156.584 13.0712C151.338 14.2223 147.446 18.9479 147.446 24.5637L151.711 24.5637ZM157.47 20.3907C157.47 18.8936 157.952 17.5203 158.762 16.4134L155.32 13.8947C153.99 15.7121 153.205 17.963 153.205 20.3907L157.47 20.3907Z" fill="#332C71"/>
<rect x="47" y="197.782" width="150.959" height="51.6668" rx="25.8334" fill="#3B328A"/>
<g clip-path="url(#clip0_2072_41025)">
<path d="M103.856 209.782H72.8019C65.1793 209.782 59 215.961 59 223.584C59 231.206 65.1793 237.385 72.8019 237.385H103.856C111.479 237.385 117.658 231.206 117.658 223.584C117.658 215.961 111.479 209.782 103.856 209.782Z" fill="url(#paint1_linear_2072_41025)"/>
<path d="M104.171 233.42C109.745 233.42 114.263 228.902 114.263 223.328C114.263 217.754 109.745 213.235 104.171 213.235C98.5967 213.235 94.0781 217.754 94.0781 223.328C94.0781 228.902 98.5967 233.42 104.171 233.42Z" fill="white"/>
<path d="M73.1902 219.889C73.8665 219.889 74.4496 220.031 74.9395 220.314C75.4296 220.597 75.8056 221 76.0679 221.525C76.337 222.049 76.4716 222.677 76.4716 223.409C76.4716 224.14 76.337 224.768 76.0679 225.293C75.8056 225.817 75.4296 226.221 74.9395 226.504C74.4496 226.787 73.8665 226.928 73.1902 226.928C72.5139 226.928 71.9273 226.787 71.4304 226.504C70.9405 226.221 70.5609 225.817 70.2918 225.293C70.0296 224.768 69.8984 224.14 69.8984 223.409C69.8984 222.677 70.0296 222.049 70.2918 221.525C70.5609 221 70.9405 220.597 71.4304 220.314C71.9273 220.031 72.5139 219.889 73.1902 219.889ZM73.1902 221.059C72.8037 221.059 72.4759 221.149 72.2068 221.328C71.9377 221.508 71.7307 221.773 71.5857 222.125C71.4477 222.47 71.3787 222.898 71.3787 223.409C71.3787 223.913 71.4477 224.34 71.5857 224.692C71.7307 225.044 71.9377 225.31 72.2068 225.489C72.4759 225.669 72.8037 225.759 73.1902 225.759C73.5697 225.759 73.8941 225.669 74.1632 225.489C74.4323 225.31 74.6359 225.044 74.774 224.692C74.9189 224.34 74.9914 223.913 74.9914 223.409C74.9914 222.898 74.9189 222.47 74.774 222.125C74.6359 221.773 74.4323 221.508 74.1632 221.328C73.8941 221.149 73.5697 221.059 73.1902 221.059ZM83.7818 219.993V226.825H82.1463L79.7551 222.809L79.1651 221.691H79.1548L79.1962 222.871V226.825H77.9126V219.993H79.5378L81.9289 223.999L82.519 225.127H82.5397L82.4982 223.947V219.993H83.7818Z" fill="#343434"/>
</g>
<path d="M172.326 209.782H140.317C132.788 209.782 126.684 215.813 126.684 223.254C126.684 230.694 132.788 236.725 140.317 236.725H172.326C179.856 236.725 185.96 230.694 185.96 223.254C185.96 215.813 179.856 209.782 172.326 209.782Z" stroke="white" stroke-width="2.27"/>
<path d="M141.504 233.582C147.208 233.582 151.833 228.958 151.833 223.254C151.833 217.549 147.208 212.925 141.504 212.925C135.8 212.925 131.176 217.549 131.176 223.254C131.176 228.958 135.8 233.582 141.504 233.582Z" fill="white"/>
<path d="M160.188 219.661C160.89 219.661 161.495 219.805 162.004 220.094C162.512 220.383 162.903 220.795 163.175 221.33C163.454 221.866 163.594 222.507 163.594 223.253C163.594 224 163.454 224.641 163.175 225.176C162.903 225.712 162.512 226.124 162.004 226.413C161.495 226.702 160.89 226.846 160.188 226.846C159.486 226.846 158.877 226.702 158.361 226.413C157.852 226.124 157.458 225.712 157.179 225.176C156.907 224.641 156.771 224 156.771 223.253C156.771 222.507 156.907 221.866 157.179 221.33C157.458 220.795 157.852 220.383 158.361 220.094C158.877 219.805 159.486 219.661 160.188 219.661ZM160.188 220.855C159.787 220.855 159.446 220.947 159.167 221.13C158.887 221.313 158.673 221.584 158.522 221.943C158.379 222.295 158.307 222.732 158.307 223.253C158.307 223.768 158.379 224.204 158.522 224.564C158.673 224.923 158.887 225.194 159.167 225.377C159.446 225.56 159.787 225.652 160.188 225.652C160.582 225.652 160.918 225.56 161.198 225.377C161.477 225.194 161.688 224.923 161.832 224.564C161.982 224.204 162.057 223.768 162.057 223.253C162.057 222.732 161.982 222.295 161.832 221.943C161.688 221.584 161.477 221.313 161.198 221.13C160.918 220.947 160.582 220.855 160.188 220.855ZM170.399 220.94H166.573V222.715H169.593V223.887H166.573V226.74H165.09V219.767H170.399V220.94ZM176.978 220.94H173.153V222.715H176.172V223.887H173.153V226.74H171.67V219.767H176.978V220.94Z" fill="white"/>
<path d="M91.9766 174.922L88.5781 184.782H86.5234L90.8047 173.407H92.1172L91.9766 174.922ZM94.8203 184.782L91.4141 174.922L91.2656 173.407H92.5859L96.8828 184.782H94.8203ZM94.6562 180.563V182.118H88.4688V180.563H94.6562ZM102.961 182.79V176.329H104.852V184.782H103.07L102.961 182.79ZM103.227 181.032L103.859 181.016C103.859 181.584 103.797 182.107 103.672 182.586C103.547 183.06 103.354 183.474 103.094 183.829C102.833 184.178 102.5 184.451 102.094 184.649C101.688 184.842 101.201 184.938 100.633 184.938C100.221 184.938 99.8438 184.878 99.5 184.758C99.1562 184.639 98.8594 184.454 98.6094 184.204C98.3646 183.954 98.1745 183.628 98.0391 183.227C97.9036 182.826 97.8359 182.347 97.8359 181.79V176.329H99.7188V181.805C99.7188 182.112 99.7552 182.37 99.8281 182.579C99.901 182.782 100 182.946 100.125 183.071C100.25 183.196 100.396 183.284 100.562 183.336C100.729 183.389 100.906 183.415 101.094 183.415C101.63 183.415 102.052 183.31 102.359 183.102C102.672 182.889 102.893 182.602 103.023 182.243C103.159 181.883 103.227 181.48 103.227 181.032ZM110.656 176.329V177.704H105.891V176.329H110.656ZM107.266 174.258H109.148V182.446C109.148 182.706 109.185 182.907 109.258 183.047C109.336 183.183 109.443 183.274 109.578 183.321C109.714 183.368 109.872 183.391 110.055 183.391C110.185 183.391 110.31 183.383 110.43 183.368C110.549 183.352 110.646 183.336 110.719 183.321L110.727 184.758C110.57 184.805 110.388 184.847 110.18 184.883C109.977 184.92 109.742 184.938 109.477 184.938C109.044 184.938 108.661 184.862 108.328 184.711C107.995 184.555 107.734 184.303 107.547 183.954C107.359 183.605 107.266 183.141 107.266 182.563V174.258ZM111.562 180.649V180.469C111.562 179.86 111.651 179.295 111.828 178.774C112.005 178.248 112.26 177.792 112.594 177.407C112.932 177.016 113.344 176.714 113.828 176.5C114.318 176.282 114.87 176.172 115.484 176.172C116.104 176.172 116.656 176.282 117.141 176.5C117.63 176.714 118.044 177.016 118.383 177.407C118.721 177.792 118.979 178.248 119.156 178.774C119.333 179.295 119.422 179.86 119.422 180.469V180.649C119.422 181.258 119.333 181.823 119.156 182.344C118.979 182.865 118.721 183.321 118.383 183.711C118.044 184.097 117.633 184.399 117.148 184.618C116.664 184.831 116.115 184.938 115.5 184.938C114.88 184.938 114.326 184.831 113.836 184.618C113.352 184.399 112.94 184.097 112.602 183.711C112.263 183.321 112.005 182.865 111.828 182.344C111.651 181.823 111.562 181.258 111.562 180.649ZM113.445 180.469V180.649C113.445 181.029 113.484 181.389 113.562 181.727C113.641 182.066 113.763 182.362 113.93 182.618C114.096 182.873 114.31 183.073 114.57 183.219C114.831 183.365 115.141 183.438 115.5 183.438C115.849 183.438 116.151 183.365 116.406 183.219C116.667 183.073 116.88 182.873 117.047 182.618C117.214 182.362 117.336 182.066 117.414 181.727C117.497 181.389 117.539 181.029 117.539 180.649V180.469C117.539 180.094 117.497 179.74 117.414 179.407C117.336 179.068 117.211 178.769 117.039 178.508C116.872 178.248 116.659 178.045 116.398 177.899C116.143 177.748 115.839 177.672 115.484 177.672C115.13 177.672 114.823 177.748 114.562 177.899C114.307 178.045 114.096 178.248 113.93 178.508C113.763 178.769 113.641 179.068 113.562 179.407C113.484 179.74 113.445 180.094 113.445 180.469ZM131.156 181.852C131.156 181.618 131.12 181.409 131.047 181.227C130.979 181.045 130.857 180.878 130.68 180.727C130.503 180.576 130.253 180.43 129.93 180.29C129.612 180.144 129.206 179.995 128.711 179.844C128.169 179.678 127.669 179.493 127.211 179.29C126.758 179.081 126.362 178.842 126.023 178.571C125.685 178.295 125.422 177.98 125.234 177.625C125.047 177.266 124.953 176.852 124.953 176.383C124.953 175.92 125.049 175.498 125.242 175.118C125.44 174.737 125.719 174.409 126.078 174.133C126.443 173.852 126.872 173.636 127.367 173.485C127.862 173.329 128.409 173.25 129.008 173.25C129.852 173.25 130.578 173.407 131.188 173.719C131.802 174.032 132.273 174.451 132.602 174.977C132.935 175.503 133.102 176.084 133.102 176.719H131.156C131.156 176.344 131.076 176.014 130.914 175.727C130.758 175.435 130.518 175.206 130.195 175.04C129.878 174.873 129.474 174.79 128.984 174.79C128.521 174.79 128.135 174.86 127.828 175C127.521 175.141 127.292 175.331 127.141 175.571C126.99 175.81 126.914 176.081 126.914 176.383C126.914 176.597 126.964 176.792 127.062 176.969C127.161 177.141 127.312 177.303 127.516 177.454C127.719 177.599 127.974 177.737 128.281 177.868C128.589 177.998 128.951 178.123 129.367 178.243C129.997 178.43 130.547 178.639 131.016 178.868C131.484 179.092 131.875 179.347 132.188 179.633C132.5 179.92 132.734 180.245 132.891 180.61C133.047 180.969 133.125 181.378 133.125 181.836C133.125 182.316 133.029 182.748 132.836 183.133C132.643 183.514 132.367 183.839 132.008 184.11C131.654 184.375 131.227 184.581 130.727 184.727C130.232 184.868 129.68 184.938 129.07 184.938C128.523 184.938 127.984 184.865 127.453 184.719C126.927 184.573 126.448 184.352 126.016 184.055C125.583 183.753 125.24 183.378 124.984 182.93C124.729 182.477 124.602 181.948 124.602 181.344H126.562C126.562 181.714 126.625 182.029 126.75 182.29C126.88 182.55 127.06 182.764 127.289 182.93C127.518 183.092 127.784 183.211 128.086 183.29C128.393 183.368 128.721 183.407 129.07 183.407C129.529 183.407 129.911 183.342 130.219 183.211C130.531 183.081 130.766 182.899 130.922 182.665C131.078 182.43 131.156 182.159 131.156 181.852ZM139.438 183.086V179.055C139.438 178.753 139.383 178.493 139.273 178.274C139.164 178.055 138.997 177.886 138.773 177.766C138.555 177.646 138.279 177.586 137.945 177.586C137.638 177.586 137.372 177.639 137.148 177.743C136.924 177.847 136.75 177.987 136.625 178.165C136.5 178.342 136.438 178.542 136.438 178.766H134.562C134.562 178.433 134.643 178.11 134.805 177.797C134.966 177.485 135.201 177.206 135.508 176.961C135.815 176.717 136.182 176.524 136.609 176.383C137.036 176.243 137.516 176.172 138.047 176.172C138.682 176.172 139.245 176.279 139.734 176.493C140.229 176.706 140.617 177.029 140.898 177.461C141.185 177.889 141.328 178.425 141.328 179.071V182.829C141.328 183.214 141.354 183.56 141.406 183.868C141.464 184.17 141.544 184.433 141.648 184.657V184.782H139.719C139.63 184.579 139.56 184.321 139.508 184.008C139.461 183.691 139.438 183.383 139.438 183.086ZM139.711 179.641L139.727 180.805H138.375C138.026 180.805 137.719 180.839 137.453 180.907C137.188 180.969 136.966 181.063 136.789 181.188C136.612 181.313 136.479 181.464 136.391 181.641C136.302 181.818 136.258 182.019 136.258 182.243C136.258 182.467 136.31 182.672 136.414 182.86C136.518 183.042 136.669 183.185 136.867 183.29C137.07 183.394 137.315 183.446 137.602 183.446C137.987 183.446 138.323 183.368 138.609 183.211C138.901 183.05 139.13 182.855 139.297 182.625C139.464 182.391 139.552 182.17 139.562 181.961L140.172 182.797C140.109 183.011 140.003 183.24 139.852 183.485C139.701 183.73 139.503 183.964 139.258 184.188C139.018 184.407 138.729 184.586 138.391 184.727C138.057 184.868 137.672 184.938 137.234 184.938C136.682 184.938 136.19 184.829 135.758 184.61C135.326 184.386 134.987 184.086 134.742 183.711C134.497 183.331 134.375 182.902 134.375 182.422C134.375 181.974 134.458 181.579 134.625 181.235C134.797 180.886 135.047 180.594 135.375 180.36C135.708 180.125 136.115 179.948 136.594 179.829C137.073 179.704 137.62 179.641 138.234 179.641H139.711ZM145.922 183.29L147.992 176.329H149.945L147.008 184.782H145.789L145.922 183.29ZM144.336 176.329L146.445 183.321L146.547 184.782H145.328L142.375 176.329H144.336ZM154.727 184.938C154.102 184.938 153.536 184.836 153.031 184.633C152.531 184.425 152.104 184.136 151.75 183.766C151.401 183.396 151.133 182.961 150.945 182.461C150.758 181.961 150.664 181.422 150.664 180.844V180.532C150.664 179.87 150.76 179.271 150.953 178.735C151.146 178.198 151.414 177.74 151.758 177.36C152.102 176.974 152.508 176.68 152.977 176.477C153.445 176.274 153.953 176.172 154.5 176.172C155.104 176.172 155.633 176.274 156.086 176.477C156.539 176.68 156.914 176.967 157.211 177.336C157.513 177.701 157.737 178.136 157.883 178.641C158.034 179.146 158.109 179.704 158.109 180.313V181.118H151.578V179.766H156.25V179.618C156.24 179.279 156.172 178.961 156.047 178.665C155.927 178.368 155.742 178.128 155.492 177.946C155.242 177.764 154.909 177.672 154.492 177.672C154.18 177.672 153.901 177.74 153.656 177.875C153.417 178.006 153.216 178.196 153.055 178.446C152.893 178.696 152.768 178.998 152.68 179.352C152.596 179.701 152.555 180.094 152.555 180.532V180.844C152.555 181.214 152.604 181.558 152.703 181.875C152.807 182.188 152.958 182.461 153.156 182.696C153.354 182.93 153.594 183.115 153.875 183.25C154.156 183.381 154.477 183.446 154.836 183.446C155.289 183.446 155.693 183.355 156.047 183.172C156.401 182.99 156.708 182.732 156.969 182.399L157.961 183.36C157.779 183.625 157.542 183.881 157.25 184.125C156.958 184.365 156.602 184.56 156.18 184.711C155.763 184.862 155.279 184.938 154.727 184.938Z" fill="white"/>
<path d="M91.5959 144.137H88.5969L88.1007 145.572H86.5149L89.2226 138.031H90.981L93.6888 145.572H92.0922L91.5959 144.137ZM91.186 142.929L90.0964 139.779L89.0068 142.929H91.186ZM96.4593 140.836V143.727C96.4593 143.928 96.506 144.076 96.5995 144.169C96.7002 144.256 96.8656 144.299 97.0958 144.299H97.797V145.572H96.8477C95.5747 145.572 94.9382 144.953 94.9382 143.716V140.836H94.2262V139.595H94.9382V138.117H96.4593V139.595H97.797V140.836H96.4593ZM100.642 140.836V143.727C100.642 143.928 100.688 144.076 100.782 144.169C100.883 144.256 101.048 144.299 101.278 144.299H101.979V145.572H101.03C99.7571 145.572 99.1206 144.953 99.1206 143.716V140.836H98.4086V139.595H99.1206V138.117H100.642V139.595H101.979V140.836H100.642ZM108.621 142.454C108.621 142.67 108.607 142.864 108.578 143.037H104.209C104.245 143.468 104.396 143.806 104.662 144.051C104.928 144.295 105.256 144.417 105.644 144.417C106.205 144.417 106.604 144.176 106.841 143.695H108.47C108.298 144.27 107.967 144.745 107.478 145.119C106.989 145.485 106.388 145.669 105.676 145.669C105.101 145.669 104.583 145.543 104.123 145.291C103.67 145.032 103.314 144.669 103.055 144.202C102.803 143.734 102.677 143.195 102.677 142.583C102.677 141.965 102.803 141.422 103.055 140.954C103.307 140.487 103.659 140.127 104.112 139.876C104.565 139.624 105.087 139.498 105.676 139.498C106.244 139.498 106.752 139.62 107.197 139.865C107.65 140.109 107.999 140.458 108.244 140.911C108.496 141.357 108.621 141.871 108.621 142.454ZM107.057 142.022C107.05 141.634 106.91 141.325 106.636 141.095C106.363 140.857 106.029 140.739 105.633 140.739C105.259 140.739 104.943 140.854 104.684 141.084C104.432 141.307 104.277 141.62 104.22 142.022H107.057ZM113.036 139.509C113.748 139.509 114.323 139.735 114.762 140.189C115.2 140.634 115.42 141.26 115.42 142.066V145.572H113.909V142.271C113.909 141.796 113.791 141.433 113.553 141.181C113.316 140.922 112.992 140.793 112.583 140.793C112.165 140.793 111.835 140.922 111.59 141.181C111.353 141.433 111.234 141.796 111.234 142.271V145.572H109.724V139.595H111.234V140.34C111.435 140.081 111.691 139.879 112 139.735C112.316 139.584 112.662 139.509 113.036 139.509ZM116.468 142.562C116.468 141.958 116.586 141.422 116.824 140.954C117.068 140.487 117.399 140.127 117.816 139.876C118.233 139.624 118.697 139.498 119.208 139.498C119.596 139.498 119.966 139.584 120.319 139.757C120.671 139.922 120.952 140.145 121.16 140.426V137.589H122.692V145.572H121.16V144.687C120.973 144.982 120.711 145.219 120.373 145.399C120.035 145.579 119.643 145.669 119.197 145.669C118.693 145.669 118.233 145.539 117.816 145.28C117.399 145.021 117.068 144.658 116.824 144.191C116.586 143.716 116.468 143.173 116.468 142.562ZM121.171 142.583C121.171 142.217 121.099 141.904 120.955 141.645C120.812 141.379 120.617 141.177 120.373 141.041C120.128 140.897 119.866 140.825 119.585 140.825C119.305 140.825 119.046 140.893 118.809 141.03C118.571 141.167 118.377 141.368 118.226 141.634C118.082 141.893 118.01 142.202 118.01 142.562C118.01 142.921 118.082 143.238 118.226 143.511C118.377 143.777 118.571 143.982 118.809 144.126C119.053 144.27 119.312 144.342 119.585 144.342C119.866 144.342 120.128 144.274 120.373 144.137C120.617 143.993 120.812 143.792 120.955 143.533C121.099 143.267 121.171 142.95 121.171 142.583ZM123.779 142.562C123.779 141.958 123.898 141.422 124.135 140.954C124.379 140.487 124.707 140.127 125.117 139.876C125.534 139.624 125.998 139.498 126.508 139.498C126.954 139.498 127.342 139.588 127.673 139.768C128.011 139.948 128.281 140.174 128.482 140.447V139.595H130.003V145.572H128.482V144.698C128.288 144.978 128.019 145.212 127.673 145.399C127.335 145.579 126.943 145.669 126.497 145.669C125.994 145.669 125.534 145.539 125.117 145.28C124.707 145.021 124.379 144.658 124.135 144.191C123.898 143.716 123.779 143.173 123.779 142.562ZM128.482 142.583C128.482 142.217 128.41 141.904 128.267 141.645C128.123 141.379 127.929 141.177 127.684 141.041C127.44 140.897 127.177 140.825 126.897 140.825C126.616 140.825 126.357 140.893 126.12 141.03C125.883 141.167 125.688 141.368 125.537 141.634C125.393 141.893 125.322 142.202 125.322 142.562C125.322 142.921 125.393 143.238 125.537 143.511C125.688 143.777 125.883 143.982 126.12 144.126C126.364 144.27 126.623 144.342 126.897 144.342C127.177 144.342 127.44 144.274 127.684 144.137C127.929 143.993 128.123 143.792 128.267 143.533C128.41 143.267 128.482 142.95 128.482 142.583ZM134.79 139.509C135.502 139.509 136.078 139.735 136.516 140.189C136.955 140.634 137.175 141.26 137.175 142.066V145.572H135.664V142.271C135.664 141.796 135.546 141.433 135.308 141.181C135.071 140.922 134.747 140.793 134.337 140.793C133.92 140.793 133.589 140.922 133.345 141.181C133.107 141.433 132.989 141.796 132.989 142.271V145.572H131.479V139.595H132.989V140.34C133.19 140.081 133.446 139.879 133.755 139.735C134.071 139.584 134.416 139.509 134.79 139.509ZM138.222 142.583C138.222 141.965 138.348 141.426 138.6 140.965C138.852 140.498 139.2 140.138 139.646 139.886C140.092 139.628 140.603 139.498 141.178 139.498C141.919 139.498 142.53 139.685 143.012 140.059C143.501 140.426 143.828 140.944 143.994 141.613H142.365C142.279 141.354 142.131 141.152 141.923 141.008C141.721 140.857 141.469 140.782 141.167 140.782C140.736 140.782 140.394 140.94 140.143 141.257C139.891 141.566 139.765 142.008 139.765 142.583C139.765 143.152 139.891 143.594 140.143 143.91C140.394 144.22 140.736 144.374 141.167 144.374C141.779 144.374 142.178 144.101 142.365 143.554H143.994C143.828 144.202 143.501 144.716 143.012 145.097C142.523 145.478 141.912 145.669 141.178 145.669C140.603 145.669 140.092 145.543 139.646 145.291C139.2 145.032 138.852 144.673 138.6 144.212C138.348 143.745 138.222 143.202 138.222 142.583ZM150.656 142.454C150.656 142.67 150.642 142.864 150.613 143.037H146.244C146.28 143.468 146.431 143.806 146.697 144.051C146.963 144.295 147.29 144.417 147.679 144.417C148.24 144.417 148.639 144.176 148.876 143.695H150.505C150.332 144.27 150.002 144.745 149.512 145.119C149.023 145.485 148.423 145.669 147.711 145.669C147.136 145.669 146.618 145.543 146.157 145.291C145.704 145.032 145.348 144.669 145.089 144.202C144.838 143.734 144.712 143.195 144.712 142.583C144.712 141.965 144.838 141.422 145.089 140.954C145.341 140.487 145.694 140.127 146.147 139.876C146.6 139.624 147.121 139.498 147.711 139.498C148.279 139.498 148.786 139.62 149.232 139.865C149.685 140.109 150.034 140.458 150.278 140.911C150.53 141.357 150.656 141.871 150.656 142.454ZM149.092 142.022C149.085 141.634 148.944 141.325 148.671 141.095C148.398 140.857 148.063 140.739 147.668 140.739C147.294 140.739 146.977 140.854 146.718 141.084C146.467 141.307 146.312 141.62 146.255 142.022H149.092Z" fill="white" fill-opacity="0.5"/>
<rect x="95.4805" y="75.0098" width="46.2336" height="46.2336" rx="7.70559" fill="#382E94"/>
<g clip-path="url(#clip1_2072_41025)">
<path d="M123.991 91.1915H123.22V89.6504H121.679V91.1915H115.515V89.6504H113.974V91.1915H113.203C112.356 91.1915 111.662 91.885 111.662 92.7326V103.52C111.662 104.368 112.356 105.062 113.203 105.062H123.991C124.839 105.062 125.532 104.368 125.532 103.52V92.7326C125.532 91.885 124.839 91.1915 123.991 91.1915ZM123.991 103.52H113.203V95.8149H123.991V103.52ZM113.203 94.2737V92.7326H123.991V94.2737H113.203ZM117.488 102.334L122.057 97.7644L121.24 96.9476L117.488 100.7L115.862 99.0743L115.045 99.8911L117.488 102.334Z" fill="#CDCDD3"/>
</g>
<rect x="25" y="74.7817" width="46.2336" height="46.2336" rx="7.70559" fill="#382E94"/>
<g clip-path="url(#clip2_2072_41025)">
<path d="M49.6577 90.1932H43.4933C42.6457 90.1932 41.9599 90.8867 41.9599 91.7344L41.9521 104.063C41.9521 104.911 42.6379 105.604 43.4856 105.604H52.74C53.5876 105.604 54.2811 104.911 54.2811 104.063V94.8166L49.6577 90.1932ZM52.74 104.063H43.4933V91.7344H48.8872V95.5872H52.74V104.063ZM45.6662 98.7079L44.572 99.7944L47.2998 102.522L51.6612 98.1608L50.5747 97.0743L47.3075 100.342L45.6662 98.7079Z" fill="#CDCDD3"/>
</g>
<path d="M40.8862 137.815V139.034H38.8796V145.345H37.3693V139.034H35.3628V137.815H40.8862ZM41.5998 142.335C41.5998 141.731 41.7184 141.195 41.9558 140.728C42.2003 140.26 42.5275 139.9 42.9374 139.649C43.3546 139.397 43.8185 139.271 44.3291 139.271C44.775 139.271 45.1633 139.361 45.4942 139.541C45.8322 139.721 46.1019 139.947 46.3032 140.221V139.368H47.8243V145.345H46.3032V144.471C46.1091 144.751 45.8394 144.985 45.4942 145.172C45.1561 145.352 44.7642 145.442 44.3183 145.442C43.8149 145.442 43.3546 145.312 42.9374 145.053C42.5275 144.795 42.2003 144.431 41.9558 143.964C41.7184 143.489 41.5998 142.946 41.5998 142.335ZM46.3032 142.356C46.3032 141.99 46.2313 141.677 46.0875 141.418C45.9437 141.152 45.7495 140.95 45.5049 140.814C45.2604 140.67 44.9979 140.598 44.7174 140.598C44.437 140.598 44.178 140.666 43.9407 140.803C43.7034 140.94 43.5092 141.141 43.3582 141.407C43.2143 141.666 43.1424 141.975 43.1424 142.335C43.1424 142.695 43.2143 143.011 43.3582 143.284C43.5092 143.55 43.7034 143.755 43.9407 143.899C44.1852 144.043 44.4441 144.115 44.7174 144.115C44.9979 144.115 45.2604 144.047 45.5049 143.91C45.7495 143.766 45.9437 143.565 46.0875 143.306C46.2313 143.04 46.3032 142.723 46.3032 142.356ZM51.5864 145.442C51.0974 145.442 50.6587 145.356 50.2703 145.183C49.8819 145.003 49.5727 144.762 49.3425 144.46C49.1196 144.158 48.9973 143.824 48.9758 143.457H50.4968C50.5256 143.687 50.6371 143.878 50.8313 144.029C51.0326 144.18 51.2808 144.255 51.5756 144.255C51.8633 144.255 52.0863 144.198 52.2445 144.083C52.4099 143.967 52.4926 143.82 52.4926 143.64C52.4926 143.446 52.3919 143.302 52.1905 143.209C51.9964 143.108 51.6835 143 51.252 142.885C50.8061 142.777 50.4393 142.666 50.1516 142.551C49.8712 142.436 49.6266 142.259 49.4181 142.022C49.2167 141.785 49.116 141.465 49.116 141.062C49.116 140.731 49.2095 140.429 49.3965 140.156C49.5907 139.882 49.864 139.667 50.2164 139.509C50.576 139.35 50.9967 139.271 51.4785 139.271C52.1905 139.271 52.7587 139.451 53.183 139.811C53.6073 140.163 53.8411 140.641 53.8842 141.245H52.4387C52.4171 141.008 52.3164 140.821 52.1366 140.684C51.964 140.541 51.7303 140.469 51.4354 140.469C51.1621 140.469 50.9499 140.519 50.7989 140.62C50.6551 140.72 50.5832 140.861 50.5832 141.04C50.5832 141.242 50.6838 141.396 50.8852 141.504C51.0866 141.605 51.3994 141.709 51.8238 141.817C52.2553 141.925 52.6113 142.036 52.8917 142.152C53.1722 142.267 53.4132 142.446 53.6145 142.691C53.8231 142.928 53.931 143.245 53.9382 143.64C53.9382 143.985 53.8411 144.295 53.6469 144.568C53.4599 144.841 53.1866 145.057 52.827 145.215C52.4746 145.366 52.0611 145.442 51.5864 145.442ZM58.7163 145.345L56.6882 142.799V145.345H55.1779V137.362H56.6882V141.903L58.6948 139.368H60.6581L58.0259 142.367L60.6797 145.345H58.7163Z" fill="white" fill-opacity="0.5"/>
<rect x="169.316" y="74.7819" width="46.2336" height="46.2336" rx="7.70559" fill="#382E94"/>
<g clip-path="url(#clip3_2072_41025)">
<path d="M199.368 94.8162C198.251 94.8162 197.627 95.9258 197.881 96.7503L195.146 99.4935C194.914 99.4241 194.575 99.4241 194.344 99.4935L192.379 97.5285C192.641 96.704 192.017 95.5867 190.892 95.5867C189.775 95.5867 189.143 96.6963 189.405 97.5285L185.891 101.035C185.067 100.78 183.957 101.404 183.957 102.522C183.957 103.369 184.651 104.063 185.498 104.063C186.615 104.063 187.24 102.953 186.985 102.129L190.491 98.615C190.723 98.6844 191.062 98.6844 191.293 98.615L193.258 100.58C192.996 101.404 193.62 102.522 194.745 102.522C195.862 102.522 196.494 101.412 196.232 100.58L198.975 97.8445C199.8 98.0987 200.909 97.4746 200.909 96.3573C200.909 95.5097 200.216 94.8162 199.368 94.8162Z" fill="#CDCDD3"/>
<path d="M194.745 95.5867L195.47 93.9917L197.057 93.2751L195.47 92.5584L194.745 90.9634L194.036 92.5584L192.434 93.2751L194.036 93.9917L194.745 95.5867Z" fill="#CDCDD3"/>
<path d="M185.883 97.1275L186.269 95.5863L187.81 95.2011L186.269 94.8158L185.883 93.2747L185.498 94.8158L183.957 95.2011L185.498 95.5863L185.883 97.1275Z" fill="#CDCDD3"/>
</g>
<path d="M168.489 139.034V140.922H171.024V142.119H168.489V144.115H171.348V145.345H166.979V137.804H171.348V139.034H168.489ZM175.46 140.609H174.414V145.345H172.882V140.609H172.202V139.368H172.882V139.066C172.882 138.333 173.091 137.793 173.508 137.448C173.925 137.103 174.554 136.941 175.396 136.963V138.236C175.029 138.228 174.774 138.29 174.63 138.419C174.486 138.549 174.414 138.782 174.414 139.12V139.368H175.46V140.609ZM179.179 140.609H178.133V145.345H176.601V140.609H175.921V139.368H176.601V139.066C176.601 138.333 176.81 137.793 177.227 137.448C177.644 137.103 178.273 136.941 179.115 136.963V138.236C178.748 138.228 178.492 138.29 178.349 138.419C178.205 138.549 178.133 138.782 178.133 139.12V139.368H179.179V140.609ZM180.924 138.656C180.658 138.656 180.435 138.574 180.255 138.408C180.082 138.236 179.996 138.024 179.996 137.772C179.996 137.52 180.082 137.312 180.255 137.146C180.435 136.973 180.658 136.887 180.924 136.887C181.19 136.887 181.409 136.973 181.582 137.146C181.762 137.312 181.852 137.52 181.852 137.772C181.852 138.024 181.762 138.236 181.582 138.408C181.409 138.574 181.19 138.656 180.924 138.656ZM181.668 139.368V145.345H180.158V139.368H181.668ZM182.772 142.357C182.772 141.738 182.898 141.199 183.15 140.738C183.401 140.271 183.75 139.911 184.196 139.66C184.642 139.401 185.153 139.271 185.728 139.271C186.469 139.271 187.08 139.458 187.562 139.832C188.051 140.199 188.378 140.717 188.544 141.386H186.915C186.828 141.127 186.681 140.925 186.472 140.782C186.271 140.631 186.019 140.555 185.717 140.555C185.286 140.555 184.944 140.713 184.692 141.03C184.441 141.339 184.315 141.781 184.315 142.357C184.315 142.925 184.441 143.367 184.692 143.684C184.944 143.993 185.286 144.147 185.717 144.147C186.329 144.147 186.728 143.874 186.915 143.328H188.544C188.378 143.975 188.051 144.489 187.562 144.87C187.073 145.251 186.462 145.442 185.728 145.442C185.153 145.442 184.642 145.316 184.196 145.064C183.75 144.805 183.401 144.446 183.15 143.986C182.898 143.518 182.772 142.975 182.772 142.357ZM190.416 138.656C190.15 138.656 189.927 138.574 189.747 138.408C189.575 138.236 189.488 138.024 189.488 137.772C189.488 137.52 189.575 137.312 189.747 137.146C189.927 136.973 190.15 136.887 190.416 136.887C190.682 136.887 190.901 136.973 191.074 137.146C191.254 137.312 191.344 137.52 191.344 137.772C191.344 138.024 191.254 138.236 191.074 138.408C190.901 138.574 190.682 138.656 190.416 138.656ZM191.16 139.368V145.345H189.65V139.368H191.16ZM198.208 142.227C198.208 142.443 198.194 142.637 198.165 142.81H193.796C193.832 143.241 193.983 143.579 194.249 143.824C194.515 144.068 194.842 144.191 195.231 144.191C195.792 144.191 196.191 143.95 196.428 143.468H198.057C197.885 144.043 197.554 144.518 197.065 144.892C196.576 145.259 195.975 145.442 195.263 145.442C194.688 145.442 194.17 145.316 193.71 145.064C193.257 144.805 192.901 144.442 192.642 143.975C192.39 143.507 192.264 142.968 192.264 142.357C192.264 141.738 192.39 141.195 192.642 140.728C192.893 140.26 193.246 139.901 193.699 139.649C194.152 139.397 194.673 139.271 195.263 139.271C195.831 139.271 196.338 139.394 196.784 139.638C197.237 139.883 197.586 140.231 197.831 140.685C198.082 141.13 198.208 141.645 198.208 142.227ZM196.644 141.796C196.637 141.407 196.497 141.098 196.223 140.868C195.95 140.631 195.616 140.512 195.22 140.512C194.846 140.512 194.53 140.627 194.271 140.857C194.019 141.08 193.864 141.393 193.807 141.796H196.644ZM202.622 139.282C203.334 139.282 203.91 139.509 204.349 139.962C204.787 140.408 205.007 141.033 205.007 141.839V145.345H203.496V142.044C203.496 141.569 203.378 141.206 203.14 140.954C202.903 140.695 202.579 140.566 202.169 140.566C201.752 140.566 201.421 140.695 201.177 140.954C200.94 141.206 200.821 141.569 200.821 142.044V145.345H199.311V139.368H200.821V140.113C201.022 139.854 201.278 139.652 201.587 139.509C201.903 139.358 202.248 139.282 202.622 139.282ZM206.054 142.357C206.054 141.738 206.18 141.199 206.432 140.738C206.684 140.271 207.033 139.911 207.478 139.66C207.924 139.401 208.435 139.271 209.01 139.271C209.751 139.271 210.362 139.458 210.844 139.832C211.333 140.199 211.661 140.717 211.826 141.386H210.197C210.111 141.127 209.963 140.925 209.755 140.782C209.553 140.631 209.302 140.555 209 140.555C208.568 140.555 208.226 140.713 207.975 141.03C207.723 141.339 207.597 141.781 207.597 142.357C207.597 142.925 207.723 143.367 207.975 143.684C208.226 143.993 208.568 144.147 209 144.147C209.611 144.147 210.01 143.874 210.197 143.328H211.826C211.661 143.975 211.333 144.489 210.844 144.87C210.355 145.251 209.744 145.442 209.01 145.442C208.435 145.442 207.924 145.316 207.478 145.064C207.033 144.805 206.684 144.446 206.432 143.986C206.18 143.518 206.054 142.975 206.054 142.357ZM218.65 139.368L214.95 148.171H213.342L214.637 145.194L212.242 139.368H213.936L215.478 143.543L217.043 139.368H218.65Z" fill="white" fill-opacity="0.5"/>
<defs>
<linearGradient id="paint0_linear_2072_41025" x1="122.091" y1="0" x2="122.091" y2="48.5501" gradientUnits="userSpaceOnUse">
<stop stop-color="#443A96"/>
<stop offset="1" stop-color="#362D83"/>
</linearGradient>
<linearGradient id="paint1_linear_2072_41025" x1="106.271" y1="196.966" x2="106.271" y2="248.23" gradientUnits="userSpaceOnUse">
<stop offset="0.181272" stop-color="#89A3FF"/>
<stop offset="0.578125" stop-color="#5967FF"/>
<stop offset="1" stop-color="#443A96"/>
</linearGradient>
<clipPath id="clip0_2072_41025">
<rect width="58.6833" height="27.6668" fill="white" transform="translate(59 209.782)"/>
</clipPath>
<clipPath id="clip1_2072_41025">
<rect width="18.4934" height="18.4934" fill="white" transform="translate(109.351 88.8798)"/>
</clipPath>
<clipPath id="clip2_2072_41025">
<rect width="18.4934" height="18.4934" fill="white" transform="translate(38.8701 88.6521)"/>
</clipPath>
<clipPath id="clip3_2072_41025">
<rect width="18.4934" height="18.4934" fill="white" transform="translate(183.187 88.6519)"/>
</clipPath>
</defs>
</svg>
