<svg width="203" height="24" viewBox="0 0 203 24" fill="none" xmlns="http://www.w3.org/2000/svg">
<path d="M175.803 0.625977H173.98V20.4219C173.98 21.6418 174.651 22.3682 175.774 22.3682H177.595V2.4559C177.596 1.36112 176.876 0.625977 175.803 0.625977Z" fill="url(#paint0_linear_106_41314)"/>
<path d="M202.86 12.6384C202.689 17.4213 199.858 21.0494 195.641 22.3169C194.578 22.636 193.426 22.8052 192.206 22.8052C186.054 22.8052 181.235 17.8532 181.235 11.5243C181.235 5.29056 186.157 0.215088 192.206 0.215088C195.653 0.215088 198.847 1.84756 200.963 4.69645L201.072 4.84454L199.51 5.75421C199.158 5.95342 198.837 6.04862 198.524 6.04862C198.061 6.04862 197.62 5.84588 197.092 5.38752C195.722 4.1094 194.036 3.4342 192.206 3.4342C188.136 3.4342 184.822 7.06583 184.822 11.5243C184.822 11.8152 184.836 12.1007 184.863 12.3846C185.244 16.4129 188.295 19.5086 192.12 19.5879H192.254C195.993 19.5879 198.895 17.2362 199.229 13.9712H193.206C192.068 13.9712 191.415 13.3136 191.415 12.1695V10.6622H202.788L202.802 10.8085C202.86 11.4308 202.86 12.1854 202.86 12.6384Z" fill="url(#paint1_linear_106_41314)"/>
<path d="M8.80566 6.8667L16.219 11.4909L8.80566 16.1274V14.509C8.80566 13.8655 9.14256 13.2732 9.68849 12.9523L12.1867 11.4909L9.68677 10.0188C9.14256 9.69796 8.80739 9.10562 8.80739 8.46567V6.8667H8.80566Z" fill="url(#paint2_linear_106_41314)"/>
<path d="M22.1704 14.3679C21.5519 16.8219 20.1612 18.9604 18.278 20.4941C16.3569 22.0613 13.9226 22.9975 11.269 22.9975C10.5554 22.9975 9.85747 22.9287 9.18023 22.8C6.22767 22.2359 3.68284 20.4959 2.0243 18.0754C0.63872 16.0533 -0.124902 13.5535 0.0167653 10.8667C0.332926 4.84459 5.32929 0.0141642 11.2396 6.07934e-05C13.9244 -0.00875385 16.3897 0.941464 18.3281 2.53515C18.7704 2.89831 19.1851 3.29321 19.5669 3.71984C19.5686 3.7216 19.5703 3.72336 19.5721 3.72513C19.5824 3.73747 19.5945 3.74805 19.6066 3.76039C19.6066 3.76215 19.6083 3.76215 19.6083 3.76215C19.6101 3.76391 19.6135 3.76744 19.6152 3.7692C19.6999 3.8644 19.7811 3.96136 19.8623 4.05832C19.8917 4.09358 19.9193 4.12708 19.947 4.16233C19.9504 4.16762 19.9556 4.17291 19.959 4.1782C20.004 4.23109 20.0454 4.28398 20.0869 4.33686C20.1284 4.38975 20.1698 4.44264 20.2096 4.49553C20.2113 4.49905 20.213 4.50082 20.2147 4.50258C20.2217 4.51316 20.2303 4.52197 20.2372 4.53255C20.2458 4.54313 20.2527 4.55194 20.2597 4.56252C20.2873 4.59954 20.3149 4.63656 20.3426 4.67535C20.3512 4.68769 20.3599 4.69826 20.3685 4.7106C20.4082 4.76526 20.4462 4.81991 20.4843 4.87456C20.5344 4.9486 20.581 5.02441 20.6242 5.10021C20.638 5.12313 20.6501 5.14605 20.6622 5.16897C20.8816 5.58502 20.9835 6.02575 20.9835 6.4559C20.9835 6.49469 20.9818 6.53347 20.9801 6.57226C20.9784 6.60575 20.9766 6.63749 20.9749 6.66922C20.9732 6.69742 20.9697 6.72563 20.9663 6.75208C20.9645 6.76265 20.9645 6.77323 20.9628 6.78204C20.9594 6.81554 20.9542 6.84727 20.949 6.88077C20.9455 6.90016 20.9438 6.91779 20.9404 6.93718C20.9404 6.93895 20.9386 6.94071 20.9386 6.94071C20.9352 6.95834 20.9317 6.97773 20.9283 6.99536C20.9248 7.01475 20.9196 7.03414 20.9162 7.05177C20.9075 7.09056 20.8989 7.12758 20.8885 7.16636C20.8782 7.20338 20.8678 7.24041 20.8557 7.27919C20.8505 7.29858 20.8436 7.31621 20.8384 7.33384C20.8315 7.35323 20.8263 7.37086 20.8194 7.38849C20.8125 7.40612 20.8056 7.42551 20.7987 7.44314C20.771 7.51542 20.7399 7.5877 20.7071 7.65646C20.6898 7.69172 20.6726 7.72697 20.6553 7.76047C20.638 7.79573 20.619 7.82922 20.5983 7.86096C20.5879 7.87682 20.5793 7.89445 20.5689 7.91032C20.5585 7.92619 20.5482 7.94381 20.5378 7.95968C20.5274 7.97555 20.5171 7.99141 20.505 8.00904C20.4946 8.02491 20.4825 8.04078 20.4722 8.05664C20.4393 8.10424 20.4048 8.15008 20.3685 8.19591L20.3668 8.19768C20.3426 8.22765 20.3184 8.25585 20.2942 8.28582C20.2821 8.29993 20.2683 8.31579 20.2562 8.32813C20.2424 8.34224 20.2303 8.35634 20.2165 8.37044C20.1906 8.39865 20.1629 8.42509 20.1353 8.4533C20.1214 8.4674 20.1076 8.47974 20.0938 8.49385C20.08 8.50619 20.0644 8.52029 20.0506 8.53263C20.0212 8.55908 19.9919 8.58376 19.9625 8.60844C19.947 8.62078 19.9314 8.63312 19.9159 8.6437C19.8364 8.7054 19.7535 8.76181 19.6671 8.81294C19.6533 8.82175 19.6377 8.83057 19.6239 8.83762C19.6066 8.8482 19.5893 8.85701 19.5721 8.86759C19.477 8.91871 19.3768 8.96455 19.2749 9.0051C19.2611 9.01039 19.2455 9.01567 19.2317 9.02096C19.2058 9.03154 19.1799 9.03859 19.154 9.04741C19.1367 9.0527 19.1194 9.05799 19.1021 9.06327C19.033 9.08443 18.9622 9.10206 18.8896 9.11792C18.8672 9.12321 18.8447 9.12674 18.8223 9.13203C18.8067 9.13555 18.7894 9.13732 18.7739 9.14084C18.7531 9.14437 18.7324 9.14789 18.7117 9.15142C18.7013 9.15318 18.691 9.15495 18.6806 9.15495C18.6633 9.15847 18.6443 9.16024 18.6253 9.162C18.5856 9.16552 18.5458 9.16905 18.5044 9.17257C18.4888 9.17434 18.4715 9.17434 18.456 9.1761C18.437 9.17787 18.418 9.17786 18.3973 9.17786C18.3731 9.17786 18.3489 9.17963 18.3247 9.17963C17.3676 6.13505 14.5722 3.92963 11.2707 3.92963C8.82952 3.92963 6.66304 5.13547 5.31202 6.99536V6.99712C4.97167 7.4643 4.68661 7.97202 4.46029 8.51148C4.2236 9.07561 4.05256 9.67325 3.95581 10.2973C3.85388 10.9584 3.83315 11.646 3.91089 12.3511C4.01973 13.3613 4.33071 14.315 4.80236 15.1718C5.0235 15.5738 5.27919 15.9528 5.56598 16.3071C5.63336 16.39 5.70419 16.4729 5.77503 16.5557C5.98235 16.7884 6.20176 17.0088 6.43499 17.2151C6.46609 17.2433 6.49891 17.2697 6.53174 17.2979C6.55938 17.3226 6.58702 17.3455 6.61639 17.3684C6.66304 17.4072 6.70969 17.4442 6.75633 17.4813C6.78225 17.5024 6.80989 17.5236 6.83581 17.543C6.90491 17.5958 6.97402 17.6487 7.04485 17.6981C7.07941 17.7245 7.11569 17.7492 7.15197 17.7721C7.18134 17.7933 7.21243 17.8144 7.2418 17.8338C7.24526 17.8356 7.24872 17.8374 7.25217 17.8409C7.29709 17.8709 7.34201 17.8991 7.38693 17.9273C7.45431 17.9713 7.52341 18.0137 7.59425 18.0542C7.62534 18.0718 7.65471 18.0895 7.68581 18.1071C7.69618 18.1141 7.70827 18.1194 7.72036 18.1265C7.75146 18.1441 7.78256 18.1617 7.81366 18.1776C7.81884 18.1811 7.82402 18.1829 7.82748 18.1864C7.86376 18.2058 7.90004 18.2252 7.93632 18.2428C8.01406 18.2834 8.09181 18.3222 8.17128 18.3592C8.21102 18.3786 8.25075 18.3962 8.29049 18.4138C8.33022 18.4332 8.36996 18.4491 8.4097 18.4667C8.57037 18.5355 8.7345 18.6007 8.90035 18.6571C8.9349 18.6695 8.97118 18.6818 9.00574 18.6924C9.00746 18.6924 9.01092 18.6941 9.01265 18.6941C9.01956 18.6977 9.02647 18.6994 9.03338 18.7012C9.03683 18.703 9.04029 18.7047 9.04375 18.7047C9.08003 18.7171 9.11631 18.7276 9.15086 18.7382C9.18887 18.7506 9.22688 18.7611 9.26661 18.7735C9.27698 18.777 9.28734 18.7788 9.29771 18.7823C9.37718 18.8052 9.45493 18.8246 9.53613 18.844C9.57932 18.8546 9.62251 18.8652 9.6657 18.874C9.74344 18.8916 9.82119 18.9075 9.89893 18.9216C9.90412 18.9233 9.9093 18.9233 9.91448 18.9251C9.9283 18.9286 9.9404 18.9304 9.95422 18.9321C9.95767 18.9321 9.96113 18.9339 9.96458 18.9339C9.99568 18.941 10.0285 18.9462 10.0613 18.9498C10.1045 18.9568 10.1494 18.9639 10.1944 18.9709C11.0582 19.0943 11.8961 19.0661 12.6908 18.9092C12.7962 18.8898 12.8999 18.8669 13.0018 18.8405C13.0709 18.8246 13.1383 18.807 13.2074 18.7876C13.4786 18.7135 13.7447 18.6219 14.0021 18.5179C14.0989 18.4791 14.1956 18.4368 14.2889 18.3945C14.32 18.3804 14.3528 18.3662 14.3839 18.3504C14.4461 18.3204 14.5083 18.2904 14.5705 18.2587C14.6621 18.2129 14.7536 18.1635 14.8435 18.1124C14.8452 18.1124 14.8469 18.1106 14.8487 18.1089C14.9074 18.0754 14.9661 18.0419 15.0249 18.0066C15.0542 17.989 15.0836 17.9713 15.113 17.952C15.1717 17.9167 15.2305 17.8779 15.2875 17.8391C15.3168 17.8215 15.3445 17.8021 15.3739 17.781C15.4032 17.7616 15.4309 17.7422 15.4585 17.7228C15.4775 17.7104 15.4948 17.6981 15.5138 17.684C15.5795 17.6382 15.6451 17.5888 15.709 17.5394C15.7298 17.5236 15.7505 17.5095 15.7695 17.4918C15.8351 17.4407 15.8991 17.3896 15.963 17.3349C15.982 17.3191 16.001 17.3032 16.02 17.2873C16.0494 17.2627 16.0787 17.2362 16.1081 17.2115C16.134 17.1886 16.1599 17.1657 16.1859 17.1428C16.2118 17.1199 16.2377 17.0969 16.2619 17.0723C16.3379 17.0017 16.4122 16.9295 16.4847 16.8554C16.5089 16.8325 16.5331 16.8061 16.5573 16.7814C16.6022 16.7355 16.6454 16.6897 16.6869 16.6421C16.7145 16.6121 16.7422 16.5822 16.7681 16.5522C16.7905 16.5257 16.8147 16.5011 16.8355 16.4746C16.9028 16.3953 16.9702 16.316 17.0341 16.2349C17.0566 16.2084 17.0773 16.1802 17.0981 16.1538C17.1205 16.1256 17.1395 16.0991 17.1603 16.0709C17.181 16.0427 17.2017 16.0145 17.2224 15.9863C17.2432 15.9581 17.2639 15.9299 17.2829 15.9017C17.3244 15.8435 17.3624 15.7871 17.4021 15.7271C17.4401 15.6707 17.4781 15.6126 17.5144 15.5544C17.5161 15.5526 17.5161 15.5508 17.5179 15.5491C17.5317 15.5262 17.5455 15.505 17.5593 15.4821C17.5749 15.4574 17.5887 15.4327 17.6043 15.4081C17.6146 15.3922 17.625 15.3746 17.6336 15.3569C17.644 15.3411 17.6526 15.3234 17.663 15.3058C17.6855 15.2688 17.7062 15.2318 17.7269 15.193C18.0068 14.687 18.5147 14.3591 19.0849 14.3591H22.1704V14.3679Z" fill="url(#paint3_linear_106_41314)"/>
<path d="M19.081 14.368C18.5109 14.368 18.003 14.6959 17.7231 15.2018C17.7024 15.2389 17.6816 15.2759 17.6592 15.3147C17.6488 15.3323 17.6402 15.3482 17.6298 15.3658C17.6194 15.3834 17.6091 15.3993 17.6004 15.4169C17.5849 15.4416 17.5711 15.4663 17.5555 15.491C17.5417 15.5139 17.5279 15.5368 17.5141 15.558C17.5123 15.5597 17.5123 15.5615 17.5106 15.5632C17.4743 15.6214 17.438 15.6796 17.3983 15.736C17.3586 15.7942 17.3188 15.8524 17.2791 15.9105C17.2601 15.9387 17.2394 15.9669 17.2186 15.9952C17.1979 16.0234 17.1772 16.0516 17.1564 16.0798C17.1357 16.108 17.115 16.1344 17.0942 16.1626C17.0735 16.1908 17.0528 16.2173 17.0303 16.2437C16.9664 16.3248 16.9007 16.4059 16.8316 16.4835C16.8092 16.5099 16.7867 16.5364 16.7643 16.5611C16.7383 16.591 16.7107 16.621 16.6831 16.651C16.6416 16.6986 16.5984 16.7444 16.5535 16.7902C16.531 16.8149 16.5051 16.8396 16.4809 16.8643C16.4084 16.9383 16.3341 17.0106 16.2581 17.0811C16.2339 17.1058 16.2079 17.1287 16.182 17.1516C16.1561 17.1746 16.1302 17.1992 16.1043 17.2204C16.0749 17.2468 16.0455 17.2715 16.0162 17.2962C15.9972 17.3121 15.9782 17.3279 15.9592 17.3438C15.8952 17.3967 15.8313 17.4496 15.7657 17.5007C15.7449 17.5166 15.7259 17.5324 15.7052 17.5483C15.6413 17.5977 15.5756 17.647 15.51 17.6929C15.491 17.707 15.4737 17.7193 15.4547 17.7316C15.427 17.7528 15.3977 17.7722 15.37 17.7898C15.3424 17.8092 15.313 17.8286 15.2837 17.848C15.2266 17.8868 15.1679 17.9238 15.1092 17.9608C15.0798 17.9802 15.0504 17.9978 15.0211 18.0155C14.9623 18.0507 14.9036 18.0842 14.8448 18.1177C14.8431 18.1195 14.8414 18.1195 14.8396 18.1212C14.7498 18.1724 14.6582 18.2217 14.5667 18.2676C14.5045 18.2993 14.4423 18.3293 14.3801 18.3592C14.349 18.3751 14.3179 18.3892 14.2851 18.4033C14.1901 18.4474 14.095 18.4879 13.9983 18.5267C13.7409 18.6325 13.4748 18.7224 13.2036 18.7964C13.1362 18.8158 13.0671 18.8335 12.998 18.8493C12.8943 18.8758 12.7907 18.8987 12.687 18.9181C11.894 19.0768 11.0544 19.1032 10.1905 18.9798C10.1456 18.9727 10.1007 18.9657 10.0575 18.9586C10.0247 18.9533 9.99358 18.9481 9.96076 18.9428C9.9573 18.9428 9.95385 18.941 9.95039 18.941C9.93657 18.9392 9.92448 18.9375 9.91066 18.934C9.90547 18.9322 9.90029 18.9322 9.89511 18.9304C9.81736 18.9163 9.73962 18.9005 9.66188 18.8828C9.61868 18.874 9.57549 18.8634 9.5323 18.8529C9.45283 18.8335 9.37336 18.8123 9.29389 18.7912C9.28352 18.7876 9.27315 18.7859 9.26279 18.7823C9.22305 18.7718 9.18504 18.7594 9.14704 18.7471C9.11075 18.7365 9.07447 18.7259 9.03992 18.7136C9.03647 18.7118 9.03301 18.7101 9.02955 18.7101C9.02264 18.7083 9.01573 18.7065 9.00882 18.703C9.0071 18.703 9.00364 18.7012 9.00191 18.7012C8.96563 18.6907 8.93108 18.6783 8.89653 18.666C8.73067 18.6096 8.56654 18.5461 8.40587 18.4756C8.36614 18.4597 8.3264 18.4421 8.28666 18.4227C8.24693 18.4051 8.20719 18.3874 8.16746 18.3681C8.08798 18.331 8.01024 18.2923 7.9325 18.2517C7.89622 18.2341 7.85993 18.2147 7.82365 18.1953C7.81847 18.1935 7.81329 18.19 7.80983 18.1865C7.77874 18.1706 7.74764 18.153 7.71654 18.1354C7.70445 18.1283 7.69408 18.123 7.68199 18.116C7.65089 18.0983 7.61979 18.0807 7.59042 18.0631C7.52132 18.0225 7.45221 17.9802 7.3831 17.9361C7.33818 17.9079 7.29326 17.8797 7.24835 17.8498C7.24489 17.848 7.24144 17.8462 7.23798 17.8427C7.20861 17.8233 7.17751 17.8022 7.14814 17.781C7.11186 17.7563 7.07558 17.7316 7.04103 17.707C6.97019 17.6576 6.89936 17.6047 6.83198 17.5518C6.80434 17.5324 6.77842 17.5113 6.75251 17.4901C6.70586 17.4531 6.65922 17.4161 6.61257 17.3773C6.5832 17.3544 6.55556 17.3297 6.52791 17.3068C6.49509 17.2786 6.46399 17.2521 6.43117 17.2239C6.19793 17.0177 5.97852 16.7973 5.7712 16.5646C5.70037 16.4835 5.62781 16.4006 5.56216 16.316C5.27537 15.9617 5.01968 15.5826 4.79854 15.1807C4.32689 14.3239 4.01591 13.3702 3.90707 12.36C3.83105 11.6548 3.85005 10.9673 3.95199 10.3062C4.04873 9.68211 4.21977 9.08448 4.45646 8.52034C4.68451 7.98088 4.96957 7.47316 5.30819 7.00598V7.00422C6.66094 5.14433 8.82742 3.93673 11.2686 3.93673C14.5701 3.93673 17.3655 6.14215 18.3226 9.18673C18.3468 9.18673 18.371 9.18673 18.3952 9.18496C18.4142 9.18496 18.4349 9.1832 18.4539 9.1832C18.4694 9.1832 18.4867 9.18144 18.5023 9.17968C18.5437 9.17615 18.5835 9.17439 18.6232 9.1691C18.6422 9.16734 18.6595 9.16557 18.6785 9.16205C18.6889 9.16028 18.6992 9.15852 18.7096 9.15852C18.7303 9.15499 18.7511 9.15323 18.7718 9.14794C18.7891 9.14442 18.8046 9.14265 18.8202 9.13913C18.8426 9.1356 18.8668 9.13031 18.8875 9.12503C18.9601 9.10916 19.0309 9.09153 19.1 9.07037C19.1173 9.06508 19.1346 9.0598 19.1519 9.05451C19.1778 9.04569 19.2037 9.03688 19.2296 9.02806C19.2452 9.02277 19.259 9.01749 19.2728 9.0122C19.3765 8.97165 19.4749 8.92581 19.57 8.87469C19.5872 8.86411 19.6045 8.8553 19.6218 8.84472C19.6373 8.8359 19.6512 8.82885 19.665 8.82004C19.7514 8.76891 19.8343 8.71074 19.9138 8.6508C19.9293 8.63846 19.9449 8.62788 19.9604 8.61554C19.9898 8.59086 20.0209 8.56618 20.0485 8.53973C20.0641 8.52739 20.0779 8.51329 20.0917 8.50095C20.1055 8.48861 20.1211 8.4745 20.1332 8.4604C20.1608 8.43396 20.1885 8.40575 20.2144 8.37754C20.2282 8.36344 20.2403 8.34934 20.2541 8.33523C20.2679 8.32113 20.28 8.30703 20.2921 8.29292C20.3163 8.26472 20.3405 8.23475 20.3647 8.20478C20.3647 8.20478 20.3647 8.20301 20.3664 8.20301C20.4027 8.15718 20.4372 8.11134 20.4701 8.06374C20.4804 8.04788 20.4925 8.03201 20.5029 8.01614C20.5133 8.00028 20.5254 7.98441 20.5357 7.96678C20.5461 7.95091 20.5564 7.93505 20.5668 7.91742C20.5772 7.90155 20.5875 7.88392 20.5962 7.86806C20.6169 7.83456 20.6342 7.80107 20.6532 7.76757C20.6705 7.73407 20.6877 7.69882 20.705 7.66356C20.7379 7.59304 20.769 7.52252 20.7966 7.45024C20.8035 7.43261 20.8104 7.41498 20.8173 7.39559C20.8242 7.37796 20.8294 7.35857 20.8363 7.34094C20.8432 7.32331 20.8484 7.30392 20.8536 7.28629C20.8657 7.24927 20.8761 7.21225 20.8864 7.17346C20.8968 7.13644 20.9054 7.09766 20.9141 7.05887C20.9175 7.03948 20.9227 7.02009 20.9262 7.00246C20.9296 6.98483 20.9331 6.96544 20.9365 6.94781C20.9365 6.94605 20.9365 6.94428 20.9383 6.94428C20.9417 6.92489 20.9434 6.90726 20.9469 6.88787C20.9521 6.85614 20.9573 6.82264 20.9607 6.78915C20.9624 6.77857 20.9624 6.76799 20.9642 6.75918C20.9676 6.73097 20.9694 6.70452 20.9728 6.67632C20.9763 6.64459 20.978 6.61109 20.978 6.57936C20.9797 6.54057 20.9815 6.50179 20.9815 6.463C20.9815 6.03285 20.8812 5.59212 20.6601 5.17607C20.648 5.15315 20.6359 5.13023 20.6221 5.10731C20.5806 5.03151 20.534 4.9557 20.4822 4.88166C20.4442 4.82701 20.4061 4.77236 20.3664 4.71771C20.3578 4.70536 20.3491 4.69302 20.3405 4.68245C20.3128 4.64542 20.2852 4.60664 20.2576 4.56962C20.2507 4.55904 20.242 4.55023 20.2351 4.53965C20.2282 4.52907 20.2196 4.51849 20.2126 4.50968C20.2109 4.50615 20.2092 4.50439 20.2075 4.50263C20.1677 4.44974 20.128 4.39685 20.0848 4.34396C20.0433 4.29108 20.0019 4.23819 19.957 4.1853C19.9535 4.18001 19.9483 4.17472 19.9449 4.16943V4.16767C19.8395 4.03016 19.7289 3.89971 19.6132 3.77454C19.6114 3.77101 19.608 3.76925 19.6062 3.76749C19.6062 3.76749 19.6062 3.76749 19.6045 3.76572C19.5924 3.75338 19.5821 3.74104 19.57 3.73047C19.5682 3.7287 19.5665 3.72694 19.5648 3.72518C19.1812 3.29855 18.7666 2.90365 18.3261 2.54049C17.7767 2.16322 17.032 1.78419 16.0611 1.54091C16.0542 1.53915 16.049 1.53738 16.0421 1.53738C15.5929 1.42632 15.0936 1.34346 14.5442 1.30291C12.0495 1.08607 10.1594 1.75246 10.1594 1.75246C9.91238 1.82827 9.66879 1.91289 9.42864 2.00632C9.31116 2.05216 9.19541 2.09976 9.08138 2.15088C9.0762 2.14383 9.07102 2.14736 9.07102 2.14736C5.28055 3.81156 2.61133 7.79578 2.61133 12.4499C2.61133 17.1481 5.33238 21.1658 9.17986 22.8001C9.85537 22.9288 10.5551 22.9975 11.2686 22.9975C13.9223 22.9975 16.3565 22.0614 18.2777 20.4941C20.1608 18.9622 21.5516 16.822 22.1701 14.368H19.081Z" fill="url(#paint4_linear_106_41314)"/>
<path d="M22.1703 14.3679H19.0813C18.5129 14.3679 18.0032 14.6958 17.7233 15.2018C16.6436 17.1586 14.7328 18.576 12.4782 18.9551C11.7474 19.0785 10.9803 19.0926 10.1925 18.978C8.77066 18.7735 7.47319 18.1406 6.42969 17.2186C6.42969 17.2186 6.64564 17.4689 7.07583 17.8092C7.10865 17.8338 7.14321 17.8585 7.17776 17.885C7.18294 17.8885 7.18813 17.8938 7.19331 17.8973C7.5423 18.1353 7.90683 18.3521 8.28519 18.5496C8.29728 18.5549 8.30765 18.5602 8.31974 18.5672C8.35602 18.5866 8.3923 18.6042 8.42858 18.6201C9.08854 18.9498 9.78997 19.2124 10.5242 19.3976C10.5259 19.3976 10.5277 19.3993 10.5294 19.3993C11.0218 19.5227 11.528 19.6126 12.048 19.6638C12.454 19.7043 12.8566 19.7202 13.2539 19.7131C13.888 19.7025 14.5099 19.6338 15.1146 19.5121C15.1267 19.5104 15.1388 19.5086 15.1509 19.5069L15.1526 19.5051C18.1328 18.8969 20.707 17 22.1703 14.3679Z" fill="url(#paint5_linear_106_41314)"/>
<path d="M107.852 14.3962C107.234 16.8502 105.843 18.9887 103.96 20.5224C102.039 22.0897 99.6043 23.0258 96.9506 23.0258C96.2371 23.0258 95.5391 22.957 94.8619 22.8283C91.9093 22.2642 89.3645 20.5242 87.7059 18.1037C86.3204 16.0816 85.5567 13.5818 85.6984 10.8951C86.0146 4.87291 91.0109 0.0424845 96.9212 0.0283811C99.606 0.0195665 102.071 0.969785 104.01 2.56347C104.452 2.92664 104.867 3.32153 105.249 3.74816C105.25 3.74992 105.252 3.75169 105.254 3.75345C105.264 3.76579 105.276 3.77637 105.288 3.78871C105.288 3.79047 105.29 3.79047 105.29 3.79047C105.292 3.79223 105.295 3.79576 105.297 3.79752C105.382 3.89272 105.463 3.98968 105.544 4.08664C105.573 4.1219 105.601 4.1554 105.629 4.19065C105.632 4.19594 105.637 4.20123 105.641 4.20652C105.686 4.25941 105.727 4.3123 105.769 4.36518C105.81 4.41807 105.851 4.47096 105.891 4.52385C105.893 4.52737 105.895 4.52914 105.896 4.5309C105.903 4.54148 105.912 4.55029 105.919 4.56087C105.927 4.57145 105.934 4.58026 105.941 4.59084C105.969 4.62786 105.997 4.66488 106.024 4.70367C106.033 4.71601 106.042 4.72658 106.05 4.73892C106.09 4.79358 106.128 4.84823 106.166 4.90288C106.216 4.97692 106.263 5.05273 106.306 5.12853C106.32 5.15145 106.332 5.17437 106.344 5.19729C106.563 5.61334 106.665 6.05407 106.665 6.48422C106.665 6.52301 106.663 6.56179 106.662 6.60058C106.66 6.63407 106.658 6.6658 106.657 6.69754C106.655 6.72574 106.651 6.75395 106.648 6.7804C106.646 6.79097 106.646 6.80155 106.644 6.81036C106.641 6.84386 106.636 6.87559 106.631 6.90909C106.627 6.92848 106.625 6.94611 106.622 6.9655C106.622 6.96727 106.62 6.96903 106.62 6.96903C106.617 6.98666 106.613 7.00605 106.61 7.02368C106.606 7.04307 106.601 7.06246 106.598 7.08009C106.589 7.11888 106.581 7.1559 106.57 7.19468C106.56 7.2317 106.549 7.26873 106.537 7.30751C106.532 7.3269 106.525 7.34453 106.52 7.36216C106.513 7.38155 106.508 7.39918 106.501 7.41681C106.494 7.43444 106.487 7.45383 106.48 7.47146C106.453 7.54374 106.422 7.61602 106.389 7.68478C106.371 7.72004 106.354 7.75529 106.337 7.78879C106.32 7.82405 106.301 7.85754 106.28 7.88928C106.27 7.90514 106.261 7.92277 106.251 7.93864C106.24 7.95451 106.23 7.97213 106.219 7.988C106.209 8.00387 106.199 8.01973 106.187 8.03736C106.176 8.05323 106.164 8.0691 106.154 8.08496C106.121 8.13256 106.086 8.1784 106.05 8.22423L106.048 8.226C106.024 8.25597 106 8.28417 105.976 8.31414C105.964 8.32825 105.95 8.34411 105.938 8.35645C105.924 8.37056 105.912 8.38466 105.898 8.39876C105.872 8.42697 105.845 8.45341 105.817 8.48162C105.803 8.49572 105.789 8.50807 105.775 8.52217C105.762 8.53451 105.746 8.54861 105.732 8.56095C105.703 8.5874 105.674 8.61208 105.644 8.63676C105.629 8.6491 105.613 8.66144 105.597 8.67202C105.518 8.73372 105.435 8.79013 105.349 8.84126C105.335 8.85007 105.319 8.85889 105.306 8.86594C105.288 8.87652 105.271 8.88533 105.254 8.89591C105.159 8.94703 105.058 8.99287 104.957 9.03342C104.943 9.03871 104.927 9.04399 104.913 9.04928C104.887 9.05986 104.862 9.06691 104.836 9.07573C104.818 9.08102 104.801 9.08631 104.784 9.09159C104.715 9.11275 104.644 9.13038 104.571 9.14624C104.549 9.15153 104.526 9.15506 104.504 9.16035C104.488 9.16387 104.471 9.16564 104.456 9.16916C104.435 9.17269 104.414 9.17621 104.393 9.17974C104.383 9.1815 104.373 9.18327 104.362 9.18327C104.345 9.18679 104.326 9.18855 104.307 9.19032C104.267 9.19384 104.227 9.19737 104.186 9.2009C104.17 9.20266 104.153 9.20266 104.138 9.20442C104.119 9.20618 104.1 9.20618 104.079 9.20618C104.055 9.20618 104.031 9.20795 104.006 9.20795C103.049 6.16337 100.254 3.95795 96.9523 3.95795C94.5112 3.95795 92.3447 5.16379 90.9937 7.02368V7.02544C90.6533 7.49262 90.3683 8.00034 90.1419 8.5398C89.9052 9.10394 89.7342 9.70157 89.6374 10.3256C89.5355 10.9867 89.5148 11.6743 89.5925 12.3795C89.7014 13.3896 90.0124 14.3434 90.484 15.2001C90.7051 15.6021 90.9608 15.9811 91.2476 16.3355C91.315 16.4183 91.3858 16.5012 91.4567 16.584C91.664 16.8167 91.8834 17.0371 92.1166 17.2434C92.1477 17.2716 92.1806 17.298 92.2134 17.3262C92.241 17.3509 92.2687 17.3738 92.298 17.3967C92.3447 17.4355 92.3913 17.4726 92.438 17.5096C92.4639 17.5307 92.4915 17.5519 92.5175 17.5713C92.5866 17.6242 92.6557 17.6771 92.7265 17.7264C92.761 17.7529 92.7973 17.7775 92.8336 17.8005C92.863 17.8216 92.8941 17.8428 92.9234 17.8622C92.9269 17.8639 92.9304 17.8657 92.9338 17.8692C92.9787 17.8992 93.0237 17.9274 93.0686 17.9556C93.136 17.9997 93.205 18.042 93.2759 18.0825C93.307 18.1002 93.3364 18.1178 93.3675 18.1354C93.3778 18.1425 93.3899 18.1478 93.402 18.1548C93.4331 18.1724 93.4642 18.1901 93.4953 18.2059C93.5005 18.2095 93.5057 18.2112 93.5091 18.2147C93.5454 18.2341 93.5817 18.2535 93.618 18.2712C93.6957 18.3117 93.7735 18.3505 93.8529 18.3875C93.8927 18.4069 93.9324 18.4245 93.9721 18.4422C94.0119 18.4616 94.0516 18.4774 94.0913 18.4951C94.252 18.5638 94.4161 18.629 94.582 18.6854C94.6165 18.6978 94.6528 18.7101 94.6874 18.7207C94.6891 18.7207 94.6926 18.7225 94.6943 18.7225C94.7012 18.726 94.7081 18.7278 94.715 18.7295C94.7185 18.7313 94.7219 18.733 94.7254 18.733C94.7617 18.7454 94.7979 18.756 94.8325 18.7665C94.8705 18.7789 94.9085 18.7895 94.9482 18.8018C94.9586 18.8053 94.969 18.8071 94.9794 18.8106C95.0588 18.8335 95.1366 18.8529 95.2178 18.8723C95.261 18.8829 95.3041 18.8935 95.3473 18.9023C95.4251 18.9199 95.5028 18.9358 95.5806 18.9499C95.5858 18.9517 95.5909 18.9517 95.5961 18.9534C95.6099 18.9569 95.622 18.9587 95.6359 18.9605C95.6393 18.9605 95.6428 18.9622 95.6462 18.9622C95.6773 18.9693 95.7101 18.9746 95.743 18.9781C95.7862 18.9851 95.8311 18.9922 95.876 18.9993C96.7398 19.1227 97.5777 19.0944 98.3725 18.9375C98.4778 18.9182 98.5815 18.8952 98.6834 18.8688C98.7525 18.8529 98.8199 18.8353 98.889 18.8159C99.1603 18.7419 99.4263 18.6502 99.6837 18.5462C99.7805 18.5074 99.8772 18.4651 99.9705 18.4228C100.002 18.4087 100.034 18.3946 100.066 18.3787C100.128 18.3487 100.19 18.3188 100.252 18.287C100.344 18.2412 100.435 18.1918 100.525 18.1407C100.527 18.1407 100.529 18.1389 100.53 18.1372C100.589 18.1037 100.648 18.0702 100.707 18.0349C100.736 18.0173 100.765 17.9997 100.795 17.9803C100.853 17.945 100.912 17.9062 100.969 17.8675C100.998 17.8498 101.026 17.8304 101.056 17.8093C101.085 17.7899 101.113 17.7705 101.14 17.7511C101.159 17.7388 101.176 17.7264 101.195 17.7123C101.261 17.6665 101.327 17.6171 101.391 17.5678C101.411 17.5519 101.432 17.5378 101.451 17.5202C101.517 17.469 101.581 17.4179 101.645 17.3633C101.664 17.3474 101.683 17.3315 101.702 17.3157C101.731 17.291 101.76 17.2645 101.79 17.2398C101.816 17.2169 101.842 17.194 101.868 17.1711C101.893 17.1482 101.919 17.1253 101.944 17.1006C102.02 17.0301 102.094 16.9578 102.166 16.8837C102.191 16.8608 102.215 16.8344 102.239 16.8097C102.284 16.7639 102.327 16.718 102.369 16.6704C102.396 16.6405 102.424 16.6105 102.45 16.5805C102.472 16.5541 102.496 16.5294 102.517 16.5029C102.584 16.4236 102.652 16.3443 102.716 16.2632C102.738 16.2367 102.759 16.2085 102.78 16.1821C102.802 16.1539 102.821 16.1274 102.842 16.0992C102.863 16.071 102.883 16.0428 102.904 16.0146C102.925 15.9864 102.946 15.9582 102.965 15.93C103.006 15.8718 103.044 15.8154 103.084 15.7555C103.122 15.699 103.16 15.6409 103.196 15.5827C103.198 15.5809 103.198 15.5792 103.2 15.5774C103.213 15.5545 103.227 15.5333 103.241 15.5104C103.257 15.4857 103.27 15.4611 103.286 15.4364C103.296 15.4205 103.307 15.4029 103.315 15.3852C103.326 15.3694 103.334 15.3518 103.345 15.3341C103.367 15.2971 103.388 15.2601 103.409 15.2213C103.688 14.7153 104.196 14.3874 104.766 14.3874H107.852V14.3962Z" fill="url(#paint6_linear_106_41314)"/>
<path d="M104.762 14.3962C104.192 14.3962 103.684 14.7241 103.405 15.2301C103.384 15.2671 103.363 15.3041 103.341 15.3429C103.33 15.3606 103.322 15.3764 103.311 15.3941C103.301 15.4117 103.29 15.4275 103.282 15.4452C103.266 15.4699 103.252 15.4945 103.237 15.5192C103.223 15.5421 103.209 15.5651 103.195 15.5862C103.194 15.588 103.194 15.5897 103.192 15.5915C103.156 15.6497 103.119 15.7079 103.08 15.7643C103.04 15.8224 103 15.8806 102.961 15.9388C102.941 15.967 102.921 15.9952 102.9 16.0234C102.879 16.0516 102.859 16.0798 102.838 16.108C102.817 16.1362 102.796 16.1627 102.776 16.1909C102.755 16.2191 102.734 16.2455 102.712 16.272C102.648 16.3531 102.582 16.4342 102.513 16.5118C102.491 16.5382 102.468 16.5646 102.446 16.5893C102.42 16.6193 102.392 16.6493 102.364 16.6792C102.323 16.7268 102.28 16.7727 102.235 16.8185C102.212 16.8432 102.187 16.8679 102.162 16.8925C102.09 16.9666 102.015 17.0389 101.939 17.1094C101.915 17.1341 101.889 17.157 101.863 17.1799C101.838 17.2028 101.812 17.2275 101.786 17.2487C101.756 17.2751 101.727 17.2998 101.698 17.3245C101.679 17.3403 101.66 17.3562 101.641 17.3721C101.577 17.4249 101.513 17.4778 101.447 17.529C101.426 17.5448 101.407 17.5607 101.387 17.5766C101.323 17.6259 101.257 17.6753 101.191 17.7211C101.172 17.7352 101.155 17.7476 101.136 17.7599C101.108 17.7811 101.079 17.8005 101.051 17.8181C101.024 17.8375 100.994 17.8569 100.965 17.8763C100.908 17.915 100.849 17.9521 100.791 17.9891C100.761 18.0085 100.732 18.0261 100.702 18.0437C100.644 18.079 100.585 18.1125 100.526 18.146C100.525 18.1477 100.523 18.1477 100.521 18.1495C100.431 18.2006 100.34 18.25 100.248 18.2958C100.186 18.3276 100.124 18.3575 100.062 18.3875C100.03 18.4034 99.9993 18.4175 99.9665 18.4316C99.8715 18.4757 99.7764 18.5162 99.6797 18.555C99.4223 18.6608 99.1562 18.7507 98.885 18.8247C98.8176 18.8441 98.7485 18.8617 98.6794 18.8776C98.5757 18.904 98.4721 18.927 98.3684 18.9464C97.5754 19.105 96.7358 19.1315 95.872 19.0081C95.827 19.001 95.7821 18.994 95.7389 18.9869C95.7061 18.9816 95.675 18.9763 95.6422 18.971C95.6387 18.971 95.6353 18.9693 95.6318 18.9693C95.618 18.9675 95.6059 18.9657 95.5921 18.9622C95.5869 18.9605 95.5817 18.9605 95.5765 18.9587C95.4988 18.9446 95.421 18.9287 95.3433 18.9111C95.3001 18.9023 95.2569 18.8917 95.2137 18.8811C95.1342 18.8617 95.0548 18.8406 94.9753 18.8194C94.9649 18.8159 94.9546 18.8141 94.9442 18.8106C94.9045 18.8 94.8665 18.7877 94.8284 18.7754C94.7922 18.7648 94.7559 18.7542 94.7213 18.7419C94.7179 18.7401 94.7144 18.7383 94.711 18.7383C94.7041 18.7366 94.6971 18.7348 94.6902 18.7313C94.6885 18.7313 94.6851 18.7295 94.6833 18.7295C94.647 18.7189 94.6125 18.7066 94.5779 18.6943C94.4121 18.6378 94.248 18.5744 94.0873 18.5039C94.0475 18.488 94.0078 18.4704 93.9681 18.451C93.9283 18.4333 93.8886 18.4157 93.8489 18.3963C93.7694 18.3593 93.6917 18.3205 93.6139 18.28C93.5776 18.2623 93.5413 18.2429 93.5051 18.2236C93.4999 18.2218 93.4964 18.2183 93.4912 18.2147C93.4601 18.1989 93.4291 18.1812 93.398 18.1636C93.3859 18.1566 93.3755 18.1513 93.3634 18.1442C93.3323 18.1266 93.3012 18.109 93.2718 18.0913C93.2027 18.0508 93.1336 18.0085 93.0645 17.9644C93.0196 17.9362 92.9747 17.908 92.9298 17.878C92.9263 17.8763 92.9228 17.8745 92.9194 17.871C92.89 17.8516 92.8589 17.8304 92.8296 17.8093C92.7933 17.7846 92.757 17.7599 92.7224 17.7352C92.6516 17.6859 92.5808 17.633 92.5134 17.5801C92.4858 17.5607 92.4598 17.5395 92.4339 17.5184C92.3873 17.4814 92.3406 17.4443 92.294 17.4056C92.2646 17.3826 92.237 17.358 92.2093 17.335C92.1765 17.3068 92.1454 17.2804 92.1126 17.2522C91.8793 17.0459 91.6599 16.8256 91.4526 16.5928C91.3818 16.5118 91.3092 16.4289 91.2436 16.3443C90.9568 15.9899 90.7011 15.6109 90.4799 15.2089C90.0083 14.3522 89.6973 13.3984 89.5885 12.3883C89.5125 11.6831 89.5315 10.9956 89.6334 10.3345C89.7302 9.71038 89.9012 9.11274 90.1379 8.54861C90.3659 8.00915 90.651 7.50143 90.9896 7.03425V7.03249C92.3406 5.1726 94.5071 3.96676 96.9483 3.96676C100.25 3.96676 103.045 6.17218 104.002 9.21676C104.026 9.21676 104.051 9.21676 104.075 9.21499C104.094 9.21499 104.115 9.21323 104.134 9.21323C104.149 9.21323 104.166 9.21147 104.182 9.2097C104.223 9.20618 104.263 9.20442 104.303 9.19913C104.322 9.19736 104.339 9.1956 104.358 9.19208C104.369 9.19031 104.379 9.18855 104.389 9.18855C104.41 9.18502 104.431 9.18326 104.451 9.17797C104.469 9.17445 104.484 9.17268 104.5 9.16916C104.522 9.16563 104.546 9.16034 104.567 9.15505C104.64 9.13919 104.711 9.12156 104.78 9.1004C104.797 9.09511 104.814 9.08983 104.832 9.08454C104.857 9.07572 104.883 9.06691 104.909 9.05809C104.925 9.0528 104.939 9.04752 104.952 9.04223C105.056 9.00168 105.155 8.95584 105.25 8.90472C105.267 8.89414 105.284 8.88533 105.301 8.87475C105.317 8.86593 105.331 8.85888 105.345 8.85007C105.431 8.79894 105.514 8.74077 105.593 8.68083C105.609 8.66849 105.625 8.65791 105.64 8.64557C105.669 8.62089 105.701 8.59621 105.728 8.56976C105.744 8.55742 105.758 8.54332 105.771 8.53098C105.785 8.51864 105.801 8.50453 105.813 8.49043C105.84 8.46399 105.868 8.43578 105.894 8.40757C105.908 8.39347 105.92 8.37936 105.934 8.36526C105.948 8.35116 105.96 8.33705 105.972 8.32295C105.996 8.29474 106.02 8.26477 106.044 8.23481C106.044 8.23481 106.044 8.23304 106.046 8.23304C106.082 8.18721 106.117 8.14137 106.15 8.09377C106.16 8.07791 106.172 8.06204 106.183 8.04617C106.193 8.03031 106.205 8.01444 106.215 7.99681C106.226 7.98094 106.236 7.96508 106.246 7.94745C106.257 7.93158 106.267 7.91395 106.276 7.89809C106.297 7.86459 106.314 7.8311 106.333 7.7976C106.35 7.7641 106.367 7.72884 106.385 7.69359C106.418 7.62307 106.449 7.55255 106.476 7.48027C106.483 7.46264 106.49 7.44501 106.497 7.42562C106.504 7.40799 106.509 7.3886 106.516 7.37097C106.523 7.35334 106.528 7.33395 106.533 7.31632C106.545 7.2793 106.556 7.24228 106.566 7.20349C106.576 7.16647 106.585 7.12769 106.594 7.0889C106.597 7.06951 106.602 7.05012 106.606 7.03249C106.609 7.01486 106.613 6.99547 106.616 6.97784C106.616 6.97607 106.616 6.97431 106.618 6.97431C106.621 6.95492 106.623 6.93729 106.627 6.9179C106.632 6.88616 106.637 6.85267 106.64 6.81917C106.642 6.8086 106.642 6.79802 106.644 6.7892C106.647 6.761 106.649 6.73455 106.652 6.70635C106.656 6.67461 106.658 6.64112 106.658 6.60939C106.659 6.5706 106.661 6.53182 106.661 6.49303C106.661 6.06288 106.561 5.62215 106.34 5.20609C106.328 5.18318 106.316 5.16026 106.302 5.13734C106.26 5.06153 106.214 4.98573 106.162 4.91169C106.124 4.85704 106.086 4.80238 106.046 4.74773C106.037 4.73539 106.029 4.72305 106.02 4.71248C105.993 4.67545 105.965 4.63667 105.937 4.59965C105.93 4.58907 105.922 4.58026 105.915 4.56968C105.908 4.5591 105.899 4.54852 105.892 4.53971C105.891 4.53618 105.889 4.53442 105.887 4.53266C105.847 4.47977 105.808 4.42688 105.764 4.37399C105.723 4.3211 105.682 4.26822 105.637 4.21533C105.633 4.21004 105.628 4.20475 105.625 4.19946V4.1977C105.519 4.06019 105.409 3.92974 105.293 3.80457C105.291 3.80104 105.288 3.79928 105.286 3.79752C105.286 3.79752 105.286 3.79752 105.284 3.79575C105.272 3.78341 105.262 3.77107 105.25 3.76049C105.248 3.75873 105.246 3.75697 105.244 3.75521C104.861 3.32858 104.446 2.93368 104.006 2.57052C103.456 2.19325 102.712 1.81422 101.741 1.57094C101.734 1.56917 101.729 1.56741 101.722 1.56741C101.273 1.45635 100.773 1.37349 100.224 1.33294C97.7292 1.1161 95.8391 1.78249 95.8391 1.78249C95.5921 1.85829 95.3485 1.94292 95.1083 2.03635C94.9909 2.08219 94.8751 2.12979 94.7611 2.18091C94.7542 2.18444 94.749 2.1862 94.749 2.1862C90.9602 3.8504 88.291 7.83462 88.291 12.4888C88.291 17.187 91.0121 21.2047 94.8596 22.8389C95.5351 22.9676 96.2348 23.0364 96.9483 23.0364C99.6019 23.0364 102.036 22.1002 103.957 20.533C105.84 19.001 107.231 16.8608 107.85 14.4068H104.762V14.3962Z" fill="url(#paint7_linear_106_41314)"/>
<path d="M53.2647 19.2353H52.3162V3.72854H53.0971C53.0781 2.69546 53.0902 1.66063 53.1472 0.624023H48.7002V22.3697H53.237C53.237 21.3243 53.2526 20.2789 53.2647 19.2353Z" fill="url(#paint8_linear_106_41314)"/>
<path d="M66.623 6.15609C65.0387 2.61966 61.6923 0.624023 57.0328 0.624023H49.6143C51.1052 0.624023 52.3163 1.85984 52.3163 3.38124V3.72854H56.7184C57.8603 3.72854 60.7265 3.97888 62.506 6.2936C63.2748 7.29494 63.8432 8.6806 63.9814 10.5969C64.0056 10.8931 64.016 11.2016 64.016 11.5242C64.016 18.4842 58.9142 19.2335 56.7201 19.2335H52.318V19.6108C52.318 21.1322 51.1069 22.368 49.616 22.368H57.1054C63.6722 22.368 67.6077 18.3538 67.6579 11.6229V11.496C67.6561 9.45806 67.3002 7.66692 66.623 6.15609Z" fill="url(#paint9_linear_106_41314)"/>
<path d="M171.69 0.625732V1.98848C171.69 3.11322 171.046 3.75846 169.924 3.75846H160.421V10.3113H168.549C168.565 10.3113 168.58 10.3165 168.599 10.3165C168.639 10.3201 168.681 10.3254 168.72 10.3307C168.774 10.3395 168.824 10.3465 168.874 10.3606C168.929 10.3765 168.985 10.3924 169.038 10.4153C169.042 10.4153 169.043 10.4153 169.047 10.4188C169.332 10.5299 169.579 10.7255 169.75 10.9776C169.921 11.228 170.025 11.5365 170.025 11.8644C170.025 12.7194 169.346 13.4122 168.508 13.4122H168.135C168.11 13.4158 168.086 13.4175 168.06 13.4175H160.421V20.5415C160.421 21.5535 159.617 22.3697 158.626 22.3697H156.805V0.625732H171.69Z" fill="url(#paint10_linear_106_41314)"/>
<path d="M171.892 0.624023V1.98677C171.892 3.11151 171.248 3.75851 170.127 3.75851H159.849C158.168 3.75851 156.807 2.36932 156.807 0.653993V0.624023H171.892Z" fill="url(#paint11_linear_106_41314)"/>
<path d="M44.6991 7.44851C44.3847 6.55294 43.9666 5.71908 43.4569 4.95573C41.5081 2.03103 38.2221 0.187012 34.3505 0.187012C32.1961 0.187012 30.2231 0.763489 28.5628 1.7807C25.6811 3.55244 23.741 6.66401 23.4265 10.4085C23.4231 10.4243 23.4213 10.4402 23.4213 10.4543C23.3954 10.7734 23.3816 11.096 23.3799 11.4222V11.498C23.3799 11.8946 23.3989 12.286 23.4352 12.6685C23.4386 12.7091 23.4403 12.7461 23.4455 12.7849C24.0243 18.5814 28.5179 22.8071 34.3505 22.8071C40.2245 22.8071 44.7509 18.562 45.3159 12.7426C45.3556 12.3353 45.3763 11.9193 45.3763 11.4997C45.3763 10.0576 45.1414 8.6949 44.6991 7.44851ZM41.7621 11.498C41.7621 14.4086 40.4214 16.9154 38.3621 18.3311C37.9975 18.5849 37.6088 18.8035 37.2011 18.9833C36.3269 19.3747 35.3646 19.588 34.3487 19.588C33.3104 19.588 32.3257 19.3606 31.4377 18.9516C28.8013 17.7352 26.9941 14.8898 26.9941 11.498C26.9941 11.133 27.0149 10.7716 27.0598 10.4208C27.5383 6.46656 30.6257 3.40788 34.3487 3.40788C34.7167 3.40788 35.0761 3.43785 35.4268 3.49426C35.6618 3.53129 35.895 3.58065 36.1248 3.64235C38.0943 4.17123 39.7563 5.56571 40.7531 7.43265C41.2853 8.42517 41.6273 9.54992 41.7293 10.7505C41.7517 10.9973 41.7621 11.2441 41.7621 11.498Z" fill="url(#paint12_linear_106_41314)"/>
<path d="M37.2012 18.9834C37.3601 18.9129 37.5156 18.8371 37.6694 18.7507C37.5761 18.8124 37.4897 18.8741 37.4085 18.9341C37.3394 18.9552 37.2703 18.9711 37.2012 18.9834Z" fill="url(#paint13_linear_106_41314)"/>
<path d="M41.0451 15.0291C41.0417 15.0291 41.0417 15.0326 41.0399 15.0326C41.5029 13.9695 41.7621 12.7725 41.7621 11.4979C41.7621 11.244 41.7517 10.9955 41.731 10.7504C41.6308 9.54987 41.287 8.42512 40.7549 7.43259C39.758 5.56565 38.096 4.17118 36.1265 3.6423C35.8967 3.5806 35.6635 3.53123 35.4285 3.49421C35.0761 3.4378 34.7167 3.40783 34.3505 3.40783C30.6291 3.40783 27.5401 6.46651 27.0615 10.4208C27.0166 10.7716 26.9959 11.133 26.9959 11.4979C26.9959 14.888 28.8047 17.7351 31.4394 18.9516C27.9478 18.1159 25.0522 15.8259 23.4956 12.7884C23.4749 12.7478 23.4542 12.7073 23.4352 12.6703C23.3989 12.2877 23.3799 11.8963 23.3799 11.4997V11.3322C23.3799 11.036 23.3937 10.7434 23.4213 10.456C23.4213 10.4419 23.4248 10.426 23.4265 10.4102C23.741 6.66572 25.6811 3.55591 28.5628 1.78241C30.2231 0.765198 32.1944 0.188721 34.3505 0.188721C37.3773 0.188721 40.0448 1.31347 41.9953 3.20157C41.9953 3.20157 42.2752 3.46072 42.6674 3.91379C42.7209 3.97549 42.771 4.03543 42.8229 4.10066C42.8419 4.12181 42.8626 4.1465 42.8782 4.17118C43.0837 4.42504 43.2755 4.68595 43.4569 4.9592C43.9666 5.72255 44.3847 6.55642 44.6991 7.45198C44.7492 7.59478 44.7993 7.74111 44.8425 7.88919C45.3867 10.1017 44.8477 12.7531 41.0451 15.0291Z" fill="url(#paint14_linear_106_41314)"/>
<path d="M41.731 10.7506C41.6308 9.55 41.287 8.42525 40.7549 7.43272C39.758 5.56578 38.096 4.1713 36.1265 3.64242C35.8967 3.58072 35.6635 3.53136 35.4285 3.49434C35.0761 3.43792 34.7167 3.40795 34.3505 3.40795C30.6291 3.40795 27.5401 6.46663 27.0615 10.4209C27.0166 10.7717 26.9959 11.1331 26.9959 11.498C26.9959 14.8881 28.8047 17.7353 31.4394 18.9517C32.3274 19.3625 33.3104 19.5881 34.3505 19.5881C35.3663 19.5881 36.3286 19.3748 37.2028 18.9834C37.6105 18.8018 37.9993 18.585 38.3638 18.3311C38.115 18.5304 37.8541 18.719 37.5846 18.8918C36.142 19.8226 34.4178 20.362 32.5641 20.362C27.9979 20.362 24.2074 17.0812 23.4956 12.7867C23.4248 12.3425 23.3851 11.8859 23.3799 11.4222V11.3306C23.3799 11.0344 23.3937 10.7417 23.4213 10.4544C23.4213 10.4403 23.4248 10.4244 23.4265 10.4085C23.8964 5.85314 27.8096 2.29907 32.5624 2.29907C37.4378 2.29907 41.4269 6.03295 41.731 10.7506Z" fill="url(#paint15_linear_106_41314)"/>
<path d="M38.3617 18.3311C38.1389 18.4844 37.9074 18.6272 37.6689 18.7524C37.8814 18.6114 38.1112 18.4721 38.3617 18.3311Z" fill="url(#paint16_linear_106_41314)"/>
<path d="M130.802 11.4961C130.802 11.0748 130.781 10.6605 130.742 10.2533C130.177 4.43385 125.65 0.188721 119.776 0.188721C113.944 0.188721 109.45 4.4127 108.871 10.211C108.866 10.248 108.863 10.2868 108.861 10.3273C108.825 10.7099 108.806 11.1012 108.806 11.4979V11.5737C108.809 11.8999 108.821 12.2242 108.847 12.5416C108.847 12.5557 108.851 12.5715 108.852 12.5874C109.167 16.3319 111.107 19.4417 113.989 21.2152C115.649 22.2324 117.62 22.8088 119.776 22.8088C123.65 22.8088 126.936 20.9631 128.883 18.0401C129.392 17.2768 129.81 16.4429 130.125 15.5473C130.565 14.2992 130.802 12.9365 130.802 11.4961ZM127.157 12.2436C127.057 13.4442 126.713 14.5689 126.181 15.5615C125.184 17.4284 123.522 18.8229 121.552 19.3517C121.323 19.4134 121.089 19.4628 120.854 19.4998C120.502 19.5562 120.143 19.5862 119.776 19.5862C116.055 19.5862 112.966 16.5275 112.487 12.5733C112.442 12.2225 112.422 11.8611 112.422 11.4961C112.422 8.10603 114.23 5.2589 116.865 4.04248C117.753 3.63172 118.736 3.40606 119.776 3.40606C120.792 3.40606 121.754 3.61938 122.629 4.01075C123.036 4.19233 123.425 4.40917 123.79 4.66303C125.849 6.07866 127.19 8.58555 127.19 11.4961C127.188 11.75 127.178 11.9968 127.157 12.2436Z" fill="url(#paint17_linear_106_41314)"/>
<path d="M122.627 4.01074C122.786 4.08126 122.941 4.15707 123.095 4.24345C123.002 4.18175 122.915 4.12004 122.834 4.0601C122.765 4.03895 122.696 4.02308 122.627 4.01074Z" fill="url(#paint18_linear_106_41314)"/>
<path d="M126.471 7.965C126.467 7.965 126.467 7.96147 126.466 7.96147C126.929 9.02452 127.188 10.2215 127.188 11.4961C127.188 11.75 127.178 11.9986 127.157 12.2436C127.057 13.4442 126.713 14.5689 126.181 15.5615C125.184 17.4284 123.522 18.8229 121.552 19.3517C121.323 19.4134 121.089 19.4628 120.854 19.4998C120.502 19.5562 120.143 19.5862 119.776 19.5862C116.055 19.5862 112.966 16.5275 112.487 12.5733C112.442 12.2225 112.422 11.8611 112.422 11.4961C112.422 8.10603 114.23 5.2589 116.865 4.04248C113.374 4.87811 110.478 7.16815 108.921 10.2057C108.901 10.2462 108.88 10.2868 108.861 10.3238C108.825 10.7063 108.806 11.0977 108.806 11.4944V11.6619C108.806 11.958 108.819 12.2507 108.847 12.538C108.847 12.5521 108.851 12.568 108.852 12.5839C109.167 16.3283 111.107 19.4381 113.989 21.2116C115.649 22.2288 117.62 22.8053 119.776 22.8053C122.803 22.8053 125.471 21.6806 127.421 19.7925C127.421 19.7925 127.701 19.5333 128.093 19.0803C128.147 19.0186 128.197 18.9586 128.249 18.8934C128.268 18.8722 128.288 18.8475 128.304 18.8229C128.51 18.569 128.701 18.3081 128.883 18.0348C129.392 17.2715 129.81 16.4376 130.125 15.5421C130.175 15.3993 130.225 15.2529 130.268 15.1049C130.812 12.8924 130.273 10.2409 126.471 7.965Z" fill="url(#paint19_linear_106_41314)"/>
<path d="M127.157 12.2436C127.057 13.4441 126.713 14.5689 126.181 15.5614C125.184 17.4283 123.522 18.8228 121.552 19.3517C121.323 19.4134 121.089 19.4628 120.854 19.4998C120.502 19.5562 120.143 19.5862 119.776 19.5862C116.055 19.5862 112.966 16.5275 112.487 12.5732C112.442 12.2224 112.422 11.861 112.422 11.4961C112.422 8.10597 114.23 5.25884 116.865 4.04242C117.753 3.63166 118.736 3.40601 119.776 3.40601C120.792 3.40601 121.754 3.61932 122.629 4.01069C123.036 4.19227 123.425 4.40911 123.79 4.66297C123.541 4.46376 123.28 4.27513 123.01 4.10236C121.568 3.17154 119.844 2.63208 117.99 2.63208C113.424 2.63208 109.633 5.91289 108.921 10.2074C108.851 10.6516 108.811 11.1082 108.806 11.5719V11.6636C108.806 11.9597 108.819 12.2524 108.847 12.5397C108.847 12.5538 108.851 12.5697 108.852 12.5856C109.322 17.141 113.235 20.695 117.988 20.695C122.862 20.695 126.853 16.9612 127.157 12.2436Z" fill="url(#paint20_linear_106_41314)"/>
<path d="M123.788 4.66304C123.565 4.50966 123.333 4.36687 123.095 4.2417C123.307 4.38273 123.537 4.522 123.788 4.66304Z" fill="url(#paint21_linear_106_41314)"/>
<path d="M201.074 4.84644L199.512 5.75611C199.16 5.95532 198.838 6.05052 198.526 6.05052C198.063 6.05052 197.622 5.84778 197.093 5.38942C196.675 5.00157 196.23 4.66662 195.758 4.3916C195.758 4.3916 195.755 4.38807 195.748 4.38631C195.402 4.18357 195.041 4.01433 194.67 3.87683C193.892 3.58594 193.068 3.43786 192.208 3.43786C188.137 3.43786 184.824 7.06949 184.824 11.5279C184.824 11.8188 184.838 12.1044 184.865 12.3882H184.862C184.862 12.3882 185.081 23.2144 195.641 22.3206C194.578 22.6397 193.426 22.8089 192.206 22.8089C186.054 22.8089 181.235 17.8568 181.235 11.5279C181.235 8.66494 182.274 6.04699 183.982 4.04959C183.986 4.04959 183.986 4.04959 183.988 4.04607C185.997 1.69961 188.939 0.21875 192.206 0.21875C195.653 0.21875 198.847 1.85122 200.963 4.70011L201.074 4.84644Z" fill="url(#paint22_linear_106_41314)"/>
<path d="M201.074 4.84644L199.512 5.75611C199.16 5.95532 198.838 6.05052 198.526 6.05052C198.063 6.05052 197.622 5.84778 197.093 5.38942C196.675 5.00157 196.23 4.66662 195.758 4.3916C195.758 4.3916 195.755 4.38807 195.748 4.38631C195.679 4.35105 195.285 4.14303 194.67 3.87683C192.406 2.90016 187.144 1.12313 183.989 4.04607C185.999 1.69961 188.941 0.21875 192.208 0.21875C195.654 0.21875 198.849 1.85122 200.965 4.70011L201.074 4.84644Z" fill="url(#paint23_linear_106_41314)"/>
<path d="M74.3079 3.78848H83.9862C85.1075 3.78848 85.7519 3.14149 85.7519 2.01674V0.682205C85.7519 0.666339 85.7415 0.655762 85.726 0.655762H70.6919C70.6764 0.655762 70.666 0.666339 70.666 0.682205V22.3415V22.3715H85.7536V21.0088C85.7536 19.884 85.1092 19.237 83.9879 19.237H74.2837V13.2395C74.2837 13.2237 74.2941 13.2131 74.3096 13.2131H81.3343H81.5243H81.9234C82.7613 13.2131 83.442 12.5185 83.442 11.6635C83.442 10.8085 82.7613 10.1139 81.9234 10.1139H81.7696C81.7195 10.1086 81.6902 10.1086 81.6902 10.1086H74.3114C74.2958 10.1086 74.2854 10.098 74.2854 10.0821V3.81493C74.282 3.79906 74.2924 3.78848 74.3079 3.78848Z" fill="url(#paint24_linear_106_41314)"/>
<path d="M150.768 21.7616L149.122 19.9969L144.64 15.1982L137.739 7.80448V20.4799C137.739 21.61 137.006 22.368 135.918 22.368H134.126V0.622314H134.57C135.163 0.622314 135.731 0.870888 136.14 1.30986L143.431 9.10376C143.431 9.10376 143.435 9.10729 143.436 9.11258L149.122 15.1894V17.5605C149.122 18.3433 149.271 19.1084 149.55 19.8241C149.827 20.5364 150.24 21.1939 150.768 21.7616Z" fill="url(#paint25_linear_106_41314)"/>
<path d="M152.736 0.622314V22.368H152.154C151.631 22.368 151.131 22.1494 150.769 21.7616C149.711 20.6298 149.122 19.1242 149.122 17.5605V2.51041C149.122 1.46852 149.95 0.622314 150.972 0.622314H152.736Z" fill="url(#paint26_linear_106_41314)"/>
<path d="M137.739 7.8064V20.4801C137.739 21.6101 137.006 22.3682 135.918 22.3682H134.126V12.6245C134.126 11.8417 134.275 11.0731 134.551 10.3609C134.831 9.64866 135.244 8.98756 135.772 8.42166C136.135 8.03381 136.635 7.81521 137.158 7.81521L137.739 7.8064Z" fill="url(#paint27_linear_106_41314)"/>
<path d="M160.421 18.6995V20.54C160.421 21.5519 159.617 22.3682 158.626 22.3682H156.81V21.9574C156.806 21.931 156.805 21.901 156.805 21.871V16.041C157.836 16.0445 158.769 16.4394 159.448 17.0882C159.908 17.5254 160.251 18.079 160.421 18.6995Z" fill="url(#paint28_linear_106_41314)"/>
<path d="M70.6641 0.624023V0.653993C70.6641 0.691014 70.6675 0.72451 70.6692 0.761532V1.06476C70.6658 1.0912 70.6641 1.12117 70.6641 1.15114V6.98114C71.6955 6.97762 72.6284 6.58272 73.3074 5.93396C73.7669 5.49676 74.1107 4.9432 74.28 4.32265V3.75851H83.9549C85.0278 3.75851 85.7499 3.02161 85.7499 1.92683V0.624023H70.6641Z" fill="url(#paint29_linear_106_41314)"/>
<path d="M83.9854 19.2354H78.6504C78.6504 20.9665 80.0256 22.3698 81.7222 22.3698H85.751V21.0071C85.751 19.8823 85.1066 19.2354 83.9854 19.2354Z" fill="url(#paint30_linear_106_41314)"/>
<defs>
<linearGradient id="paint0_linear_106_41314" x1="173.982" y1="11.4972" x2="177.596" y2="11.4972" gradientUnits="userSpaceOnUse">
<stop stop-color="#3D56DE"/>
<stop offset="0.2691" stop-color="#4B79FF"/>
<stop offset="1" stop-color="#90ECFF"/>
</linearGradient>
<linearGradient id="paint1_linear_106_41314" x1="181.236" y1="11.5116" x2="202.861" y2="11.5116" gradientUnits="userSpaceOnUse">
<stop stop-color="#3D56DE"/>
<stop offset="0.2691" stop-color="#4B79FF"/>
<stop offset="1" stop-color="#90ECFF"/>
</linearGradient>
<linearGradient id="paint2_linear_106_41314" x1="4.35288" y1="3.53087" x2="17.3808" y2="19.2914" gradientUnits="userSpaceOnUse">
<stop stop-color="#3D56DE"/>
<stop offset="0.2691" stop-color="#4B79FF"/>
<stop offset="1" stop-color="#90ECFF"/>
</linearGradient>
<linearGradient id="paint3_linear_106_41314" x1="4.71076" y1="3.23472" x2="17.7387" y2="18.9953" gradientUnits="userSpaceOnUse">
<stop stop-color="#5F96FF"/>
<stop offset="0.583" stop-color="#4F54D9"/>
</linearGradient>
<linearGradient id="paint4_linear_106_41314" x1="5.26659" y1="2.77501" x2="18.2946" y2="18.5356" gradientUnits="userSpaceOnUse">
<stop stop-color="#3D56DE"/>
<stop offset="0.2691" stop-color="#4B79FF"/>
<stop offset="1" stop-color="#90ECFF"/>
</linearGradient>
<linearGradient id="paint5_linear_106_41314" x1="4.47547" y1="3.41674" x2="17.5139" y2="19.19" gradientUnits="userSpaceOnUse">
<stop stop-color="#4F54D9"/>
<stop offset="0.2259" stop-color="#5059DC"/>
<stop offset="0.4952" stop-color="#5468E4"/>
<stop offset="0.7857" stop-color="#5A7FF2"/>
<stop offset="1" stop-color="#5F96FF"/>
</linearGradient>
<linearGradient id="paint6_linear_106_41314" x1="90.3921" y1="3.26408" x2="103.42" y2="19.0246" gradientUnits="userSpaceOnUse">
<stop stop-color="#5F96FF"/>
<stop offset="0.583" stop-color="#4F54D9"/>
</linearGradient>
<linearGradient id="paint7_linear_106_41314" x1="91.8593" y1="0.470729" x2="105.795" y2="24.7193" gradientUnits="userSpaceOnUse">
<stop stop-color="#3D56DE"/>
<stop offset="0.2691" stop-color="#4B79FF"/>
<stop offset="1" stop-color="#90ECFF"/>
</linearGradient>
<linearGradient id="paint8_linear_106_41314" x1="48.6988" y1="11.4967" x2="67.6562" y2="11.4967" gradientUnits="userSpaceOnUse">
<stop stop-color="#5F96FF"/>
<stop offset="0.583" stop-color="#4F54D9"/>
</linearGradient>
<linearGradient id="paint9_linear_106_41314" x1="44.7983" y1="13.777" x2="64.0109" y2="9.30706" gradientUnits="userSpaceOnUse">
<stop stop-color="#3D56DE"/>
<stop offset="0.1494" stop-color="#3E58E0"/>
<stop offset="0.2032" stop-color="#405FE6"/>
<stop offset="0.2415" stop-color="#456AF1"/>
<stop offset="0.2691" stop-color="#4B79FF"/>
<stop offset="1" stop-color="#90ECFF"/>
</linearGradient>
<linearGradient id="paint10_linear_106_41314" x1="156.15" y1="5.20316" x2="179.433" y2="22.5827" gradientUnits="userSpaceOnUse">
<stop stop-color="#5F96FF"/>
<stop offset="0.583" stop-color="#4F54D9"/>
</linearGradient>
<linearGradient id="paint11_linear_106_41314" x1="156.805" y1="2.19139" x2="171.892" y2="2.19139" gradientUnits="userSpaceOnUse">
<stop stop-color="#3D56DE"/>
<stop offset="0.2691" stop-color="#4B79FF"/>
<stop offset="1" stop-color="#90ECFF"/>
</linearGradient>
<linearGradient id="paint12_linear_106_41314" x1="23.3784" y1="11.4969" x2="45.3759" y2="11.4969" gradientUnits="userSpaceOnUse">
<stop stop-color="#5F96FF"/>
<stop offset="0.583" stop-color="#4F54D9"/>
</linearGradient>
<linearGradient id="paint13_linear_106_41314" x1="37.2019" y1="18.8682" x2="37.6699" y2="18.8682" gradientUnits="userSpaceOnUse">
<stop stop-color="#3D56DE"/>
<stop offset="0.2691" stop-color="#4B79FF"/>
<stop offset="1" stop-color="#90ECFF"/>
</linearGradient>
<linearGradient id="paint14_linear_106_41314" x1="40.7172" y1="24.1815" x2="26.6074" y2="-4.73042" gradientUnits="userSpaceOnUse">
<stop stop-color="#3D56DE"/>
<stop offset="0.2691" stop-color="#4B79FF"/>
<stop offset="1" stop-color="#90ECFF"/>
</linearGradient>
<linearGradient id="paint15_linear_106_41314" x1="23.3784" y1="11.3311" x2="41.7304" y2="11.3311" gradientUnits="userSpaceOnUse">
<stop stop-color="#4F54D9"/>
<stop offset="0.2259" stop-color="#5059DC"/>
<stop offset="0.4952" stop-color="#5468E4"/>
<stop offset="0.7857" stop-color="#5A7FF2"/>
<stop offset="1" stop-color="#5F96FF"/>
</linearGradient>
<linearGradient id="paint16_linear_106_41314" x1="37.6694" y1="18.5417" x2="38.3621" y2="18.5417" gradientUnits="userSpaceOnUse">
<stop stop-color="#4F54D9"/>
<stop offset="0.2259" stop-color="#5059DC"/>
<stop offset="0.4952" stop-color="#5468E4"/>
<stop offset="0.7857" stop-color="#5A7FF2"/>
<stop offset="1" stop-color="#5F96FF"/>
</linearGradient>
<linearGradient id="paint17_linear_106_41314" x1="108.804" y1="11.4972" x2="130.801" y2="11.4972" gradientUnits="userSpaceOnUse">
<stop stop-color="#5F96FF"/>
<stop offset="0.583" stop-color="#4F54D9"/>
</linearGradient>
<linearGradient id="paint18_linear_106_41314" x1="122.627" y1="4.12602" x2="123.095" y2="4.12602" gradientUnits="userSpaceOnUse">
<stop stop-color="#3D56DE"/>
<stop offset="0.2691" stop-color="#4B79FF"/>
<stop offset="1" stop-color="#90ECFF"/>
</linearGradient>
<linearGradient id="paint19_linear_106_41314" x1="126.143" y1="-1.18747" x2="112.033" y2="27.7245" gradientUnits="userSpaceOnUse">
<stop stop-color="#3D56DE"/>
<stop offset="0.2691" stop-color="#4B79FF"/>
<stop offset="1" stop-color="#90ECFF"/>
</linearGradient>
<linearGradient id="paint20_linear_106_41314" x1="108.804" y1="11.663" x2="127.156" y2="11.663" gradientUnits="userSpaceOnUse">
<stop stop-color="#4F54D9"/>
<stop offset="0.2259" stop-color="#5059DC"/>
<stop offset="0.4952" stop-color="#5468E4"/>
<stop offset="0.7857" stop-color="#5A7FF2"/>
<stop offset="1" stop-color="#5F96FF"/>
</linearGradient>
<linearGradient id="paint21_linear_106_41314" x1="123.095" y1="4.45244" x2="123.788" y2="4.45244" gradientUnits="userSpaceOnUse">
<stop stop-color="#4F54D9"/>
<stop offset="0.2259" stop-color="#5059DC"/>
<stop offset="0.4952" stop-color="#5468E4"/>
<stop offset="0.7857" stop-color="#5A7FF2"/>
<stop offset="1" stop-color="#5F96FF"/>
</linearGradient>
<linearGradient id="paint22_linear_106_41314" x1="181.236" y1="11.5118" x2="201.074" y2="11.5118" gradientUnits="userSpaceOnUse">
<stop stop-color="#5F96FF"/>
<stop offset="0.583" stop-color="#4F54D9"/>
</linearGradient>
<linearGradient id="paint23_linear_106_41314" x1="183.988" y1="3.13305" x2="201.074" y2="3.13305" gradientUnits="userSpaceOnUse">
<stop stop-color="#3D56DE"/>
<stop offset="0.2691" stop-color="#4B79FF"/>
<stop offset="1" stop-color="#90ECFF"/>
</linearGradient>
<linearGradient id="paint24_linear_106_41314" x1="70.7969" y1="5.75734" x2="103.91" y2="30.474" gradientUnits="userSpaceOnUse">
<stop stop-color="#5F96FF"/>
<stop offset="0.583" stop-color="#4F54D9"/>
</linearGradient>
<linearGradient id="paint25_linear_106_41314" x1="145.889" y1="19.6503" x2="114.749" y2="-2.13266" gradientUnits="userSpaceOnUse">
<stop stop-color="#3D56DE"/>
<stop offset="0.2691" stop-color="#4B79FF"/>
<stop offset="1" stop-color="#90ECFF"/>
</linearGradient>
<linearGradient id="paint26_linear_106_41314" x1="144.369" y1="-1.30095" x2="165.326" y2="33.1606" gradientUnits="userSpaceOnUse">
<stop stop-color="#3D56DE"/>
<stop offset="0.2691" stop-color="#4B79FF"/>
<stop offset="1" stop-color="#90ECFF"/>
</linearGradient>
<linearGradient id="paint27_linear_106_41314" x1="131.464" y1="7.43687" x2="144.569" y2="28.988" gradientUnits="userSpaceOnUse">
<stop stop-color="#3D56DE"/>
<stop offset="0.2691" stop-color="#4B79FF"/>
<stop offset="1" stop-color="#90ECFF"/>
</linearGradient>
<linearGradient id="paint28_linear_106_41314" x1="149.071" y1="15.227" x2="173.733" y2="26.7417" gradientUnits="userSpaceOnUse">
<stop stop-color="#3D56DE"/>
<stop offset="0.2691" stop-color="#4B79FF"/>
<stop offset="1" stop-color="#90ECFF"/>
</linearGradient>
<linearGradient id="paint29_linear_106_41314" x1="78.8223" y1="7.27975" x2="74.6628" y2="-15.3507" gradientUnits="userSpaceOnUse">
<stop stop-color="#90ECFF"/>
<stop offset="0.324" stop-color="#3D56DE"/>
</linearGradient>
<linearGradient id="paint30_linear_106_41314" x1="69.0394" y1="10.187" x2="100.276" y2="33.5033" gradientUnits="userSpaceOnUse">
<stop stop-color="#3D56DE"/>
<stop offset="0.1494" stop-color="#3E58E0"/>
<stop offset="0.2032" stop-color="#405FE6"/>
<stop offset="0.2415" stop-color="#456AF1"/>
<stop offset="0.2691" stop-color="#4B79FF"/>
<stop offset="0.7374" stop-color="#90ECFF"/>
</linearGradient>
</defs>
</svg>
