<svg width="26" height="27" viewBox="0 0 26 27" fill="none" xmlns="http://www.w3.org/2000/svg">
<path d="M0 10.0844C0 9.05004 0.410862 8.05805 1.14232 7.3267C1.87368 6.59524 2.86566 6.18438 3.9 6.18438H7.60888C7.995 6.18438 8.23288 5.78263 8.08474 5.4265C8.00978 5.25142 7.95065 5.06994 7.90788 4.88438C7.47762 2.95126 8.9375 0.984375 11.05 0.984375C13.1638 0.984375 14.6224 2.95126 14.1921 4.88438C14.1492 5.06994 14.0901 5.25131 14.0153 5.4265C13.8658 5.78263 14.105 6.18438 14.4911 6.18438H16.9C17.9343 6.18438 18.9263 6.59524 19.6577 7.3267C20.3891 8.05805 20.8 9.05004 20.8 10.0844V12.4933C20.8 12.8794 21.2004 13.1173 21.5579 12.9691C21.7334 12.8963 21.9128 12.8339 22.1 12.7923C24.0331 12.362 26 13.8206 26 15.9344C26 18.0481 24.0331 19.5068 22.1 19.0765C21.9144 19.0337 21.733 18.9745 21.5579 18.8996C21.2017 18.7501 20.8 18.9894 20.8 19.3755V23.0844C20.8 24.1187 20.3891 25.1107 19.6577 25.8421C18.9263 26.5735 17.9343 26.9844 16.9 26.9844H14.4391C14.0647 26.9844 13.8242 26.6061 13.9321 26.2486C13.9854 26.0666 14.0257 25.8794 14.0426 25.6844C14.0771 25.2704 14.0254 24.8537 13.8907 24.4608C13.756 24.0679 13.5412 23.7071 13.26 23.4014C12.9787 23.0957 12.637 22.8517 12.2567 22.6847C11.8763 22.5178 11.4654 22.4316 11.05 22.4316C10.6346 22.4316 10.2237 22.5178 9.84331 22.6847C9.46295 22.8517 9.12128 23.0957 8.84 23.4014C8.55882 23.7071 8.34401 24.0679 8.20929 24.4608C8.07457 24.8537 8.02289 25.2704 8.05738 25.6844C8.07426 25.8794 8.11462 26.0666 8.16924 26.2486C8.27576 26.6061 8.03526 26.9844 7.66224 26.9844H3.9C2.86566 26.9844 1.87368 26.5735 1.14232 25.8421C0.410862 25.1107 0 24.1187 0 23.0844V19.3235C0 18.9491 0.378259 18.7086 0.735759 18.8165C0.917759 18.8698 1.105 18.9101 1.3 18.927C1.71401 18.9615 2.13064 18.9098 2.52357 18.7751C2.91651 18.6404 3.27726 18.4256 3.58297 18.1444C3.88868 17.8631 4.13264 17.5214 4.29964 17.1411C4.46655 16.7607 4.55273 16.3497 4.55273 15.9344C4.55273 15.519 4.46655 15.108 4.29964 14.7277C4.13264 14.3473 3.88868 14.0057 3.58297 13.7244C3.27726 13.4432 2.91651 13.2284 2.52357 13.0937C2.13064 12.9589 1.71401 12.9073 1.3 12.9418C1.105 12.9586 0.917759 12.999 0.735759 13.0536C0.378259 13.1601 0 12.9196 0 12.5466V10.0844Z" fill="url(#paint0_linear_182_958)"/>
<defs>
<linearGradient id="paint0_linear_182_958" x1="5.52446" y1="4.64141" x2="20.1428" y2="22.9856" gradientUnits="userSpaceOnUse">
<stop stop-color="#5F96FF"/>
<stop offset="0.583" stop-color="#4F54D9"/>
</linearGradient>
</defs>
</svg>
