<svg width="35" height="26" viewBox="0 0 35 26" fill="none" xmlns="http://www.w3.org/2000/svg">
<path d="M32.9318 21.6963C31.2263 24.0516 28.9296 25.4316 26.0993 25.851C25.4527 25.9471 24.8035 25.9787 24.1517 25.9787H16.0586C13.3496 25.9787 10.64 25.9639 7.93031 25.9841C6.1752 25.9955 4.52775 25.6413 3.0943 24.5477C0.951638 22.9096 -0.151014 20.6934 0.016667 17.9556C0.20066 14.9375 1.71632 12.7556 4.37899 11.4549C4.65694 11.3185 4.77503 11.1827 4.79199 10.8453C4.94597 7.55225 6.33505 4.91663 8.87637 2.93908C10.4592 1.70697 12.2235 1.07109 14.1149 0.991097H14.1215C14.1234 0.991097 14.1247 0.990424 14.1267 0.990424C14.2004 0.987736 14.2748 0.985047 14.3485 0.984375H14.3537C14.8372 1.00051 15.8877 1.21225 15.8864 2.73742C15.8864 2.76969 15.8864 2.80061 15.887 2.83085C15.887 2.83085 15.887 2.83086 15.887 2.83153C15.8837 6.26704 15.8857 9.70121 15.8857 13.1381V13.6173C15.0656 12.7785 14.3205 12.0189 13.5747 11.2566C13.165 10.8372 12.6782 10.6214 12.1008 10.6786C11.3551 10.7518 10.8213 11.1572 10.5571 11.8824C10.2765 12.642 10.4501 13.3222 11.0001 13.8916C12.7526 15.7058 14.5103 17.5133 16.268 19.3215C17.1867 20.2679 18.2098 20.2652 19.1317 19.3215C19.9564 18.4745 20.7817 17.6242 21.6045 16.7739C22.4129 15.9438 23.233 15.1244 24.0192 14.2747C24.765 13.4695 24.7513 12.3388 24.0277 11.6021C23.3067 10.8681 22.1708 10.8963 21.4035 11.67C21.1393 11.9335 20.8783 12.2004 20.6251 12.4746C20.2839 12.8349 19.9538 13.2033 19.6184 13.5689C19.5799 13.5461 19.544 13.5266 19.5081 13.5064V13.05C19.5081 10.0393 19.5081 7.0266 19.5062 4.01322C19.5062 4.01255 19.5062 4.01188 19.5062 4.01188C19.5068 3.98566 19.5068 3.9581 19.5068 3.92987C19.5055 2.45578 20.2102 2.80397 20.496 3.00697C21.1086 3.48757 21.6769 4.05489 22.1982 4.70422C22.3522 4.89714 22.482 4.9536 22.7182 4.90588C25.9094 4.29083 28.7782 5.04703 31.2758 7.16709C33.2841 8.8704 34.4859 11.0778 34.8741 13.7363C35.3002 16.6637 34.6425 19.3329 32.9318 21.6963Z" fill="url(#paint0_linear_182_967)"/>
<defs>
<linearGradient id="paint0_linear_182_967" x1="7.43678" y1="4.50076" x2="19.8355" y2="26.2831" gradientUnits="userSpaceOnUse">
<stop stop-color="#5F96FF"/>
<stop offset="0.583" stop-color="#4F54D9"/>
</linearGradient>
</defs>
</svg>
