<svg width="26" height="27" viewBox="0 0 26 27" fill="none" xmlns="http://www.w3.org/2000/svg">
<path d="M13 26.9844C9.55219 26.9844 6.24558 25.6147 3.80761 23.1768C1.36964 20.7388 0 17.4322 0 13.9844C0 10.5366 1.36964 7.22996 3.80761 4.79199C6.24558 2.35401 9.55219 0.984375 13 0.984375C16.4478 0.984375 19.7544 2.35401 22.1924 4.79199C24.6304 7.22996 26 10.5366 26 13.9844C26 17.4322 24.6304 20.7388 22.1924 23.1768C19.7544 25.6147 16.4478 26.9844 13 26.9844ZM8.45 12.6844C8.96717 12.6844 9.46316 12.4789 9.82886 12.1132C10.1946 11.7475 10.4 11.2515 10.4 10.7344C10.4 10.2172 10.1946 9.72121 9.82886 9.35552C9.46316 8.98982 8.96717 8.78437 8.45 8.78437C7.93283 8.78437 7.43684 8.98982 7.07114 9.35552C6.70545 9.72121 6.5 10.2172 6.5 10.7344C6.5 11.2515 6.70545 11.7475 7.07114 12.1132C7.43684 12.4789 7.93283 12.6844 8.45 12.6844ZM17.55 12.6844C18.0672 12.6844 18.5632 12.4789 18.9289 12.1132C19.2946 11.7475 19.5 11.2515 19.5 10.7344C19.5 10.2172 19.2946 9.72121 18.9289 9.35552C18.5632 8.98982 18.0672 8.78437 17.55 8.78437C17.0328 8.78437 16.5368 8.98982 16.1711 9.35552C15.8054 9.72121 15.6 10.2172 15.6 10.7344C15.6 11.2515 15.8054 11.7475 16.1711 12.1132C16.5368 12.4789 17.0328 12.6844 17.55 12.6844ZM20.358 16.5844H5.642C6.17796 18.1079 7.17366 19.4276 8.49165 20.3611C9.80963 21.2946 11.3849 21.796 13 21.796C14.6151 21.796 16.1904 21.2946 17.5084 20.3611C18.8263 19.4276 19.822 18.1079 20.358 16.5844Z" fill="url(#paint0_linear_182_979)"/>
<defs>
<linearGradient id="paint0_linear_182_979" x1="5.52446" y1="4.64141" x2="20.1428" y2="22.9856" gradientUnits="userSpaceOnUse">
<stop stop-color="#5F96FF"/>
<stop offset="0.583" stop-color="#4F54D9"/>
</linearGradient>
</defs>
</svg>
