<svg width="26" height="27" viewBox="0 0 26 27" fill="none" xmlns="http://www.w3.org/2000/svg">
<path d="M13 0.984375C5.8318 0.984375 0 6.81617 0 13.9844C0 21.1526 5.8318 26.9844 13 26.9844C20.1682 26.9844 26 21.1526 26 13.9844C26 6.81617 20.1682 0.984375 13 0.984375ZM2.6 13.9844C2.6 12.8157 2.8028 11.6938 3.1603 10.6447L5.2 12.6844L7.8 15.2844V17.8844L10.4 20.4844L11.7 21.7844V24.2947C6.5793 23.6512 2.6 19.278 2.6 13.9844ZM21.229 20.3193C20.3801 19.6355 19.0931 19.1844 18.2 19.1844V17.8844C18.2 17.1948 17.9261 16.5335 17.4385 16.0459C16.9509 15.5583 16.2896 15.2844 15.6 15.2844H10.4V11.3844C11.0896 11.3844 11.7509 11.1104 12.2385 10.6229C12.7261 10.1353 13 9.47394 13 8.78437V7.48438H14.3C14.9896 7.48437 15.6509 7.21045 16.1385 6.72285C16.6261 6.23526 16.9 5.57394 16.9 4.88437V4.35008C20.7064 5.89578 23.4 9.62937 23.4 13.9844C23.3998 16.2785 22.636 18.5073 21.229 20.3193Z" fill="url(#paint0_linear_182_987)"/>
<defs>
<linearGradient id="paint0_linear_182_987" x1="5.52446" y1="4.64141" x2="20.1428" y2="22.9856" gradientUnits="userSpaceOnUse">
<stop stop-color="#5F96FF"/>
<stop offset="0.583" stop-color="#4F54D9"/>
</linearGradient>
</defs>
</svg>
