<svg width="16" height="16" viewBox="0 0 16 16" fill="none" xmlns="http://www.w3.org/2000/svg">
<path fill-rule="evenodd" clip-rule="evenodd" d="M3.7501 2.29045C3.2911 2.31 2.9613 2.35335 2.66975 2.45195C2.17112 2.6189 1.71802 2.89923 1.34605 3.2709C0.974088 3.64257 0.693397 4.09546 0.526048 4.59395C0.350098 5.1218 0.350098 5.7729 0.350098 7.0768C0.350098 7.15755 0.350098 7.19835 0.361148 7.23065C0.371583 7.26192 0.38915 7.29033 0.412458 7.31364C0.435767 7.33695 0.464179 7.35451 0.495448 7.36495C0.527748 7.376 0.568548 7.376 0.650148 7.376H15.35C15.4316 7.376 15.4724 7.376 15.5047 7.36495C15.536 7.35451 15.5644 7.33695 15.5877 7.31364C15.611 7.29033 15.6286 7.26192 15.639 7.23065C15.6501 7.1975 15.6501 7.1567 15.6501 7.0751C15.6501 5.77205 15.6501 5.1201 15.4741 4.5948C15.307 4.09599 15.0264 3.64277 14.6545 3.27079C14.2825 2.89881 13.8293 2.61822 13.3304 2.4511C13.0389 2.35335 12.7082 2.31 12.2501 2.29045V4.40015C12.2501 4.7383 12.1158 5.0626 11.8767 5.30171C11.6375 5.54082 11.3132 5.67515 10.9751 5.67515C10.6369 5.67515 10.3126 5.54082 10.0735 5.30171C9.83443 5.0626 9.7001 4.7383 9.7001 4.40015V2.27515H6.3001V4.40015C6.3001 4.7383 6.16577 5.0626 5.92666 5.30171C5.68755 5.54082 5.36325 5.67515 5.0251 5.67515C4.68695 5.67515 4.36265 5.54082 4.12354 5.30171C3.88443 5.0626 3.7501 4.7383 3.7501 4.40015V2.29045Z" fill="url(#paint0_linear_182_487)"/>
<path d="M0.350098 9.45291C0.350098 9.2746 0.350098 9.18545 0.412148 9.13029C0.474198 9.07513 0.574498 9.07513 0.775098 9.07513H15.2251C15.4257 9.07513 15.526 9.07513 15.588 9.13029C15.6501 9.18545 15.6501 9.2746 15.6501 9.45291V9.83069C15.6501 12.6799 15.6501 14.1049 14.6539 14.9896C13.6585 15.8751 12.0554 15.8751 8.8501 15.8751H7.1501C3.94475 15.8751 2.34165 15.8751 1.3463 14.9896C0.350098 14.1049 0.350098 12.6799 0.350098 9.83069V9.45291Z" fill="url(#paint1_linear_182_487)"/>
<path d="M5.0249 1.00012V4.40012M10.9749 1.00012V4.40012" stroke="url(#paint2_linear_182_487)" stroke-linecap="round"/>
<defs>
<linearGradient id="paint0_linear_182_487" x1="12.6801" y1="-0.0931061" x2="12.6801" y2="9.3799" gradientUnits="userSpaceOnUse">
<stop offset="0.181272" stop-color="#89A3FF"/>
<stop offset="0.457009" stop-color="#6083FF"/>
<stop offset="1" stop-color="#476DF4"/>
</linearGradient>
<linearGradient id="paint1_linear_182_487" x1="12.6801" y1="5.91799" x2="12.6801" y2="18.5466" gradientUnits="userSpaceOnUse">
<stop offset="0.181272" stop-color="#89A3FF"/>
<stop offset="0.457009" stop-color="#6083FF"/>
<stop offset="1" stop-color="#476DF4"/>
</linearGradient>
<linearGradient id="paint2_linear_182_487" x1="9.8199" y1="-0.578449" x2="9.8199" y2="5.73584" gradientUnits="userSpaceOnUse">
<stop offset="0.181272" stop-color="#89A3FF"/>
<stop offset="0.457009" stop-color="#6083FF"/>
<stop offset="1" stop-color="#476DF4"/>
</linearGradient>
</defs>
</svg>
