<svg width="16" height="16" viewBox="0 0 16 16" fill="none" xmlns="http://www.w3.org/2000/svg">
<g clip-path="url(#clip0_182_700)">
<path d="M10.3073 8.07479C10.3354 8.12644 10.4523 8.30164 10.7035 8.43301C10.7248 8.44362 10.7468 8.45576 10.7673 8.46721C10.7726 8.46944 10.7795 8.47252 10.7832 8.47475C12.6797 9.46271 14.0736 9.885 15.0975 9.95941C15.2159 9.96806 15.3224 9.88891 15.3468 9.77262C15.4662 9.20486 15.5258 8.61086 15.5258 8.00038C15.5258 6.32615 15.0872 4.77267 14.2296 3.53706C13.6733 2.74035 12.9553 2.06259 12.0589 1.56393C10.9425 0.927213 9.56816 0.568298 7.93413 0.568298H1.59959C0.977523 0.568298 0.473145 1.07268 0.473145 1.69474V14.3053C0.473145 14.9275 0.977523 15.4318 1.59959 15.4318H7.93413C9.74796 15.4318 11.2818 14.9536 12.4969 14.137C13.1738 13.6785 13.7718 13.1003 14.2294 12.4234C14.3675 12.225 14.4945 12.0182 14.6103 11.8041C14.6734 11.6874 14.6255 11.5411 14.5063 11.483C12.737 10.6211 11.3895 9.50542 10.5995 8.75995C10.5995 8.75842 10.5995 8.75842 10.5995 8.75842C10.5585 8.72198 10.5222 8.69015 10.4887 8.66126C10.3453 8.54204 10.2071 8.47377 10.1426 8.44641L10.1168 8.4358C9.54275 8.21509 9.21329 8.40969 8.47536 9.0855C8.46894 9.09137 8.45931 9.08341 8.46391 9.07601C9.189 7.9035 9.16541 7.66478 8.23608 6.64877C8.23022 6.64234 8.23818 6.63257 8.24558 6.63718C9.41655 7.36143 9.65667 7.33868 10.672 6.40712C10.6784 6.40125 10.688 6.40921 10.6834 6.41661C10.1842 7.22657 10.0422 7.59233 10.3073 8.07479ZM12.155 7.1188C11.9026 7.53118 11.9116 7.63072 12.2365 7.9888C12.2422 7.99508 12.2345 8.00457 12.2273 8.0001C11.8149 7.74771 11.7154 7.75678 11.358 8.08163C11.3517 8.08736 11.3422 8.07968 11.3467 8.07242C11.5984 7.66004 11.5893 7.5605 11.2645 7.20312C11.2587 7.19684 11.2664 7.18735 11.2737 7.19181C11.686 7.44352 11.7856 7.43444 12.1437 7.10959C12.1499 7.10387 12.1594 7.11154 12.155 7.1188ZM9.73749 8.99141C9.64396 9.14846 9.64899 9.19914 9.77044 9.33665C9.77616 9.34307 9.76835 9.35256 9.76095 9.34809C9.60306 9.2547 9.55224 9.25903 9.41502 9.38006C9.4086 9.38579 9.3991 9.37797 9.40357 9.37057C9.4971 9.21352 9.49208 9.16284 9.37062 9.02534C9.3649 9.01891 9.37272 9.00942 9.38012 9.01389C9.538 9.10728 9.58882 9.10295 9.72605 8.98192C9.73247 8.9762 9.74182 8.98401 9.73749 8.99141ZM11.1114 12.8265C10.2449 13.4694 9.19808 13.8825 8.06033 13.9759C4.46979 14.2706 1.4128 11.2887 1.61997 7.69201C1.80019 4.56396 4.3937 2.08311 7.566 2.08311C7.67014 2.08311 7.77345 2.08576 7.87619 2.09121C7.88303 2.09163 7.88555 2.10014 7.8801 2.10433C6.43593 3.19098 5.50186 4.92036 5.50186 6.86738C5.50186 10.0388 7.98117 12.6324 11.1074 12.8133C11.1142 12.8137 11.117 12.8225 11.1114 12.8265ZM9.20827 6.27966C9.30208 6.12191 9.29705 6.0711 9.1756 5.93345C9.16988 5.92703 9.17769 5.91754 9.18509 5.922C9.34298 6.0154 9.3938 6.01107 9.5313 5.88989C9.53773 5.88417 9.54722 5.89199 9.54275 5.89939C9.44908 6.05714 9.45397 6.10781 9.57514 6.24462C9.58086 6.25104 9.57304 6.26053 9.56565 6.25607C9.4079 6.16295 9.35708 6.16784 9.21971 6.28915C9.21315 6.29488 9.2038 6.28706 9.20827 6.27966Z" fill="white"/>
</g>
<defs>
<clipPath id="clip0_182_700">
<rect width="15.0769" height="15.0769" fill="white" transform="translate(0.460938 0.46167)"/>
</clipPath>
</defs>
</svg>
