<svg width="38" height="37" viewBox="0 0 38 37" fill="none" xmlns="http://www.w3.org/2000/svg">
<g clip-path="url(#clip0_2082_10448)">
<path d="M24.461 18.4301C24.529 18.5553 24.8123 18.9801 25.4216 19.2986C25.473 19.3243 25.5265 19.3538 25.5763 19.3815C25.5891 19.387 25.6057 19.3944 25.6149 19.3998C30.2132 21.7953 33.593 22.8192 36.0755 22.9996C36.3625 23.0206 36.6208 22.8287 36.68 22.5467C36.9694 21.1701 37.114 19.7298 37.114 18.2496C37.114 14.1902 36.0504 10.4235 33.9711 7.42752C32.6222 5.49577 30.8814 3.85242 28.708 2.64334C26.0011 1.0995 22.6687 0.229248 18.7067 0.229248H3.34747C1.83917 0.229248 0.616211 1.4522 0.616211 2.9605V33.5371C0.616211 35.0457 1.83917 36.2683 3.34747 36.2683H18.7067C23.1046 36.2683 26.8236 35.109 29.7698 33.1289C31.4111 32.0173 32.8612 30.6153 33.9708 28.9739C34.3055 28.4929 34.6135 27.9916 34.8941 27.4724C35.0471 27.1894 34.931 26.8347 34.642 26.6939C30.352 24.6041 27.0849 21.8989 25.1694 20.0914C25.1694 20.0876 25.1694 20.0876 25.1694 20.0876C25.0699 19.9993 24.9819 19.9221 24.9007 19.852C24.553 19.563 24.2179 19.3974 24.0615 19.3311L23.9989 19.3054C22.6071 18.7702 21.8082 19.2421 20.019 20.8807C20.0034 20.8949 19.9801 20.8756 19.9912 20.8577C21.7493 18.0147 21.6921 17.4359 19.4388 14.9724C19.4246 14.9568 19.4439 14.9331 19.4618 14.9443C22.3011 16.7004 22.8833 16.6452 25.3451 14.3865C25.3607 14.3723 25.384 14.3916 25.3728 14.4095C24.1624 16.3734 23.8182 17.2602 24.461 18.4301ZM28.9408 16.1121C28.3288 17.112 28.3509 17.3533 29.1385 18.2215C29.1524 18.2368 29.1338 18.2598 29.1162 18.249C28.1163 17.637 27.8749 17.659 27.0084 18.4466C26.9932 18.4605 26.9702 18.4419 26.981 18.4243C27.5913 17.4244 27.5693 17.1831 26.7816 16.3165C26.7677 16.3013 26.7864 16.2783 26.804 16.2891C27.8039 16.8994 28.0452 16.8774 28.9134 16.0898C28.9286 16.0759 28.9517 16.0945 28.9408 16.1121ZM23.0793 20.6526C22.8525 21.0334 22.8646 21.1562 23.1591 21.4896C23.173 21.5052 23.1541 21.5282 23.1361 21.5174C22.7533 21.291 22.6301 21.3014 22.2973 21.5949C22.2818 21.6088 22.2588 21.5898 22.2696 21.5719C22.4964 21.1911 22.4842 21.0682 22.1897 20.7348C22.1758 20.7192 22.1948 20.6962 22.2127 20.7071C22.5956 20.9335 22.7188 20.923 23.0515 20.6295C23.0671 20.6157 23.0897 20.6346 23.0793 20.6526ZM26.4106 29.9515C24.3096 31.5102 21.7713 32.5118 19.0127 32.7383C10.3068 33.4528 2.89457 26.2227 3.39688 17.5019C3.83387 9.91743 10.1223 3.90217 17.8141 3.90217C18.0666 3.90217 18.3171 3.90861 18.5662 3.92181C18.5828 3.92282 18.5889 3.94347 18.5757 3.95363C15.074 6.58841 12.8092 10.7816 12.8092 15.5025C12.8092 23.1922 18.8207 29.4807 26.4008 29.9193C26.4174 29.9203 26.4242 29.9417 26.4106 29.9515ZM21.796 14.0774C22.0235 13.695 22.0113 13.5717 21.7168 13.238C21.703 13.2224 21.7219 13.1994 21.7399 13.2102C22.1227 13.4367 22.2459 13.4262 22.5793 13.1324C22.5949 13.1185 22.6179 13.1375 22.6071 13.1554C22.3799 13.5379 22.3918 13.6608 22.6856 13.9925C22.6995 14.0081 22.6805 14.0311 22.6626 14.0202C22.2801 13.7945 22.1569 13.8063 21.8238 14.1005C21.8079 14.1143 21.7852 14.0954 21.796 14.0774Z" fill="white"/>
</g>
<defs>
<clipPath id="clip0_2082_10448">
<rect width="36.498" height="36.498" fill="white" transform="translate(0.616211)"/>
</clipPath>
</defs>
</svg>
