<svg width="76" height="77" viewBox="0 0 76 77" fill="none" xmlns="http://www.w3.org/2000/svg">
<circle cx="38" cy="38.0447" r="38" fill="url(#paint0_linear_2072_39802)"/>
<circle cx="38.3575" cy="38.4021" r="31.4483" fill="#656096"/>
<path d="M44.1601 38.6458C44.2245 38.7629 44.4927 39.1599 45.0693 39.4576C45.118 39.4816 45.1687 39.5091 45.2158 39.5351C45.2279 39.5401 45.2436 39.5471 45.2523 39.5521C49.6047 41.7909 52.8037 42.7479 55.1533 42.9165C55.425 42.9361 55.6695 42.7567 55.7255 42.4932C55.9995 41.2066 56.1363 39.8606 56.1363 38.4772C56.1363 34.6832 55.1296 31.1629 53.1615 28.3629C51.8848 26.5575 50.2371 25.0217 48.1799 23.8917C45.6178 22.4488 42.4637 21.6355 38.7136 21.6355H24.176C22.7484 21.6355 21.5908 22.7785 21.5908 24.1881V52.7647C21.5908 54.1747 22.7484 55.3173 24.176 55.3173H38.7136C42.8763 55.3173 46.3964 54.2338 49.185 52.3832C50.7385 51.3443 52.111 50.034 53.1612 48.5C53.4781 48.0505 53.7696 47.582 54.0352 47.0967C54.18 46.8323 54.0701 46.5007 53.7965 46.3691C49.736 44.416 46.6437 41.8877 44.8307 40.1984C44.8307 40.195 44.8307 40.195 44.8307 40.195C44.7365 40.1124 44.6532 40.0403 44.5763 39.9748C44.2472 39.7046 43.9301 39.5499 43.782 39.4879L43.7228 39.4639C42.4054 38.9637 41.6493 39.4047 39.9557 40.9362C39.941 40.9495 39.9189 40.9314 39.9295 40.9147C41.5935 38.2577 41.5394 37.7167 39.4066 35.4143C39.3931 35.3998 39.4114 35.3776 39.4284 35.3881C42.1157 37.0293 42.6668 36.9777 44.9969 34.8667C45.0117 34.8534 45.0338 34.8715 45.0232 34.8882C43.8775 36.7237 43.5517 37.5525 44.1601 38.6458ZM48.4003 36.4795C47.8211 37.414 47.8419 37.6395 48.5874 38.4509C48.6006 38.4652 48.583 38.4867 48.5663 38.4766C47.6199 37.9046 47.3915 37.9252 46.5713 38.6613C46.5569 38.6743 46.5351 38.6569 46.5453 38.6404C47.123 37.7059 47.1022 37.4804 46.3566 36.6705C46.3435 36.6563 46.3611 36.6348 46.3778 36.6449C47.3242 37.2153 47.5526 37.1947 48.3744 36.4586C48.3888 36.4456 48.4106 36.463 48.4003 36.4795ZM42.8523 40.7229C42.6376 41.0788 42.6492 41.1937 42.9279 41.5053C42.941 41.5198 42.9231 41.5413 42.9061 41.5312C42.5438 41.3196 42.4272 41.3294 42.1122 41.6037C42.0975 41.6166 42.0757 41.5989 42.0859 41.5821C42.3006 41.2263 42.2891 41.1114 42.0103 40.7998C41.9972 40.7853 42.0151 40.7638 42.0321 40.7739C42.3945 40.9855 42.5111 40.9757 42.826 40.7014C42.8408 40.6885 42.8622 40.7062 42.8523 40.7229ZM46.0055 49.4136C44.0169 50.8704 41.6143 51.8065 39.0032 52.0181C30.763 52.6859 23.7473 45.9288 24.2228 37.7784C24.6364 30.69 30.5884 25.0682 37.8688 25.0682C38.1078 25.0682 38.3448 25.0742 38.5807 25.0865C38.5963 25.0875 38.6021 25.1068 38.5896 25.1163C35.2753 27.5787 33.1316 31.4976 33.1316 35.9097C33.1316 43.0965 38.8216 48.9736 45.9962 49.3836C46.0119 49.3845 46.0183 49.4045 46.0055 49.4136ZM41.6377 34.5779C41.853 34.2204 41.8415 34.1053 41.5628 33.7934C41.5496 33.7788 41.5676 33.7573 41.5845 33.7674C41.9469 33.9791 42.0635 33.9692 42.3791 33.6947C42.3938 33.6817 42.4156 33.6994 42.4054 33.7162C42.1904 34.0736 42.2016 34.1885 42.4797 34.4985C42.4928 34.5131 42.4749 34.5346 42.4579 34.5244C42.0959 34.3134 41.9793 34.3245 41.664 34.5994C41.6489 34.6124 41.6275 34.5947 41.6377 34.5779Z" fill="white"/>
<defs>
<linearGradient id="paint0_linear_2072_39802" x1="38" y1="0.0446777" x2="38" y2="76.0447" gradientUnits="userSpaceOnUse">
<stop stop-color="#656096"/>
<stop offset="1" stop-color="#656096" stop-opacity="0"/>
</linearGradient>
</defs>
</svg>
