<svg width="38" height="38" viewBox="0 0 38 38" fill="none" xmlns="http://www.w3.org/2000/svg"><g clip-path="url(#clip0_94_96)"><path d="M24.826 19.1886C24.8968 19.319 25.1918 19.7613 25.8262 20.0929C25.8797 20.1197 25.9354 20.1503 25.9872 20.1792C26.0006 20.1849 26.0179 20.1926 26.0274 20.1983C30.815 22.6923 34.3339 23.7584 36.9185 23.9462C37.2173 23.9681 37.4862 23.7682 37.5479 23.4747C37.8492 22.0414 37.9997 20.5419 37.9997 19.0007C37.9997 14.7742 36.8924 10.8525 34.7275 7.73327C33.3231 5.72202 31.5107 4.01104 29.2478 2.75221C26.4295 1.14483 22.96 0.23877 18.8349 0.23877H2.84365C1.27328 0.23877 0 1.51205 0 3.08242V34.9173C0 36.488 1.27328 37.761 2.84365 37.761H18.8349C23.4139 37.761 27.2859 36.5539 30.3533 34.4923C32.0622 33.3349 33.5719 31.8752 34.7272 30.1664C35.0757 29.6656 35.3964 29.1437 35.6886 28.603C35.8478 28.3084 35.727 27.9391 35.426 27.7925C30.9595 25.6167 27.5579 22.8001 25.5636 20.9182C25.5636 20.9144 25.5636 20.9144 25.5636 20.9144C25.46 20.8224 25.3684 20.742 25.2838 20.6691C24.9219 20.3681 24.573 20.1958 24.4102 20.1267L24.345 20.0999C22.8958 19.5428 22.0641 20.034 20.2012 21.7401C20.185 21.7549 20.1607 21.7348 20.1723 21.7161C22.0028 18.7562 21.9432 18.1535 19.5972 15.5886C19.5824 15.5724 19.6025 15.5478 19.6212 15.5594C22.5772 17.3877 23.1834 17.3303 25.7465 14.9786C25.7627 14.9638 25.787 14.9839 25.7754 15.0026C24.5152 17.0473 24.1568 17.9706 24.826 19.1886ZM29.4902 16.7752C28.8531 17.8163 28.876 18.0675 29.6961 18.9715C29.7105 18.9874 29.6911 19.0113 29.6728 19C28.6318 18.3629 28.3805 18.3858 27.4783 19.2058C27.4624 19.2203 27.4385 19.2009 27.4498 19.1826C28.0852 18.1415 28.0623 17.8903 27.2422 16.9881C27.2277 16.9722 27.2471 16.9483 27.2654 16.9595C28.3065 17.595 28.5578 17.572 29.4617 16.752C29.4776 16.7375 29.5015 16.7569 29.4902 16.7752ZM23.3874 21.5026C23.1513 21.899 23.164 22.0269 23.4706 22.3741C23.4851 22.3903 23.4653 22.4143 23.4466 22.403C23.0481 22.1672 22.9198 22.1781 22.5734 22.4837C22.5571 22.4981 22.5332 22.4784 22.5445 22.4597C22.7806 22.0632 22.7679 21.9353 22.4613 21.5882C22.4468 21.572 22.4666 21.548 22.4853 21.5593C22.8838 21.7951 23.0121 21.7841 23.3585 21.4786C23.3748 21.4641 23.3984 21.4839 23.3874 21.5026ZM26.8559 31.1841C24.6685 32.807 22.0257 33.8498 19.1535 34.0856C10.0893 34.8295 2.37212 27.3019 2.8951 18.2223C3.35007 10.3256 9.89728 4.06285 17.9056 4.06285C18.1685 4.06285 18.4293 4.06954 18.6887 4.08329C18.7059 4.08434 18.7123 4.10584 18.6985 4.11641C15.0528 6.85963 12.6948 11.2254 12.6948 16.1405C12.6948 24.1467 18.9537 30.6939 26.8457 31.1507C26.863 31.1517 26.87 31.1739 26.8559 31.1841ZM22.0514 14.6569C22.2883 14.2586 22.2756 14.1303 21.969 13.7829C21.9545 13.7666 21.9743 13.7427 21.9929 13.754C22.3915 13.9897 22.5198 13.9788 22.8669 13.6729C22.8831 13.6585 22.9071 13.6782 22.8958 13.6969C22.6593 14.0951 22.6717 14.223 22.9776 14.5684C22.992 14.5846 22.9723 14.6086 22.9536 14.5973C22.5554 14.3622 22.4271 14.3746 22.0803 14.6808C22.0638 14.6953 22.0402 14.6755 22.0514 14.6569Z" fill="#443A96"></path></g><defs><clipPath id="clip0_94_96"><rect width="38" height="38" fill="white"></rect></clipPath></defs></svg>