<svg width="92" height="92" viewBox="0 0 92 92" fill="none" xmlns="http://www.w3.org/2000/svg">
<g filter="url(#filter0_diiiii_182_261)">
<circle cx="46" cy="38" r="30" fill="#F77642"/>
</g>
<g clip-path="url(#clip0_182_261)">
<path d="M37.0873 27.2043C36.8152 27.1296 36.5289 27.1305 36.2571 27.2068C35.9853 27.2831 35.7376 27.4322 35.5385 27.6392C35.3395 27.8463 35.1961 28.104 35.1227 28.3867C35.0493 28.6693 35.0485 28.9671 35.1203 29.2502L36.7812 35.7964L33.2571 41.4885C33.1045 41.7345 33.0165 42.0178 33.0021 42.3102C32.9877 42.6026 33.0473 42.8938 33.175 43.1547C33.3027 43.4156 33.494 43.6371 33.7297 43.797C33.9655 43.9569 34.2375 44.0497 34.5185 44.066L41.0187 44.4459L45.1341 49.6911C45.312 49.918 45.5441 50.0923 45.8071 50.1967C46.07 50.3012 46.3548 50.332 46.6328 50.2862C46.9108 50.2405 47.1725 50.1196 47.3916 49.9359C47.6107 49.7521 47.7796 49.5117 47.8815 49.2388L49.7185 44.3188L55.7732 50.6164C56.021 50.8653 56.3529 51.0031 56.6975 50.9999C57.042 50.9968 57.3715 50.8531 57.6151 50.5997C57.8588 50.3463 57.997 50.0036 57.9999 49.6452C58.0029 49.2869 57.8705 48.9417 57.6312 48.6839L51.5764 42.3864L56.3067 40.4772C56.569 40.3711 56.7999 40.1952 56.9765 39.9672C57.1531 39.7393 57.2691 39.4671 57.313 39.178C57.3569 38.8888 57.3271 38.5927 57.2266 38.3193C57.1261 38.0458 56.9584 37.8045 56.7403 37.6195L51.6973 33.3392L51.332 26.5784C51.3159 26.2863 51.2265 26.0036 51.0727 25.7586C50.9188 25.5137 50.7059 25.3149 50.4552 25.1822C50.2045 25.0494 49.9247 24.9874 49.6437 25.0021C49.3628 25.0169 49.0904 25.108 48.8539 25.2664L43.3812 28.9318L37.0873 27.2043Z" fill="white"/>
</g>
<defs>
<filter id="filter0_diiiii_182_261" x="0" y="-4" width="92" height="96" filterUnits="userSpaceOnUse" color-interpolation-filters="sRGB">
<feFlood flood-opacity="0" result="BackgroundImageFix"/>
<feColorMatrix in="SourceAlpha" type="matrix" values="0 0 0 0 0 0 0 0 0 0 0 0 0 0 0 0 0 0 127 0" result="hardAlpha"/>
<feOffset dy="8"/>
<feGaussianBlur stdDeviation="8"/>
<feColorMatrix type="matrix" values="0 0 0 0 0.0375 0 0 0 0 0.0375 0 0 0 0 0.0375 0 0 0 0.12 0"/>
<feBlend mode="normal" in2="BackgroundImageFix" result="effect1_dropShadow_182_261"/>
<feBlend mode="normal" in="SourceGraphic" in2="effect1_dropShadow_182_261" result="shape"/>
<feColorMatrix in="SourceAlpha" type="matrix" values="0 0 0 0 0 0 0 0 0 0 0 0 0 0 0 0 0 0 127 0" result="hardAlpha"/>
<feOffset dx="3" dy="4"/>
<feGaussianBlur stdDeviation="4"/>
<feComposite in2="hardAlpha" operator="arithmetic" k2="-1" k3="1"/>
<feColorMatrix type="matrix" values="0 0 0 0 1 0 0 0 0 1 0 0 0 0 1 0 0 0 0.7 0"/>
<feBlend mode="normal" in2="shape" result="effect2_innerShadow_182_261"/>
<feColorMatrix in="SourceAlpha" type="matrix" values="0 0 0 0 0 0 0 0 0 0 0 0 0 0 0 0 0 0 127 0" result="hardAlpha"/>
<feOffset dx="-10" dy="-12"/>
<feGaussianBlur stdDeviation="18.5"/>
<feComposite in2="hardAlpha" operator="arithmetic" k2="-1" k3="1"/>
<feColorMatrix type="matrix" values="0 0 0 0 0 0 0 0 0 0 0 0 0 0 0 0 0 0 0.25 0"/>
<feBlend mode="normal" in2="effect2_innerShadow_182_261" result="effect3_innerShadow_182_261"/>
<feColorMatrix in="SourceAlpha" type="matrix" values="0 0 0 0 0 0 0 0 0 0 0 0 0 0 0 0 0 0 127 0" result="hardAlpha"/>
<feOffset dy="2"/>
<feGaussianBlur stdDeviation="1"/>
<feComposite in2="hardAlpha" operator="arithmetic" k2="-1" k3="1"/>
<feColorMatrix type="matrix" values="0 0 0 0 1 0 0 0 0 1 0 0 0 0 1 0 0 0 0.6 0"/>
<feBlend mode="normal" in2="effect3_innerShadow_182_261" result="effect4_innerShadow_182_261"/>
<feColorMatrix in="SourceAlpha" type="matrix" values="0 0 0 0 0 0 0 0 0 0 0 0 0 0 0 0 0 0 127 0" result="hardAlpha"/>
<feOffset dx="6" dy="9"/>
<feGaussianBlur stdDeviation="10"/>
<feComposite in2="hardAlpha" operator="arithmetic" k2="-1" k3="1"/>
<feColorMatrix type="matrix" values="0 0 0 0 1 0 0 0 0 1 0 0 0 0 1 0 0 0 0.3 0"/>
<feBlend mode="normal" in2="effect4_innerShadow_182_261" result="effect5_innerShadow_182_261"/>
<feColorMatrix in="SourceAlpha" type="matrix" values="0 0 0 0 0 0 0 0 0 0 0 0 0 0 0 0 0 0 127 0" result="hardAlpha"/>
<feOffset dy="-3"/>
<feGaussianBlur stdDeviation="4"/>
<feComposite in2="hardAlpha" operator="arithmetic" k2="-1" k3="1"/>
<feColorMatrix type="matrix" values="0 0 0 0 1 0 0 0 0 1 0 0 0 0 1 0 0 0 0.25 0"/>
<feBlend mode="normal" in2="effect5_innerShadow_182_261" result="effect6_innerShadow_182_261"/>
</filter>
<clipPath id="clip0_182_261">
<rect width="29.5243" height="29.5243" fill="white" transform="translate(31.2383 23.26)"/>
</clipPath>
</defs>
</svg>
