<svg width="92" height="92" viewBox="0 0 92 92" fill="none" xmlns="http://www.w3.org/2000/svg">
<g filter="url(#filter0_diiiii_182_228)">
<circle cx="46" cy="38" r="30" fill="#24AFFD"/>
</g>
<g clip-path="url(#clip0_182_228)">
<path d="M58.3047 25C58.7786 25 59.1797 25.1674 59.5078 25.5021C59.8359 25.8369 60 26.2461 60 26.7296V49.2704C60 49.568 59.9271 49.8469 59.7812 50.1073C59.6354 50.3677 59.4349 50.5815 59.1797 50.7489C58.9245 50.9163 58.6328 51 58.3047 51H33.6953C33.2214 51 32.8203 50.8326 32.4922 50.4979C32.1641 50.1631 32 49.7539 32 49.2704V26.7296C32 26.2461 32.1641 25.8369 32.4922 25.5021C32.8203 25.1674 33.2214 25 33.6953 25H58.3047ZM53.2188 27.9013V28.6266C53.2188 28.8126 53.2826 28.9614 53.4102 29.073C53.5378 29.1845 53.6927 29.2403 53.875 29.2403H54.4766C54.6589 29.2403 54.8138 29.1845 54.9414 29.073C55.069 28.9614 55.1328 28.8126 55.1328 28.6266V27.9013C55.1328 27.7897 55.1055 27.6874 55.0508 27.5944C54.9961 27.5014 54.9141 27.427 54.8047 27.3712C54.6953 27.3155 54.5859 27.2876 54.4766 27.2876H53.875C53.7656 27.2876 53.6654 27.3155 53.5742 27.3712C53.4831 27.427 53.401 27.5014 53.3281 27.5944C53.2552 27.6874 53.2188 27.7897 53.2188 27.9013ZM50.375 27.9013V28.6266C50.375 28.8126 50.4297 28.9614 50.5391 29.073C50.6484 29.1845 50.7943 29.2403 50.9766 29.2403H51.5781C51.7604 29.2403 51.9154 29.1845 52.043 29.073C52.1706 28.9614 52.2344 28.8126 52.2344 28.6266V27.9013C52.2344 27.7897 52.207 27.6874 52.1523 27.5944C52.0977 27.5014 52.0156 27.427 51.9062 27.3712C51.7969 27.3155 51.6875 27.2876 51.5781 27.2876H50.9766C50.7943 27.2876 50.6484 27.3433 50.5391 27.4549C50.4297 27.5665 50.375 27.7153 50.375 27.9013ZM57.9766 48.9356V31.1373H34.0234V48.9356H57.9766ZM57.9766 28.6266V27.9013C57.9766 27.7153 57.9219 27.5665 57.8125 27.4549C57.7031 27.3433 57.5573 27.2876 57.375 27.2876H56.7734C56.5911 27.2876 56.4362 27.3433 56.3086 27.4549C56.181 27.5665 56.1172 27.7153 56.1172 27.9013V28.6266C56.1172 28.7382 56.1445 28.8405 56.1992 28.9335C56.2539 29.0265 56.3359 29.1009 56.4453 29.1567C56.5547 29.2124 56.6641 29.2403 56.7734 29.2403H57.375C57.4844 29.2403 57.5846 29.2124 57.6758 29.1567C57.7669 29.1009 57.8398 29.0265 57.8945 28.9335C57.9492 28.8405 57.9766 28.7382 57.9766 28.6266ZM38.0156 40.7339C37.6875 40.5479 37.5234 40.269 37.5234 39.897V39.8412C37.5234 39.4692 37.6875 39.1903 38.0156 39.0043L42.5 36.8841C42.6094 36.8469 42.737 36.8283 42.8828 36.8283C43.0651 36.8283 43.2292 36.8655 43.375 36.9399C43.6302 37.1259 43.7578 37.3863 43.7578 37.721C43.7578 38.093 43.5938 38.372 43.2656 38.5579L40.4219 39.8412L43.2656 41.1803C43.5938 41.3662 43.7578 41.6452 43.7578 42.0172C43.7578 42.3519 43.6302 42.6123 43.375 42.7983C43.2292 42.8727 43.0651 42.9099 42.8828 42.9099C42.737 42.9099 42.6094 42.8913 42.5 42.8541L38.0156 40.7339ZM44.5234 45.4206C44.2318 45.4206 43.9948 45.2997 43.8125 45.0579C43.6302 44.8162 43.5755 44.5465 43.6484 44.2489L46.6562 34.8755C46.7656 34.4664 47.0391 34.2618 47.4766 34.2618C47.7682 34.2618 48.0052 34.3827 48.1875 34.6245C48.3698 34.8662 48.4245 35.1359 48.3516 35.4335L45.3438 44.8069C45.2344 45.216 44.9609 45.4206 44.5234 45.4206ZM48.2422 37.721C48.2422 37.3863 48.3698 37.1259 48.625 36.9399C48.7708 36.8655 48.9349 36.8283 49.1172 36.8283C49.263 36.8283 49.3906 36.8469 49.5 36.8841L53.9844 39.0043C54.3125 39.1903 54.4766 39.4692 54.4766 39.8412V39.897C54.4766 40.269 54.3125 40.5479 53.9844 40.7339L49.5 42.8541C49.3906 42.8913 49.263 42.9099 49.1172 42.9099C48.9349 42.9099 48.7708 42.8727 48.625 42.7983C48.3698 42.6123 48.2422 42.3519 48.2422 42.0172C48.2422 41.6452 48.4062 41.3662 48.7344 41.1803L51.5781 39.8412L48.7344 38.5579C48.4062 38.372 48.2422 38.093 48.2422 37.721Z" fill="white"/>
</g>
<defs>
<filter id="filter0_diiiii_182_228" x="0" y="-4" width="92" height="96" filterUnits="userSpaceOnUse" color-interpolation-filters="sRGB">
<feFlood flood-opacity="0" result="BackgroundImageFix"/>
<feColorMatrix in="SourceAlpha" type="matrix" values="0 0 0 0 0 0 0 0 0 0 0 0 0 0 0 0 0 0 127 0" result="hardAlpha"/>
<feOffset dy="8"/>
<feGaussianBlur stdDeviation="8"/>
<feColorMatrix type="matrix" values="0 0 0 0 0.0375 0 0 0 0 0.0375 0 0 0 0 0.0375 0 0 0 0.12 0"/>
<feBlend mode="normal" in2="BackgroundImageFix" result="effect1_dropShadow_182_228"/>
<feBlend mode="normal" in="SourceGraphic" in2="effect1_dropShadow_182_228" result="shape"/>
<feColorMatrix in="SourceAlpha" type="matrix" values="0 0 0 0 0 0 0 0 0 0 0 0 0 0 0 0 0 0 127 0" result="hardAlpha"/>
<feOffset dx="3" dy="4"/>
<feGaussianBlur stdDeviation="4"/>
<feComposite in2="hardAlpha" operator="arithmetic" k2="-1" k3="1"/>
<feColorMatrix type="matrix" values="0 0 0 0 1 0 0 0 0 1 0 0 0 0 1 0 0 0 0.7 0"/>
<feBlend mode="normal" in2="shape" result="effect2_innerShadow_182_228"/>
<feColorMatrix in="SourceAlpha" type="matrix" values="0 0 0 0 0 0 0 0 0 0 0 0 0 0 0 0 0 0 127 0" result="hardAlpha"/>
<feOffset dx="-10" dy="-12"/>
<feGaussianBlur stdDeviation="18.5"/>
<feComposite in2="hardAlpha" operator="arithmetic" k2="-1" k3="1"/>
<feColorMatrix type="matrix" values="0 0 0 0 0 0 0 0 0 0 0 0 0 0 0 0 0 0 0.25 0"/>
<feBlend mode="normal" in2="effect2_innerShadow_182_228" result="effect3_innerShadow_182_228"/>
<feColorMatrix in="SourceAlpha" type="matrix" values="0 0 0 0 0 0 0 0 0 0 0 0 0 0 0 0 0 0 127 0" result="hardAlpha"/>
<feOffset dy="2"/>
<feGaussianBlur stdDeviation="1"/>
<feComposite in2="hardAlpha" operator="arithmetic" k2="-1" k3="1"/>
<feColorMatrix type="matrix" values="0 0 0 0 1 0 0 0 0 1 0 0 0 0 1 0 0 0 0.6 0"/>
<feBlend mode="normal" in2="effect3_innerShadow_182_228" result="effect4_innerShadow_182_228"/>
<feColorMatrix in="SourceAlpha" type="matrix" values="0 0 0 0 0 0 0 0 0 0 0 0 0 0 0 0 0 0 127 0" result="hardAlpha"/>
<feOffset dx="6" dy="9"/>
<feGaussianBlur stdDeviation="10"/>
<feComposite in2="hardAlpha" operator="arithmetic" k2="-1" k3="1"/>
<feColorMatrix type="matrix" values="0 0 0 0 1 0 0 0 0 1 0 0 0 0 1 0 0 0 0.3 0"/>
<feBlend mode="normal" in2="effect4_innerShadow_182_228" result="effect5_innerShadow_182_228"/>
<feColorMatrix in="SourceAlpha" type="matrix" values="0 0 0 0 0 0 0 0 0 0 0 0 0 0 0 0 0 0 127 0" result="hardAlpha"/>
<feOffset dy="-3"/>
<feGaussianBlur stdDeviation="4"/>
<feComposite in2="hardAlpha" operator="arithmetic" k2="-1" k3="1"/>
<feColorMatrix type="matrix" values="0 0 0 0 1 0 0 0 0 1 0 0 0 0 1 0 0 0 0.25 0"/>
<feBlend mode="normal" in2="effect5_innerShadow_182_228" result="effect6_innerShadow_182_228"/>
</filter>
<clipPath id="clip0_182_228">
<rect width="29.5243" height="29.5243" fill="white" transform="translate(31.2383 23.26)"/>
</clipPath>
</defs>
</svg>
