<svg width="62" height="56" viewBox="0 0 62 56" fill="none" xmlns="http://www.w3.org/2000/svg">
<path d="M55.1261 55.125C56.7505 55.125 58.3084 54.4797 59.4571 53.331C60.6058 52.1824 61.2511 50.6245 61.2511 49V34.0427C61.2511 32.4183 60.6058 30.8604 59.4571 29.7117C58.3084 28.5631 56.7505 27.9178 55.1261 27.9178H46.6246C46.6246 25.7679 46.7532 23.6119 47.0043 21.462C47.3841 19.1835 48.0211 17.1561 48.9031 15.386C49.7912 13.6098 50.9304 12.2194 52.3269 11.2026C53.7173 10.0634 55.4874 9.49375 57.6434 9.49375V0C54.0971 0 50.9978 0.7595 48.3334 2.2785C45.6923 3.7821 43.4214 5.85827 41.6878 8.3545C39.9478 11.1066 38.6654 14.1224 37.8903 17.2847C37.1093 20.7745 36.7271 24.3417 36.7511 27.9178V49C36.7511 50.6245 37.3964 52.1824 38.545 53.331C39.6937 54.4797 41.2516 55.125 42.8761 55.125H55.1261ZM18.3761 55.125C20.0005 55.125 21.5584 54.4797 22.7071 53.331C23.8557 52.1824 24.5011 50.6245 24.5011 49V34.0427C24.5011 32.4183 23.8557 30.8604 22.7071 29.7117C21.5584 28.5631 20.0005 27.9178 18.3761 27.9178H9.87456C9.87456 25.7679 10.0032 23.6119 10.2543 21.462C10.6341 19.1835 11.2711 17.1561 12.1531 15.386C13.0412 13.6098 14.1804 12.2194 15.5769 11.2026C16.9673 10.0634 18.7374 9.49375 20.8934 9.49375V0C17.3471 0 14.2478 0.7595 11.5834 2.2785C8.94225 3.7821 6.67145 5.85827 4.93781 8.3545C3.19785 11.1066 1.9154 14.1224 1.14031 17.2847C0.359288 20.7745 -0.022911 24.3417 0.00106133 27.9178V49C0.00106133 50.6245 0.646372 52.1824 1.79503 53.331C2.94369 54.4797 4.50161 55.125 6.12606 55.125H18.3761Z" fill="url(#paint0_linear_182_278)"/>
<defs>
<linearGradient id="paint0_linear_182_278" x1="13.0146" y1="7.75363" x2="43.1312" y2="49.7461" gradientUnits="userSpaceOnUse">
<stop stop-color="#5F96FF"/>
<stop offset="0.583" stop-color="#4F54D9"/>
</linearGradient>
</defs>
</svg>
