<svg width="20" height="22" viewBox="0 0 20 22" fill="none" xmlns="http://www.w3.org/2000/svg">
<path d="M5.67819 5.09213C5.67797 5.56016 5.50512 6.00892 5.19766 6.3397C4.8902 6.67049 4.47331 6.85618 4.03872 6.85595C3.60412 6.85572 3.1874 6.66957 2.88025 6.33846C2.5731 6.00734 2.40066 5.55839 2.40088 5.09036C2.4011 4.62233 2.57395 4.17357 2.88141 3.84278C3.18887 3.512 3.60576 3.3263 4.04035 3.32654C4.47495 3.32677 4.89167 3.51292 5.19882 3.84403C5.50597 4.17514 5.67841 4.6241 5.67819 5.09213ZM5.72735 8.16272H2.45004V19.2098H5.72735V8.16272ZM10.9055 8.16272H7.64458V19.2098H10.8727V13.4127C10.8727 10.1833 14.7809 9.8833 14.7809 13.4127V19.2098H18.0173V12.2127C18.0173 6.7686 12.2328 6.97154 10.8727 9.64507L10.9055 8.16272Z" fill="#0073B1"/>
</svg>
