<svg width="408" height="209" viewBox="0 0 408 209" fill="none" xmlns="http://www.w3.org/2000/svg">
<mask id="mask0_182_108" style="mask-type:alpha" maskUnits="userSpaceOnUse" x="0" y="0" width="408" height="209">
<rect x="0.0839844" width="407.916" height="208.837" fill="#D9D9D9"/>
</mask>
<g mask="url(#mask0_182_108)">
<path d="M404.967 261.355C393.744 305.882 368.509 344.684 334.339 372.514C299.48 400.951 255.311 417.937 207.16 417.937C194.214 417.937 181.549 416.689 169.261 414.354C115.687 404.118 69.5113 372.546 39.4171 328.626C14.276 291.936 0.420188 246.576 2.99073 197.827C8.72742 88.5551 99.3859 0.907643 206.628 0.651738C255.342 0.491797 300.076 17.7334 335.249 46.6507C343.274 53.2402 350.797 60.4056 357.725 68.1467C357.756 68.1787 357.788 68.2106 357.819 68.2426C358.007 68.4666 358.227 68.6585 358.446 68.8824C358.446 68.9144 358.477 68.9144 358.477 68.9144C358.509 68.9464 358.572 69.0104 358.603 69.0423C360.139 70.7697 361.612 72.529 363.086 74.2884C363.619 74.9282 364.12 75.5359 364.622 76.1757C364.684 76.2717 364.778 76.3676 364.841 76.4636C365.656 77.4232 366.409 78.3829 367.161 79.3425C367.913 80.3022 368.666 81.2618 369.387 82.2215C369.418 82.2854 369.449 82.3174 369.481 82.3494C369.606 82.5413 369.763 82.7013 369.888 82.8932C370.045 83.0851 370.17 83.2451 370.296 83.437C370.797 84.1087 371.299 84.7805 371.8 85.4842C371.957 85.7082 372.114 85.9001 372.271 86.124C372.992 87.1156 373.681 88.1073 374.371 89.0989C375.28 90.4424 376.126 91.8179 376.91 93.1934C377.161 93.6092 377.38 94.0251 377.6 94.4409C381.581 101.99 383.43 109.987 383.43 117.792C383.43 118.496 383.399 119.2 383.368 119.903C383.336 120.511 383.305 121.087 383.274 121.663C383.242 122.175 383.18 122.686 383.117 123.166C383.086 123.358 383.086 123.55 383.054 123.71C382.992 124.318 382.898 124.894 382.804 125.501C382.741 125.853 382.709 126.173 382.647 126.525C382.647 126.557 382.615 126.589 382.615 126.589C382.553 126.909 382.49 127.261 382.427 127.581C382.365 127.932 382.271 128.284 382.208 128.604C382.051 129.308 381.894 129.98 381.706 130.683C381.518 131.355 381.33 132.027 381.111 132.731C381.017 133.083 380.891 133.402 380.797 133.722C380.672 134.074 380.578 134.394 380.452 134.714C380.327 135.034 380.202 135.386 380.076 135.706C379.575 137.017 379.01 138.329 378.415 139.576C378.101 140.216 377.788 140.856 377.474 141.463C377.161 142.103 376.816 142.711 376.44 143.287C376.252 143.575 376.095 143.895 375.907 144.182C375.719 144.47 375.531 144.79 375.343 145.078C375.155 145.366 374.967 145.654 374.747 145.974C374.559 146.262 374.34 146.55 374.151 146.837C373.556 147.701 372.929 148.533 372.271 149.365L372.239 149.397C371.8 149.94 371.362 150.452 370.923 150.996C370.703 151.252 370.452 151.54 370.233 151.764C369.982 152.02 369.763 152.275 369.512 152.531C369.042 153.043 368.54 153.523 368.039 154.035C367.788 154.291 367.537 154.515 367.286 154.771C367.035 154.994 366.753 155.25 366.503 155.474C365.97 155.954 365.437 156.402 364.904 156.85C364.622 157.074 364.34 157.298 364.057 157.49C362.615 158.609 361.111 159.633 359.543 160.56C359.293 160.72 359.01 160.88 358.76 161.008C358.446 161.2 358.133 161.36 357.819 161.552C356.095 162.48 354.277 163.311 352.427 164.047C352.177 164.143 351.894 164.239 351.644 164.335C351.173 164.527 350.703 164.655 350.233 164.815C349.919 164.911 349.606 165.007 349.293 165.103C348.039 165.487 346.753 165.806 345.437 166.094C345.029 166.19 344.622 166.254 344.214 166.35C343.932 166.414 343.618 166.446 343.336 166.51C342.96 166.574 342.584 166.638 342.208 166.702C342.02 166.734 341.832 166.766 341.644 166.766C341.33 166.83 340.985 166.862 340.64 166.894C339.919 166.958 339.198 167.022 338.446 167.086C338.164 167.118 337.85 167.118 337.568 167.15C337.224 167.182 336.879 167.182 336.503 167.182C336.064 167.182 335.625 167.214 335.186 167.214C317.819 111.97 267.098 71.9533 207.192 71.9533C162.897 71.9533 123.587 93.8331 99.0725 127.581V127.613C92.8969 136.089 87.7245 145.302 83.6179 155.09C79.3232 165.327 76.2197 176.171 74.4642 187.494C72.6147 199.49 72.2385 211.965 73.6492 224.761C75.6241 243.09 81.2668 260.395 89.8248 275.942C93.8373 283.235 98.4769 290.112 103.681 296.542C104.903 298.045 106.188 299.549 107.474 301.052C111.235 305.275 115.217 309.273 119.449 313.016C120.013 313.528 120.609 314.007 121.204 314.519C121.706 314.967 122.207 315.383 122.74 315.799C123.587 316.502 124.433 317.174 125.279 317.846C125.75 318.23 126.251 318.614 126.721 318.966C127.975 319.925 129.229 320.885 130.515 321.781C131.142 322.26 131.8 322.708 132.458 323.124C132.991 323.508 133.555 323.892 134.088 324.244C134.151 324.276 134.214 324.308 134.276 324.372C135.091 324.915 135.906 325.427 136.721 325.939C137.944 326.739 139.198 327.506 140.483 328.242C141.047 328.562 141.58 328.882 142.145 329.202C142.333 329.33 142.552 329.426 142.772 329.554C143.336 329.874 143.9 330.193 144.464 330.481C144.558 330.545 144.653 330.577 144.715 330.641C145.374 330.993 146.032 331.345 146.69 331.665C148.101 332.401 149.511 333.104 150.953 333.776C151.674 334.128 152.395 334.448 153.116 334.768C153.837 335.12 154.558 335.407 155.279 335.727C158.195 336.975 161.173 338.158 164.182 339.182C164.809 339.406 165.468 339.63 166.095 339.822C166.126 339.822 166.189 339.854 166.22 339.854C166.345 339.918 166.471 339.95 166.596 339.982C166.659 340.014 166.722 340.046 166.784 340.046C167.443 340.27 168.101 340.462 168.728 340.654C169.417 340.877 170.107 341.069 170.828 341.293C171.016 341.357 171.204 341.389 171.392 341.453C172.834 341.869 174.245 342.221 175.718 342.573C176.502 342.765 177.286 342.957 178.07 343.117C179.48 343.436 180.891 343.724 182.301 343.98C182.396 344.012 182.49 344.012 182.584 344.044C182.834 344.108 183.054 344.14 183.305 344.172C183.367 344.172 183.43 344.204 183.493 344.204C184.057 344.332 184.653 344.428 185.248 344.492C186.032 344.62 186.847 344.748 187.662 344.876C203.336 347.115 218.54 346.603 232.96 343.756C234.872 343.405 236.753 342.989 238.603 342.509C239.856 342.221 241.079 341.901 242.333 341.549C247.255 340.206 252.082 338.542 256.753 336.655C258.509 335.951 260.264 335.184 261.957 334.416C262.521 334.16 263.117 333.904 263.681 333.616C264.81 333.072 265.938 332.529 267.067 331.953C268.728 331.121 270.389 330.225 272.02 329.298C272.051 329.298 272.082 329.266 272.114 329.234C273.179 328.626 274.245 328.018 275.311 327.378C275.844 327.059 276.377 326.739 276.91 326.387C277.976 325.747 279.042 325.043 280.076 324.34C280.609 324.02 281.111 323.668 281.643 323.284C282.176 322.932 282.678 322.58 283.179 322.228C283.524 322.004 283.838 321.781 284.183 321.525C285.374 320.693 286.565 319.797 287.725 318.902C288.101 318.614 288.477 318.358 288.822 318.038C290.013 317.11 291.173 316.183 292.333 315.191C292.678 314.903 293.023 314.615 293.368 314.327C293.901 313.879 294.433 313.4 294.966 312.952C295.437 312.536 295.907 312.12 296.377 311.704C296.847 311.288 297.317 310.873 297.756 310.425C299.136 309.145 300.484 307.834 301.8 306.49C302.239 306.074 302.678 305.595 303.117 305.147C303.932 304.315 304.716 303.483 305.468 302.62C305.969 302.076 306.471 301.532 306.941 300.988C307.349 300.508 307.788 300.061 308.164 299.581C309.386 298.141 310.609 296.702 311.769 295.23C312.176 294.751 312.553 294.239 312.929 293.759C313.336 293.247 313.681 292.767 314.057 292.255C314.433 291.744 314.81 291.232 315.186 290.72C315.562 290.208 315.938 289.696 316.283 289.185C317.035 288.129 317.725 287.105 318.446 286.018C319.136 284.994 319.825 283.939 320.484 282.883C320.515 282.851 320.515 282.819 320.546 282.787C320.797 282.371 321.048 281.987 321.299 281.571C321.581 281.124 321.832 280.676 322.114 280.228C322.302 279.94 322.49 279.62 322.647 279.3C322.835 279.012 322.991 278.693 323.18 278.373C323.587 277.701 323.963 277.029 324.339 276.325C329.418 267.145 338.634 261.195 348.979 261.195H404.967V261.355Z" fill="url(#paint0_linear_182_108)" fill-opacity="0.06"/>
<path d="M348.909 261.356C338.564 261.356 329.348 267.306 324.27 276.486C323.894 277.158 323.517 277.83 323.11 278.534C322.922 278.854 322.765 279.141 322.577 279.461C322.389 279.781 322.201 280.069 322.044 280.389C321.762 280.837 321.511 281.285 321.229 281.732C320.978 282.148 320.727 282.564 320.477 282.948C320.445 282.98 320.445 283.012 320.414 283.044C319.756 284.1 319.097 285.155 318.376 286.179C317.655 287.234 316.934 288.29 316.213 289.346C315.868 289.857 315.492 290.369 315.116 290.881C314.74 291.393 314.364 291.905 313.988 292.416C313.611 292.928 313.235 293.408 312.859 293.92C312.483 294.432 312.107 294.912 311.699 295.391C310.539 296.863 309.348 298.334 308.094 299.742C307.687 300.222 307.279 300.701 306.872 301.149C306.401 301.693 305.9 302.237 305.398 302.781C304.646 303.644 303.862 304.476 303.047 305.308C302.64 305.756 302.169 306.203 301.73 306.651C300.414 307.995 299.066 309.306 297.687 310.586C297.248 311.034 296.777 311.449 296.307 311.865C295.837 312.281 295.367 312.729 294.897 313.113C294.364 313.593 293.831 314.04 293.298 314.488C292.953 314.776 292.608 315.064 292.263 315.352C291.103 316.312 289.944 317.271 288.752 318.199C288.376 318.487 288.031 318.775 287.655 319.063C286.495 319.958 285.304 320.854 284.113 321.686C283.768 321.941 283.455 322.165 283.11 322.389C282.608 322.773 282.075 323.125 281.574 323.445C281.072 323.797 280.539 324.149 280.006 324.501C278.972 325.204 277.906 325.876 276.84 326.548C276.307 326.9 275.774 327.22 275.241 327.539C274.176 328.179 273.11 328.787 272.044 329.395C272.013 329.427 271.981 329.427 271.95 329.459C270.32 330.386 268.658 331.282 266.997 332.114C265.868 332.69 264.74 333.233 263.611 333.777C263.047 334.065 262.483 334.321 261.887 334.577C260.163 335.377 258.439 336.112 256.683 336.816C252.012 338.735 247.185 340.367 242.263 341.71C241.041 342.062 239.787 342.382 238.533 342.67C236.652 343.15 234.771 343.566 232.89 343.917C218.501 346.796 203.266 347.276 187.592 345.037C186.777 344.909 185.962 344.781 185.178 344.653C184.583 344.557 184.019 344.461 183.423 344.365C183.36 344.365 183.298 344.333 183.235 344.333C182.984 344.301 182.765 344.269 182.514 344.205C182.42 344.173 182.326 344.173 182.232 344.141C180.821 343.885 179.41 343.597 178 343.278C177.216 343.118 176.432 342.926 175.649 342.734C174.207 342.382 172.765 341.998 171.323 341.614C171.135 341.55 170.946 341.518 170.758 341.454C170.037 341.262 169.348 341.038 168.658 340.815C168 340.623 167.341 340.431 166.714 340.207C166.652 340.175 166.589 340.143 166.526 340.143C166.401 340.111 166.276 340.079 166.15 340.015C166.119 340.015 166.056 339.983 166.025 339.983C165.366 339.791 164.74 339.567 164.113 339.343C161.103 338.319 158.125 337.168 155.21 335.888C154.489 335.6 153.768 335.281 153.047 334.929C152.326 334.609 151.605 334.289 150.884 333.937C149.442 333.265 148.031 332.562 146.62 331.826C145.962 331.506 145.304 331.154 144.645 330.802C144.551 330.77 144.457 330.706 144.395 330.642C143.83 330.354 143.266 330.035 142.702 329.715C142.482 329.587 142.294 329.491 142.075 329.363C141.511 329.043 140.946 328.723 140.413 328.403C139.16 327.667 137.906 326.9 136.652 326.1C135.837 325.588 135.022 325.076 134.207 324.533C134.144 324.501 134.081 324.469 134.018 324.405C133.486 324.053 132.921 323.669 132.388 323.285C131.73 322.837 131.072 322.389 130.445 321.941C129.159 321.046 127.874 320.086 126.652 319.127C126.15 318.775 125.68 318.391 125.21 318.007C124.363 317.335 123.517 316.663 122.67 315.96C122.138 315.544 121.636 315.096 121.134 314.68C120.539 314.168 119.975 313.689 119.379 313.177C115.147 309.434 111.166 305.436 107.404 301.213C106.119 299.742 104.802 298.238 103.611 296.703C98.407 290.273 93.7675 283.396 89.755 276.103C81.197 260.556 75.5543 243.251 73.5794 224.922C72.2001 212.126 72.5449 199.651 74.3944 187.655C76.1499 176.332 79.2534 165.488 83.5481 155.251C87.686 145.463 92.8584 136.25 99.0027 127.774V127.742C123.548 93.9941 162.859 72.0822 207.153 72.0822C267.06 72.0822 317.781 112.099 335.147 167.343C335.586 167.343 336.025 167.343 336.464 167.311C336.809 167.311 337.185 167.279 337.53 167.279C337.812 167.279 338.126 167.247 338.408 167.215C339.16 167.151 339.881 167.119 340.602 167.023C340.947 166.991 341.26 166.959 341.605 166.895C341.793 166.863 341.981 166.831 342.169 166.831C342.546 166.767 342.922 166.735 343.298 166.639C343.611 166.575 343.894 166.543 344.176 166.479C344.583 166.415 345.022 166.319 345.398 166.223C346.715 165.935 348 165.616 349.254 165.232C349.568 165.136 349.881 165.04 350.195 164.944C350.665 164.784 351.135 164.624 351.605 164.464C351.887 164.368 352.138 164.272 352.389 164.176C354.27 163.44 356.057 162.609 357.781 161.681C358.094 161.489 358.408 161.329 358.721 161.137C359.003 160.977 359.254 160.849 359.505 160.689C361.072 159.762 362.577 158.706 364.019 157.618C364.301 157.395 364.583 157.203 364.865 156.979C365.398 156.531 365.963 156.083 366.464 155.603C366.746 155.379 366.997 155.123 367.248 154.9C367.499 154.676 367.781 154.42 368 154.164C368.502 153.684 369.003 153.172 369.474 152.66C369.724 152.404 369.944 152.149 370.195 151.893C370.445 151.637 370.665 151.381 370.884 151.125C371.323 150.613 371.762 150.069 372.201 149.525C372.201 149.525 372.201 149.494 372.232 149.494C372.891 148.662 373.517 147.83 374.113 146.966C374.301 146.679 374.521 146.391 374.709 146.103C374.897 145.815 375.116 145.527 375.304 145.207C375.492 144.919 375.681 144.631 375.869 144.311C376.057 144.024 376.245 143.704 376.402 143.416C376.778 142.808 377.091 142.2 377.436 141.592C377.75 140.985 378.063 140.345 378.376 139.705C378.972 138.426 379.536 137.146 380.038 135.835C380.163 135.515 380.289 135.195 380.414 134.843C380.539 134.523 380.634 134.171 380.759 133.851C380.884 133.531 380.978 133.18 381.072 132.86C381.292 132.188 381.48 131.516 381.668 130.812C381.856 130.141 382.013 129.437 382.17 128.733C382.232 128.381 382.326 128.029 382.389 127.71C382.452 127.39 382.514 127.038 382.577 126.718C382.577 126.686 382.577 126.654 382.608 126.654C382.671 126.302 382.702 125.982 382.765 125.63C382.859 125.055 382.953 124.447 383.016 123.839C383.047 123.647 383.047 123.455 383.079 123.295C383.141 122.783 383.173 122.304 383.235 121.792C383.298 121.216 383.329 120.608 383.329 120.032C383.361 119.329 383.392 118.625 383.392 117.921C383.392 110.116 381.574 102.119 377.561 94.5699C377.342 94.154 377.122 93.7382 376.872 93.3224C376.119 91.9469 375.273 90.5714 374.333 89.2279C373.643 88.2363 372.953 87.2446 372.232 86.253C372.076 86.0291 371.919 85.8051 371.762 85.6132C371.26 84.9415 370.759 84.2377 370.257 83.566C370.132 83.374 369.975 83.2141 369.85 83.0222C369.724 82.8302 369.568 82.6383 369.442 82.4784C369.411 82.4144 369.38 82.3824 369.348 82.3504C368.627 81.3908 367.906 80.4311 367.122 79.4715C366.37 78.5118 365.618 77.5522 364.803 76.5926C364.74 76.4966 364.646 76.4006 364.583 76.3047V76.2727C362.671 73.7776 360.665 71.4105 358.564 69.1393C358.533 69.0754 358.47 69.0434 358.439 69.0114C358.439 69.0114 358.439 69.0114 358.408 68.9794C358.188 68.7555 358 68.5316 357.781 68.3396C357.749 68.3076 357.718 68.2756 357.687 68.2437C350.727 60.5025 343.204 53.3372 335.21 46.7477C325.242 39.9022 311.73 33.0247 294.113 28.6104C293.988 28.5784 293.893 28.5464 293.768 28.5464C285.618 26.5311 276.558 25.0277 266.589 24.292C221.323 20.3574 187.028 32.4489 187.028 32.4489C182.545 33.8244 178.125 35.3599 173.768 37.0552C171.636 37.8869 169.536 38.7506 167.467 39.6783C167.373 39.5503 167.279 39.6143 167.279 39.6143C98.5011 69.8111 50.0684 142.104 50.0684 226.553C50.0684 311.801 99.4415 384.702 169.254 414.355C181.511 416.69 194.207 417.938 207.153 417.938C255.304 417.938 299.473 400.952 334.332 372.515C368.502 344.717 393.737 305.884 404.96 261.356H348.909Z" fill="url(#paint1_linear_182_108)" fill-opacity="0.06"/>
</g>
<defs>
<linearGradient id="paint0_linear_182_108" x1="88.1627" y1="59.3442" x2="324.554" y2="345.318" gradientUnits="userSpaceOnUse">
<stop stop-color="#5F96FF"/>
<stop offset="0.583" stop-color="#4F54D9"/>
</linearGradient>
<linearGradient id="paint1_linear_182_108" x1="98.2478" y1="51.003" x2="334.639" y2="336.977" gradientUnits="userSpaceOnUse">
<stop stop-color="#3D56DE"/>
<stop offset="0.2691" stop-color="#4B79FF"/>
<stop offset="1" stop-color="#90ECFF"/>
</linearGradient>
</defs>
</svg>
