<svg width="14" height="13" viewBox="0 0 14 13" fill="none" xmlns="http://www.w3.org/2000/svg">
<path d="M6.9 0.945454C6.9 1.18182 6.7 1.41818 6.2 1.77273C3.8 3.9 2.7 5.55454 2.7 6.85454C2.7 7.56364 3.1 8.15454 3.8 8.39091C4.9 8.86364 5.3 9.69091 5.3 10.5182C5.3 11.2273 5 13 3.2 13C1.8 13 0 11.8182 0 8.98182C0 6.14545 2.3 3.07273 5.5 0.354545C5.7 0.118182 5.9 0.118182 6 0.118182C6.2 0.118182 6.4 0.236363 6.6 0.472727C6.8 0.709091 6.9 0.827273 6.9 0.945454ZM14 0.945454C14 1.18182 13.8 1.41818 13.3 1.77273C10.9 3.78182 9.8 5.55454 9.8 6.85454C9.8 7.56364 10.2 8.15454 10.9 8.39091C12 8.86364 12.4 9.69091 12.4 10.5182C12.4 11.2273 12.1 13 10.3 13C8.9 13 7.1 11.8182 7.1 8.98182C7.1 6.02727 9.4 2.95455 12.6 0.236363C12.8 -2.28936e-07 13 0 13.2 0C13.5 0.118182 14 0.709091 14 0.945454Z" fill="#A8ADB3" fill-opacity="0.1"/>
</svg>
