<svg width="17" height="13" viewBox="0 0 17 13" fill="none" xmlns="http://www.w3.org/2000/svg">
<path d="M16.5396 6.98961C16.7093 6.82059 16.8047 6.59138 16.8047 6.35238C16.8047 6.11339 16.7093 5.88418 16.5396 5.71516L11.4177 0.616467C11.3342 0.530383 11.2343 0.461719 11.1238 0.414483C11.0134 0.367246 10.8946 0.342382 10.7744 0.341342C10.6541 0.340302 10.5349 0.363107 10.4236 0.408426C10.3124 0.453744 10.2113 0.520669 10.1263 0.605295C10.0413 0.689921 9.97404 0.790554 9.92851 0.901321C9.88299 1.01209 9.86008 1.13077 9.86112 1.25045C9.86217 1.37012 9.88714 1.48839 9.9346 1.59835C9.98205 1.70832 10.051 1.80777 10.1375 1.89091L13.7138 5.45108L1.72359 5.45108C1.48346 5.45108 1.25317 5.54604 1.08338 5.71506C0.91358 5.88409 0.81819 6.11334 0.81819 6.35238C0.81819 6.59143 0.91358 6.82068 1.08338 6.9897C1.25317 7.15873 1.48346 7.25369 1.72359 7.25369L13.7138 7.25369L10.1375 10.8139C9.97257 10.9838 9.88131 11.2115 9.88337 11.4478C9.88544 11.6842 9.98066 11.9102 10.1485 12.0773C10.3164 12.2444 10.5435 12.3392 10.7809 12.3413C11.0183 12.3433 11.247 12.2525 11.4177 12.0883L16.5396 6.98961Z" fill="url(#paint0_linear_182_128)"/>
<defs>
<linearGradient id="paint0_linear_182_128" x1="24.227" y1="10.0119" x2="-5.46222" y2="10.0119" gradientUnits="userSpaceOnUse">
<stop offset="0.181272" stop-color="#89A3FF"/>
<stop offset="0.457009" stop-color="#6083FF"/>
<stop offset="1" stop-color="#476DF4"/>
</linearGradient>
</defs>
</svg>
