<svg width="16" height="12" viewBox="0 0 16 12" fill="none" xmlns="http://www.w3.org/2000/svg">
<path d="M15.7214 6.6483C15.8911 6.47928 15.9864 6.25007 15.9864 6.01108C15.9864 5.77208 15.8911 5.54287 15.7214 5.37385L10.5995 0.275158C10.516 0.189074 10.4161 0.120411 10.3056 0.073174C10.1951 0.0259374 10.0763 0.00107371 9.95612 3.37663e-05C9.8359 -0.00100618 9.71668 0.0217987 9.60541 0.0671172C9.49414 0.112436 9.39305 0.179361 9.30804 0.263987C9.22303 0.348613 9.1558 0.449245 9.11027 0.560013C9.06475 0.67078 9.04184 0.789464 9.04289 0.909139C9.04393 1.02881 9.06891 1.14708 9.11636 1.25705C9.16381 1.36701 9.23279 1.46646 9.31926 1.54961L12.8956 5.10977L0.905355 5.10977C0.665228 5.10977 0.434934 5.20473 0.265138 5.37376C0.0953424 5.54278 -4.69821e-05 5.77203 -4.69926e-05 6.01108C-4.7003e-05 6.25012 0.0953424 6.47937 0.265138 6.6484C0.434934 6.81742 0.665228 6.91238 0.905355 6.91238L12.8956 6.91238L9.31926 10.4725C9.15433 10.6425 9.06307 10.8702 9.06514 11.1065C9.0672 11.3428 9.16242 11.5689 9.33029 11.736C9.49816 11.9031 9.72524 11.9979 9.96264 12C10.2 12.002 10.4287 11.9112 10.5995 11.747L15.7214 6.6483Z" fill="#79828C"/>
</svg>
