<svg width="44" height="40" viewBox="0 0 44 40" fill="none" xmlns="http://www.w3.org/2000/svg">
<path d="M4.54993 0.125C3.40952 0.125 2.31581 0.581547 1.50942 1.3942C0.70303 2.20686 0.25 3.30906 0.25 4.45833V15.0403C0.25 16.1896 0.70303 17.2918 1.50942 18.1045C2.31581 18.9171 3.40952 19.3737 4.54993 19.3737H10.5182C10.5182 20.8947 10.4279 22.42 10.2516 23.941C9.98503 25.553 9.53784 26.9873 8.91865 28.2397C8.29516 29.4963 7.49537 30.48 6.51499 31.1993C5.53891 32.0053 4.29623 32.4083 2.78265 32.4083V39.125C5.27231 39.125 7.44808 38.5877 9.31855 37.513C11.1727 36.4492 12.7669 34.9804 13.984 33.2143C15.2055 31.2673 16.1058 29.1336 16.6499 26.8963C17.1982 24.4274 17.4665 21.9036 17.4497 19.3737V4.45833C17.4497 3.30906 16.9967 2.20686 16.1903 1.3942C15.3839 0.581547 14.2902 0.125 13.1498 0.125H4.54993ZM30.3495 0.125C29.2091 0.125 28.1154 0.581547 27.309 1.3942C26.5026 2.20686 26.0496 3.30906 26.0496 4.45833V15.0403C26.0496 16.1896 26.5026 17.2918 27.309 18.1045C28.1154 18.9171 29.2091 19.3737 30.3495 19.3737H36.3178C36.3178 20.8947 36.2275 22.42 36.0512 23.941C35.7846 25.553 35.3374 26.9873 34.7182 28.2397C34.0947 29.4963 33.2949 30.48 32.3145 31.1993C31.3385 32.0053 30.0958 32.4083 28.5822 32.4083V39.125C31.0719 39.125 33.2476 38.5877 35.1181 37.513C36.9723 36.4492 38.5665 34.9804 39.7835 33.2143C41.005 31.2673 41.9053 29.1336 42.4495 26.8963C42.9978 24.4274 43.2661 21.9036 43.2493 19.3737V4.45833C43.2493 3.30906 42.7962 2.20686 41.9898 1.3942C41.1834 0.581547 40.0897 0.125 38.9493 0.125H30.3495Z" fill="url(#paint0_linear_182_277)"/>
<defs>
<linearGradient id="paint0_linear_182_277" x1="34.1134" y1="33.6394" x2="12.754" y2="4.08705" gradientUnits="userSpaceOnUse">
<stop stop-color="#5F96FF"/>
<stop offset="0.583" stop-color="#4F54D9"/>
</linearGradient>
</defs>
</svg>
