<svg width="18" height="18" viewBox="0 0 18 18" fill="none" xmlns="http://www.w3.org/2000/svg">
<path d="M17 16.5L15.4 14.95M8.6 15.725C9.59805 15.725 10.5863 15.5346 11.5084 15.1646C12.4305 14.7946 13.2683 14.2522 13.974 13.5686C14.6797 12.8849 15.2395 12.0733 15.6215 11.18C16.0034 10.2867 16.2 9.32936 16.2 8.3625C16.2 7.39564 16.0034 6.43825 15.6215 5.54499C15.2395 4.65173 14.6797 3.8401 13.974 3.15643C13.2683 2.47275 12.4305 1.93044 11.5084 1.56044C10.5863 1.19044 9.59805 1 8.6 1C6.58435 1 4.65126 1.77569 3.22599 3.15643C1.80071 4.53716 1 6.40984 1 8.3625C1 10.3152 1.80071 12.1878 3.22599 13.5686C4.65126 14.9493 6.58435 15.725 8.6 15.725V15.725Z" stroke="white" stroke-width="1.5" stroke-linecap="round" stroke-linejoin="round"/>
</svg>
