<svg width="17" height="17" viewBox="0 0 17 17" fill="none" xmlns="http://www.w3.org/2000/svg">
<path d="M15.7819 1.85376C15.9537 1.97876 16.024 2.14543 15.9928 2.35376L13.9928 14.3538C13.9668 14.5048 13.8835 14.622 13.7428 14.7053C13.6699 14.747 13.5892 14.7678 13.5006 14.7678C13.4434 14.7678 13.3809 14.7548 13.3132 14.7288L9.77416 13.2834L7.88357 15.5881C7.78982 15.7079 7.66222 15.7678 7.50076 15.7678C7.43306 15.7678 7.37577 15.7574 7.32889 15.7366C7.22994 15.7001 7.15051 15.6389 7.09061 15.553C7.03072 15.467 7.00077 15.372 7.00077 15.2678V12.5413L13.7506 4.26782L5.39924 11.4944L2.31336 10.2288C2.12066 10.1558 2.01649 10.0126 2.00087 9.79907C1.99045 9.59074 2.07378 9.43709 2.25086 9.33813L15.2506 1.83813C15.3287 1.79126 15.4121 1.76782 15.5006 1.76782C15.6048 1.76782 15.6985 1.79647 15.7819 1.85376Z" fill="white"/>
</svg>
