<svg width="22" height="23" viewBox="0 0 22 23" fill="none" xmlns="http://www.w3.org/2000/svg">
<path fill-rule="evenodd" clip-rule="evenodd" d="M5.00123 18.5429C4.30668 18.5429 3.64057 18.2627 3.14945 17.7641C2.65833 17.2655 2.38242 16.5892 2.38242 15.884V7.02116C2.38242 6.31599 2.65833 5.6397 3.14945 5.14107C3.64057 4.64243 4.30668 4.3623 5.00123 4.3623H17.2223C17.9169 4.3623 18.583 4.64243 19.0741 5.14107C19.5652 5.6397 19.8412 6.31599 19.8412 7.02116V15.884C19.8412 16.5892 19.5652 17.2655 19.0741 17.7641C18.583 18.2627 17.9169 18.5429 17.2223 18.5429H5.00123ZM7.29269 8.10243C7.20376 8.02534 7.10049 7.96717 6.989 7.93138C6.87751 7.89559 6.76008 7.8829 6.64367 7.89408C6.52726 7.90525 6.41424 7.94006 6.31134 7.99643C6.20843 8.0528 6.11772 8.12958 6.04461 8.22223C5.97149 8.31488 5.91745 8.42149 5.8857 8.53575C5.85394 8.65 5.84512 8.76957 5.85976 8.88736C5.87439 9.00514 5.91219 9.11874 5.97089 9.22141C6.0296 9.32408 6.10803 9.41373 6.20152 9.48504L9.47503 12.1448C9.93951 12.5223 10.5168 12.7281 11.1118 12.7281C11.7068 12.7281 12.2841 12.5223 12.7485 12.1448L16.0221 9.48592C16.1116 9.41318 16.1861 9.32325 16.2414 9.22125C16.2967 9.11926 16.3317 9.00721 16.3443 8.8915C16.357 8.77579 16.3471 8.65868 16.3151 8.54686C16.2832 8.43504 16.2299 8.3307 16.1582 8.2398C16.0866 8.14891 15.998 8.07322 15.8976 8.01708C15.7971 7.96094 15.6867 7.92543 15.5728 7.9126C15.4588 7.89976 15.3434 7.90983 15.2333 7.94226C15.1232 7.97467 15.0204 8.0288 14.9309 8.10154L11.6574 10.7604C11.5025 10.8863 11.3101 10.9548 11.1118 10.9548C10.9135 10.9548 10.721 10.8863 10.5662 10.7604L7.29269 8.10154V8.10243Z" fill="#79828C"/>
</svg>
