<svg width="23" height="24" viewBox="0 0 23 24" fill="none" xmlns="http://www.w3.org/2000/svg">
<path d="M6.89542 5.20612C6.89518 5.72096 6.70504 6.2146 6.36684 6.57846C6.02863 6.94232 5.57006 7.14659 5.092 7.14633C4.61394 7.14607 4.15556 6.94131 3.81769 6.57709C3.47982 6.21286 3.29014 5.71902 3.29038 5.20418C3.29062 4.68935 3.48075 4.19571 3.81896 3.83185C4.15717 3.46799 4.61574 3.26372 5.0938 3.26398C5.57186 3.26423 6.03024 3.469 6.36811 3.83322C6.70598 4.19744 6.89566 4.69129 6.89542 5.20612ZM6.9495 8.58377H3.34445V20.7355H6.9495V8.58377ZM12.6455 8.58377H9.05845V20.7355H12.6094V14.3588C12.6094 10.8064 16.9084 10.4764 16.9084 14.3588V20.7355H20.4684V13.0388C20.4684 7.05024 14.1055 7.27348 12.6094 10.2144L12.6455 8.58377Z" fill="#79828C"/>
</svg>
