<svg width="22" height="23" viewBox="0 0 22 23" fill="none" xmlns="http://www.w3.org/2000/svg">
<path d="M19.2408 6.4539C16.5042 2.14655 10.8999 0.870303 6.56577 3.54245C2.33639 6.2146 0.974606 12.0375 3.71126 16.3316L3.93386 16.6772L3.01728 20.1603L6.44792 19.2297L6.78837 19.4557C8.268 20.2667 9.87856 20.732 11.476 20.732C13.1914 20.732 14.9067 20.2667 16.3863 19.3361C20.6157 16.5443 21.8727 10.841 19.2408 6.42731V6.4539ZM16.8446 15.4142C16.3863 16.1056 15.8102 16.5709 15.0114 16.6905C14.5531 16.6905 13.977 16.9165 11.6986 15.9992C9.76072 15.0686 8.15015 13.5531 7.01097 11.8115C6.33008 11.0005 5.97654 9.9503 5.87178 8.90005C5.87178 7.96945 6.21223 7.1585 6.78837 6.57355C7.01097 6.34755 7.24666 6.2279 7.46926 6.2279H8.0454C8.268 6.2279 8.50369 6.2279 8.62153 6.6932C8.84413 7.27815 9.42027 8.67405 9.42027 8.7937C9.53812 8.91335 9.48574 9.80406 8.96198 10.3092C8.67391 10.6416 8.62153 10.6549 8.73938 10.8942C9.19767 11.5855 9.77381 12.2901 10.3369 12.875C11.0177 13.46 11.7117 13.9253 12.5105 14.2709C12.7331 14.3906 12.9688 14.3906 13.0866 14.1513C13.2045 13.9253 13.7675 13.3403 14.0032 13.101C14.2258 12.875 14.3436 12.875 14.5793 12.9814L16.4125 13.912C16.6351 14.0316 16.8708 14.138 16.9886 14.2576C17.1065 14.6033 17.1065 15.0686 16.8708 15.4142H16.8446Z" fill="#79828C"/>
</svg>
