<svg width="23" height="24" viewBox="0 0 23 24" fill="none" xmlns="http://www.w3.org/2000/svg">
<path d="M9.65065 14.8676L14.8918 12.1694L9.65065 9.43229V14.8676ZM11.6501 5.53053C12.8665 5.53053 14.0377 5.54994 15.1636 5.58876C16.2895 5.62759 17.1177 5.65994 17.6483 5.68582L18.4442 5.72465L18.6189 5.74406C18.7354 5.757 18.8195 5.76994 18.8712 5.78288C18.923 5.79582 19.0071 5.80876 19.1236 5.8217C19.2401 5.83465 19.3436 5.867 19.4342 5.91876C19.5248 5.97053 19.6283 6.01582 19.7448 6.05465C19.8612 6.09347 19.9712 6.16465 20.0748 6.26818C20.1783 6.37171 20.2818 6.46876 20.3854 6.55935C20.4371 6.59818 20.4954 6.66288 20.5601 6.75347C20.6248 6.84406 20.7283 7.05759 20.8706 7.39406C21.013 7.73053 21.1101 8.09288 21.1618 8.48112C21.2136 8.947 21.2589 9.43876 21.2977 9.95641C21.3365 10.4741 21.3559 10.8882 21.3559 11.1988V13.1011C21.3689 14.1494 21.3042 15.1976 21.1618 16.2458C21.1101 16.6341 21.0195 16.9899 20.8901 17.3135C20.7606 17.637 20.6442 17.8635 20.5406 17.9929L20.3854 18.1676C20.2948 18.2711 20.1912 18.3682 20.0748 18.4588C19.9583 18.5494 19.8483 18.6141 19.7448 18.6529C19.6412 18.6917 19.5377 18.737 19.4342 18.7888C19.3306 18.8405 19.2271 18.8729 19.1236 18.8858L18.4442 18.9829C16.6324 19.1252 14.3677 19.1964 11.6501 19.1964L7.74829 19.1188C6.63535 19.0929 5.91712 19.067 5.59359 19.0411L4.66182 18.9441C4.403 18.9052 4.20888 18.8729 4.07947 18.847C3.95006 18.8211 3.76241 18.7435 3.51653 18.6141C3.27065 18.4846 3.07006 18.3358 2.91476 18.1676C2.863 18.1288 2.80476 18.0641 2.74006 17.9735C2.67535 17.8829 2.57182 17.6694 2.42947 17.3329C2.28712 16.9964 2.19006 16.6341 2.13829 16.2458C2.08653 15.7799 2.04123 15.2882 2.00241 14.7705C1.96359 14.2529 1.94418 13.8388 1.94418 13.5282V11.6258C1.93123 10.5776 1.99594 9.52935 2.13829 8.48112C2.19006 8.07994 2.28065 7.72406 2.41006 7.41347C2.53947 7.10288 2.65594 6.87641 2.75947 6.73406L2.91476 6.55935C3.01829 6.44288 3.12182 6.34582 3.22535 6.26818C3.32888 6.19053 3.43888 6.11935 3.55535 6.05465C3.67182 5.98994 3.77535 5.94465 3.86594 5.91876L4.17653 5.8217C4.293 5.78288 4.37712 5.76994 4.42888 5.78288C4.48065 5.79582 4.56476 5.78288 4.68124 5.74406C4.79771 5.70523 4.85594 5.69876 4.85594 5.72465C6.66771 5.59523 8.93241 5.53053 11.6501 5.53053Z" fill="#79828C"/>
</svg>
