<svg width="20" height="23" viewBox="0 0 20 23" fill="none" xmlns="http://www.w3.org/2000/svg">
<g clip-path="url(#clip0_298_5664)">
<path d="M18.2447 13.2722C18.366 12.6906 18.4413 12.0716 18.4413 11.4525C18.4413 6.73723 14.596 2.92343 9.85117 2.92343C9.22773 2.92343 8.60846 2.99406 8.01849 3.11869C7.2235 2.50798 6.23603 2.14655 5.16069 2.14655C2.57486 2.14655 0.474396 4.23209 0.474396 6.79954C0.474396 7.86724 0.83842 8.84769 1.44931 9.63289C1.32797 10.2145 1.25266 10.8335 1.25266 11.4525C1.25266 16.1679 5.09793 19.9817 9.8428 19.9817C10.4662 19.9817 11.0855 19.911 11.6755 19.7864C12.4705 20.393 13.4579 20.7544 14.5291 20.7544C17.1149 20.7544 19.2154 18.6688 19.2154 16.1014C19.2196 15.0378 18.8556 14.0574 18.2447 13.2722ZM10.1022 17.0735C7.35739 17.0735 5.06027 15.8604 5.06027 14.3731C5.06027 13.7084 5.43685 13.1019 6.29461 13.1019C7.60007 13.1019 7.72142 14.9672 9.98088 14.9672C11.0562 14.9672 11.7508 14.4936 11.7508 13.8746C11.7508 13.0977 11.0813 12.9772 9.99343 12.7113C7.37831 12.0716 5.06445 11.7974 5.06445 9.08865C5.06445 6.62921 7.51639 5.71938 9.62941 5.71938C11.9349 5.71938 14.2655 6.62921 14.2655 8.02096C14.2655 8.72306 13.7885 9.34208 12.9977 9.34208C11.8136 9.34208 11.7759 7.95033 9.85954 7.95033C8.7842 7.95033 8.10218 8.24114 8.10218 8.88509C8.10218 9.70767 8.97249 9.79076 10.9935 10.2561C12.7257 10.6424 14.7885 11.3695 14.7885 13.4799C14.7885 15.9352 12.3993 17.0735 10.1022 17.0735Z" fill="#79828C"/>
</g>
<defs>
<clipPath id="clip0_298_5664">
<rect width="18.7452" height="21.2709" fill="white" transform="translate(0.474396 0.817139)"/>
</clipPath>
</defs>
</svg>
