<svg width="15" height="14" viewBox="0 0 15 14" fill="none" xmlns="http://www.w3.org/2000/svg">
<path d="M7.5 0C3.63401 0 0.5 3.13401 0.5 7C0.5 10.866 3.63401 14 7.5 14C11.366 14 14.5 10.866 14.5 7C14.5 3.13401 11.366 0 7.5 0ZM9.94755 10.0049C9.82311 10.1293 9.66003 10.1915 9.49694 10.1915C9.33384 10.1915 9.17075 10.1293 9.04632 10.0049L6.83709 7.79564C6.8296 7.78815 6.82232 7.78047 6.81522 7.77263C6.81206 7.76916 6.8091 7.76556 6.80604 7.76204C6.80231 7.75774 6.79852 7.75348 6.7949 7.74907C6.79103 7.74435 6.78735 7.73953 6.78364 7.73473C6.78104 7.73139 6.7784 7.72809 6.77586 7.72469C6.77188 7.71933 6.76809 7.71388 6.76428 7.70841C6.76219 7.7054 6.76004 7.70245 6.758 7.69941C6.75421 7.69375 6.75061 7.68802 6.74701 7.68227C6.74511 7.67922 6.74317 7.67623 6.74132 7.67315C6.73791 7.66748 6.73466 7.66173 6.73144 7.65596C6.72957 7.65262 6.72765 7.64929 6.72584 7.64591C6.72292 7.64046 6.72017 7.63497 6.71741 7.62947C6.71547 7.62557 6.71347 7.62168 6.71161 7.61773C6.70922 7.61269 6.70699 7.60763 6.70474 7.60254C6.70272 7.59797 6.70068 7.59342 6.69877 7.58878C6.6969 7.58427 6.69515 7.57971 6.6934 7.57517C6.69134 7.56987 6.68929 7.56456 6.68738 7.55919C6.68596 7.55521 6.68465 7.5512 6.68331 7.5472C6.68132 7.54124 6.67935 7.53528 6.67752 7.52924C6.67643 7.52567 6.67548 7.52207 6.67446 7.51847C6.67264 7.51202 6.67084 7.50557 6.66921 7.49904C6.66839 7.49567 6.66765 7.4923 6.66689 7.48893C6.66533 7.48221 6.6638 7.47547 6.66246 7.46867C6.66179 7.46523 6.66123 7.46179 6.66061 7.45834C6.6594 7.45164 6.65821 7.44495 6.6572 7.43817C6.65661 7.43418 6.65618 7.43016 6.65567 7.42616C6.65488 7.41995 6.65405 7.41375 6.65343 7.40749C6.6529 7.40211 6.65258 7.39672 6.6522 7.39132C6.65185 7.38636 6.65137 7.38144 6.65113 7.37645C6.65062 7.36597 6.65034 7.35549 6.65034 7.34499V7.34494V2.36116C6.65034 2.0092 6.93566 1.72388 7.28761 1.72388C7.63958 1.72388 7.92489 2.0092 7.92489 2.36116V7.08095L9.94755 9.10362C10.1964 9.35249 10.1964 9.75598 9.94755 10.0049Z" fill="url(#paint0_linear_189_3260)"/>
<defs>
<linearGradient id="paint0_linear_189_3260" x1="3.47471" y1="1.96918" x2="11.3461" y2="11.8468" gradientUnits="userSpaceOnUse">
<stop stop-color="#5F96FF"/>
<stop offset="0.583" stop-color="#4F54D9"/>
</linearGradient>
</defs>
</svg>
