<svg width="62" height="63" viewBox="0 0 62 63" fill="none" xmlns="http://www.w3.org/2000/svg">
<circle cx="31" cy="31.0447" r="31" fill="url(#paint0_linear_2072_39809)"/>
<circle cx="30.9999" cy="31.0448" r="25.6552" fill="#656096"/>
<path d="M31.1894 32.2622L26.7852 45.1038C28.1258 45.5127 29.5112 45.717 30.9418 45.717C32.5897 45.717 34.2179 45.4356 35.8265 44.8732C35.7759 44.8094 35.7439 44.7391 35.7308 44.6622L31.1894 32.2622Z" fill="white"/>
<path d="M43.852 23.9077L43.8495 23.9102C43.9263 24.3827 43.9647 24.8873 43.9647 25.4236C43.9647 26.7908 43.588 28.5535 42.8343 30.7123L38.332 43.706C40.5667 42.4026 42.3488 40.6233 43.6778 38.3682C45.007 36.1131 45.6714 33.6501 45.6714 30.9797C45.6714 28.4874 45.065 26.13 43.852 23.9077Z" fill="white"/>
<path d="M16.2056 30.9797L16.2031 30.9822C16.2031 33.8571 16.9634 36.4827 18.4838 38.8588C20.004 41.2349 22.0156 43.0296 24.5185 44.243L17.4881 24.9822C16.6331 26.8987 16.2056 28.8979 16.2056 30.9797Z" fill="white"/>
<path d="M40.086 33.8938C40.2577 33.3199 40.3697 32.943 40.422 32.763C40.4743 32.5831 40.5478 32.3019 40.6427 31.9191C40.7375 31.5364 40.8013 31.2201 40.834 30.9697C40.8667 30.7195 40.883 30.4734 40.883 30.2315L40.8658 30.2363C40.8658 28.8953 40.4639 27.5413 39.6595 26.1741C39.6218 26.1086 39.5328 25.9616 39.3923 25.7326C39.2516 25.5035 39.1591 25.3507 39.115 25.2738C39.0708 25.197 38.9907 25.063 38.8747 24.8715C38.7587 24.6802 38.6819 24.5364 38.6442 24.4399C38.6066 24.3433 38.5494 24.2092 38.4725 24.0375C38.3957 23.8659 38.3452 23.7187 38.3206 23.5961C38.2961 23.4735 38.2708 23.3361 38.2445 23.1839C38.2184 23.0317 38.2053 22.8789 38.2053 22.7252C38.2053 22.022 38.4415 21.4119 38.914 20.8951C39.3865 20.3785 39.9742 20.1201 40.677 20.1201H40.8682C39.5279 18.8936 38.005 17.9419 36.2999 17.2649C34.5947 16.5878 32.8038 16.2493 30.9271 16.2493C28.3998 16.2493 26.053 16.846 23.8869 18.0399C21.7208 19.2336 19.9675 20.8528 18.627 22.897C18.7545 22.897 18.9203 22.9002 19.1247 22.9068C19.3289 22.9132 19.4762 22.9166 19.5662 22.9166L23.4945 22.7252C23.7366 22.7121 23.9187 22.7979 24.0412 22.9829C24.1639 23.1675 24.1804 23.3654 24.0905 23.5766C24.0005 23.7876 23.8345 23.9061 23.5926 23.9321C23.0547 23.996 22.4924 24.0466 21.9053 24.0843L27.2708 40.0289L30.4906 30.3689L28.1929 24.0818L26.6604 23.9297C26.5066 23.9164 26.3824 23.8659 26.2876 23.7775C26.1927 23.6892 26.1355 23.5836 26.1158 23.4612C26.0963 23.3385 26.1062 23.2198 26.1453 23.1054C26.1847 22.9909 26.2582 22.8953 26.366 22.8184C26.4739 22.7415 26.6047 22.7097 26.7584 22.7227C28.38 22.8371 29.6698 22.901 30.6279 22.914L34.5562 22.7227C34.7983 22.7097 34.9805 22.7955 35.1031 22.9802C35.2256 23.1651 35.2421 23.3628 35.1522 23.5738C35.0624 23.7848 34.8965 23.9034 34.6544 23.9297C34.1166 23.9933 33.5543 24.0441 32.9672 24.0818L38.2936 39.911L39.7499 35.0051C39.8024 34.8383 39.9145 34.4678 40.086 33.8938Z" fill="white"/>
<defs>
<linearGradient id="paint0_linear_2072_39809" x1="31" y1="0.0446777" x2="31" y2="62.0447" gradientUnits="userSpaceOnUse">
<stop stop-color="#656096"/>
<stop offset="1" stop-color="#656096" stop-opacity="0"/>
</linearGradient>
</defs>
</svg>
