<svg width="20" height="22" viewBox="0 0 20 22" fill="none" xmlns="http://www.w3.org/2000/svg">
<g clip-path="url(#clip0_182_750)">
<path d="M8.37503 13.8746L13.1397 11.4217L8.37503 8.93347V13.8746ZM10.1927 5.38641C11.2986 5.38641 12.3633 5.40405 13.3868 5.43935C14.4103 5.47464 15.1633 5.50405 15.6456 5.52758L16.3691 5.56288L16.528 5.58052C16.6339 5.59229 16.7103 5.60405 16.7574 5.61582C16.8044 5.62758 16.8809 5.63935 16.9868 5.65111C17.0927 5.66288 17.1868 5.69229 17.2691 5.73935C17.3515 5.78641 17.4456 5.82758 17.5515 5.86288C17.6574 5.89817 17.7574 5.96288 17.8515 6.05699C17.9456 6.15111 18.0397 6.23935 18.1339 6.3217C18.1809 6.35699 18.2339 6.41582 18.2927 6.49817C18.3515 6.58052 18.4456 6.77464 18.575 7.08052C18.7044 7.38641 18.7927 7.71582 18.8397 8.06876C18.8868 8.49229 18.928 8.93935 18.9633 9.40994C18.9986 9.88052 19.0162 10.257 19.0162 10.5393V12.2688C19.028 13.2217 18.9691 14.1746 18.8397 15.1276C18.7927 15.4805 18.7103 15.8041 18.5927 16.0982C18.475 16.3923 18.3691 16.5982 18.275 16.7158L18.1339 16.8746C18.0515 16.9688 17.9574 17.057 17.8515 17.1393C17.7456 17.2217 17.6456 17.2805 17.5515 17.3158C17.4574 17.3511 17.3633 17.3923 17.2691 17.4393C17.175 17.4864 17.0809 17.5158 16.9868 17.5276L16.3691 17.6158C14.7221 17.7452 12.6633 17.8099 10.1927 17.8099L6.64562 17.7393C5.63385 17.7158 4.98091 17.6923 4.68679 17.6688L3.83973 17.5805C3.60444 17.5452 3.42797 17.5158 3.31032 17.4923C3.19268 17.4688 3.02209 17.3982 2.79856 17.2805C2.57503 17.1629 2.39268 17.0276 2.2515 16.8746C2.20444 16.8393 2.1515 16.7805 2.09268 16.6982C2.03385 16.6158 1.93973 16.4217 1.81032 16.1158C1.68091 15.8099 1.59268 15.4805 1.54562 15.1276C1.49856 14.7041 1.45738 14.257 1.42209 13.7864C1.38679 13.3158 1.36915 12.9393 1.36915 12.657V10.9276C1.35738 9.97464 1.41621 9.0217 1.54562 8.06876C1.59268 7.70405 1.67503 7.38052 1.79268 7.09817C1.91032 6.81582 2.01621 6.60994 2.11032 6.48052L2.2515 6.3217C2.34562 6.21582 2.43973 6.12758 2.53385 6.05699C2.62797 5.98641 2.72797 5.9217 2.83385 5.86288C2.93973 5.80405 3.03385 5.76288 3.11621 5.73935L3.39856 5.65111C3.50444 5.61582 3.58091 5.60405 3.62797 5.61582C3.67503 5.62758 3.7515 5.61582 3.85738 5.58052C3.96326 5.54523 4.01621 5.53935 4.01621 5.56288C5.66326 5.44523 7.72209 5.38641 10.1927 5.38641Z" fill="#FF0000"/>
</g>
<defs>
<clipPath id="clip0_182_750">
<rect width="19.6639" height="21.1765" fill="white" transform="translate(0.191406 0.68042)"/>
</clipPath>
</defs>
</svg>
