<svg xmlns="http://www.w3.org/2000/svg" width="403" height="418" fill="none"><path d="M402 261c-11 44-36 83-70 111a200 200 0 0 1-295-44A208 208 0 0 1 204 0a201 201 0 0 1 151 67v1h1l4 6 2 2 2 3 3 3 1 1 1 2a169 169 0 0 1 6 9 50 50 0 0 1 6 25l-1 2v6l-1 1a51 51 0 0 1-1 4v2l-1 1a53 53 0 0 1-3 8h-1v1l-1 1-1 1-2 3-1 1-1 1v1l-2 1-1 1v1a63 63 0 0 1-8 5l-1 1-5 2-1 1h-2l-4 1-2 1a442 442 0 0 1-2 0h-5l-2 1a133 133 0 0 0-236-40 136 136 0 0 0-25 97 136 136 0 0 0 46 88l1 2 2 1a147 147 0 0 0 4 3l4 3 2 1 1 2h1a99 99 0 0 0 6 3l1 1 1 1 2 1 2 1a105 105 0 0 0 6 3l3 1a126 126 0 0 0 10 4h1l2 1 2 1h1a94 94 0 0 0 11 2h1l2 1h2a135 135 0 0 0 74-10l2-1a160 160 0 0 0 8-5l4-1a42 42 0 0 0 4-3l2-1 1-2h1l4-3 1-1 4-3h1l1-2 2-1 1-1 4-4 1-2 3-2 1-2 1-1 4-5 1-1 1-1a2043 2043 0 0 0 7-10l1-1v-2h1v-1l2-2c5-10 14-16 24-16h56v1Z" fill="url(#a)" fill-opacity=".1"/><path d="M346 261c-10 0-19 6-24 15l-2 2v1l-1 1-1 1v1a66 66 0 0 1-5 7l-1 1-1 2-1 1-1 2a93 93 0 0 1-5 5l-1 2-3 3-1 1a118 118 0 0 1-5 5l-2 1-1 2-1 1-4 2-1 1a94 94 0 0 1-6 5l-2 1-3 2-2 1-3 2-5 2-3 2-2 1a106 106 0 0 1-23 8l-6 1c-14 3-29 4-45 1h-4l-1-1h-5l-2-1-4-1h-1a40 40 0 0 1-4-2h-3a112 112 0 0 1-11-5l-2-1a106 106 0 0 1-6-3l-2-1h-1l-1-1-4-3-3-1a49 49 0 0 1-3-3l-4-3-2-1-2-2-2-1-1-2c-5-3-9-7-12-12l-4-4a140 140 0 0 1-20-141 134 134 0 0 1 252 12h3l2-1a11 11 0 0 0 1 0h4a49 49 0 0 0 4-2h2l1-1 5-2 1-1h1l4-3 1-1 2-1v-1l1-1 2-1v-1l1-1 1-1 2-3 1-1h1a21 21 0 0 0 1-2l1-2 1-2 1-4 1-1v-2a39 39 0 0 0 1-4l1-1v-6l1-2a46 46 0 0 0-6-25l-1-1-2-4-3-3v-1l-2-2v-1l-3-3-2-3-6-8h-1l-23-22c-10-7-23-14-41-18-8-2-17-4-27-4-45-4-80 8-80 8a191 191 0 0 0-19 7A202 202 0 0 0 47 226c0 85 50 158 120 188a202 202 0 0 0 235-153h-56Z" fill="url(#b)" fill-opacity=".1"/><path d="M402 261h-56c-10 0-19 6-25 15a135 135 0 0 1-136 68c-26-3-49-15-68-32l11 11 2 1v1a196 196 0 0 0 61 27 190 190 0 0 0 83 2h1c54-11 101-46 127-93Z" fill="url(#c)" fill-opacity=".1"/><defs><linearGradient id="a" x1="85.5" y1="58.7" x2="321.8" y2="344.6" gradientUnits="userSpaceOnUse"><stop stop-color="#5F96FF"/><stop offset=".6" stop-color="#4F54D9"/></linearGradient><linearGradient id="b" x1="95.5" y1="50.3" x2="331.9" y2="336.2" gradientUnits="userSpaceOnUse"><stop stop-color="#3D56DE"/><stop offset=".3" stop-color="#4B79FF"/><stop offset="1" stop-color="#90ECFF"/></linearGradient><linearGradient id="c" x1="81.2" y1="62" x2="317.7" y2="348.1" gradientUnits="userSpaceOnUse"><stop stop-color="#4F54D9"/><stop offset=".2" stop-color="#5059DC"/><stop offset=".5" stop-color="#5468E4"/><stop offset=".8" stop-color="#5A7FF2"/><stop offset="1" stop-color="#5F96FF"/></linearGradient></defs></svg>