<svg xmlns="http://www.w3.org/2000/svg" width="31" height="31" viewBox="0 0 31 31" fill="none">
<g clip-path="url(#clip0_182_138)">
<path d="M19.9471 15.6268C20.0031 15.73 20.2364 16.0802 20.7382 16.3427C20.7806 16.3639 20.8246 16.3882 20.8656 16.411C20.8762 16.4155 20.8898 16.4216 20.8974 16.4261C24.6842 18.4005 27.4675 19.2444 29.5118 19.3931C29.7482 19.4104 29.9609 19.2522 30.0097 19.0198C30.248 17.8852 30.3671 16.6981 30.3671 15.4781C30.3671 12.1322 29.4912 9.02769 27.7789 6.55839C26.668 4.96622 25.2344 3.61175 23.4446 2.61521C21.2154 1.34276 18.4711 0.625488 15.2083 0.625488H2.55978C1.31767 0.625488 0.310547 1.63346 0.310547 2.87662V28.0782C0.310547 29.3217 1.31767 30.3294 2.55978 30.3294H15.2083C18.8301 30.3294 21.8928 29.3738 24.319 27.7418C25.6707 26.8256 26.8648 25.67 27.7786 24.3172C28.0543 23.9208 28.3079 23.5076 28.539 23.0796C28.665 22.8464 28.5694 22.554 28.3313 22.438C24.7985 20.7155 22.108 18.4859 20.5305 16.9961C20.5305 16.993 20.5305 16.993 20.5305 16.993C20.4486 16.9202 20.3761 16.8566 20.3092 16.7988C20.0229 16.5606 19.747 16.4242 19.6182 16.3695L19.5666 16.3483C18.4204 15.9072 17.7625 16.2961 16.2891 17.6467C16.2762 17.6584 16.257 17.6425 16.2662 17.6277C17.714 15.2845 17.6669 14.8074 15.8113 12.777C15.7996 12.7641 15.8155 12.7446 15.8302 12.7538C18.1684 14.2012 18.6478 14.1557 20.6752 12.2941C20.688 12.2823 20.7072 12.2982 20.698 12.313C19.7012 13.9317 19.4177 14.6626 19.9471 15.6268ZM23.6364 13.7163C23.1324 14.5404 23.1505 14.7394 23.7991 15.455C23.8106 15.4675 23.7952 15.4865 23.7807 15.4776C22.9573 14.9732 22.7586 14.9913 22.045 15.6405C22.0324 15.6519 22.0135 15.6366 22.0224 15.6221C22.525 14.798 22.5069 14.599 21.8582 13.8848C21.8468 13.8723 21.8621 13.8533 21.8766 13.8622C22.7 14.3652 22.8988 14.3471 23.6138 13.6979C23.6263 13.6865 23.6453 13.7018 23.6364 13.7163ZM18.8092 17.4586C18.6225 17.7725 18.6325 17.8738 18.875 18.1486C18.8864 18.1614 18.8708 18.1804 18.8561 18.1714C18.5408 17.9848 18.4393 17.9935 18.1653 18.2353C18.1525 18.2468 18.1335 18.2311 18.1425 18.2164C18.3292 17.9025 18.3192 17.8012 18.0767 17.5264C18.0653 17.5136 18.0809 17.4946 18.0956 17.5036C18.4109 17.6902 18.5124 17.6815 18.7864 17.4397C18.7992 17.4282 18.8179 17.4438 18.8092 17.4586ZM21.5527 25.1229C19.8225 26.4077 17.7321 27.2332 15.4603 27.4198C8.29088 28.0088 2.18681 22.0496 2.60048 14.8618C2.96034 8.61061 8.13896 3.65276 14.4733 3.65276C14.6812 3.65276 14.8875 3.65806 15.0927 3.66894C15.1063 3.66978 15.1113 3.6868 15.1005 3.69517C12.2168 5.86679 10.3517 9.32286 10.3517 13.2139C10.3517 19.5519 15.3023 24.7349 21.5446 25.0964C21.5583 25.0973 21.5638 25.1148 21.5527 25.1229ZM17.7525 12.0393C17.9398 11.7241 17.9298 11.6225 17.6873 11.3475C17.6758 11.3346 17.6914 11.3157 17.7062 11.3246C18.0215 11.5112 18.123 11.5026 18.3975 11.2604C18.4103 11.249 18.4293 11.2646 18.4204 11.2794C18.2333 11.5946 18.2431 11.6959 18.4851 11.9693C18.4965 11.9822 18.4809 12.0011 18.4661 11.9922C18.1511 11.8061 18.0496 11.8159 17.7754 12.0583C17.7623 12.0698 17.7436 12.0541 17.7525 12.0393Z" fill="white"/>
</g>
<defs>
<clipPath id="clip0_182_138">
<rect width="30.105" height="30.1304" fill="white" transform="translate(0.286133 0.412354)"/>
</clipPath>
</defs>
</svg>